<?xml version="1.0" standalone="no"?>
<!DOCTYPE svg PUBLIC "-//W3C//DTD SVG 1.1//EN" "http://www.w3.org/Graphics/SVG/1.1/DTD/svg11.dtd" >
<svg>
<metadata>
Created by FontForge 20090622 at Wed Sep  2 15:37:49 2015
 By deploy user
Copyright (C) 2000, 2007 Hoefler &#38; Frere-Jones. http://www.typography.com
</metadata>
<defs>
<font id="Archer-Light" horiz-adv-x="530" >
  <font-face 
    font-family="Archer Light"
    font-weight="300"
    font-stretch="normal"
    units-per-em="1000"
    panose-1="0 0 0 0 0 0 0 0 0 0"
    ascent="800"
    descent="-200"
    x-height="416"
    cap-height="658"
    bbox="-47 -243 1372 987"
    underline-thickness="50"
    underline-position="-50"
    unicode-range="U+0020-U+FB04"
  />
<missing-glyph horiz-adv-x="503" 
d="M2 -200v1000h500v-1000h-500zM73 750l179 -390l179 390h-358zM52 -76l172 376l-172 376v-752zM452 676l-172 -376l172 -376v752zM252 240l-179 -390h358z" />
    <glyph glyph-name="f_f" unicode="ff" horiz-adv-x="557" 
d="M153 416h230v161q0 91 39 130q32 32 78 32q27 0 43.5 -11t16.5 -31q0 -13 -8.5 -21.5t-21.5 -8.5q-33 0 -38 38q-27 -2 -45 -21q-27 -32 -27 -98v-170h110v-33h-110v-350h83v-33h-192v33h72v350h-230v-350h83v-33h-192v33h72v350h-77v33h77v141q0 91 39 129q33 33 79 33
q27 0 43.5 -11t16.5 -31q0 -13 -8.5 -21.5t-22.5 -8.5q-32 0 -37 39q-26 -2 -44 -22q-29 -31 -29 -98v-150zM252 683l-2 1h-2z" />
    <glyph glyph-name="fi" unicode="fi" horiz-adv-x="513" 
d="M404 416v-383h78v-33h-191v33h76v350h-214v-350h83v-33h-192v33h72v350h-77v33h77v146q0 100 50 144q35 32 86 32q38 0 60.5 -16t22.5 -39q0 -14 -9 -23.5t-22 -9.5q-19 0 -28 16t-3 34q-12 5 -25 5q-35 0 -63 -31q-32 -37 -32 -103v-155h251z" />
    <glyph glyph-name="fl" unicode="fl" horiz-adv-x="523" 
d="M299 33h78v350h-224v-350h83v-33h-192v33h72v350h-77v33h77v155q0 83 44 127q41 41 109 41q65 0 102 -39l8 -9l14 42h21v-700h78v-33h-193v33zM265 706q-45 0 -78 -31q-34 -36 -34 -102v-157h224v159q0 12 -1 18q-13 1 -21.5 10.5t-8.5 22.5q0 18 13 28l-16 21
q-31 31 -78 31z" />
    <glyph glyph-name="f_f_i" unicode="ffi" horiz-adv-x="776" 
d="M599 683q0 -14 -9.5 -23.5t-22.5 -9.5q-19 0 -28 16t-3 34q-10 5 -24 5q-33 0 -60 -27q-35 -37 -35 -107v-155h251v-383h77v-33h-191v33h77v350h-214v-350h82v-33h-191v33h72v350h-227v-350h83v-33h-192v33h72v350h-77v33h77v140q0 80 41 124q38 38 100 38q32 0 56 -10
q41 -16 41 -51q0 -14 -8 -22.5t-22 -8.5q-19 0 -28.5 16t-3.5 36q-19 8 -37 8q-47 0 -74 -32q-28 -34 -28 -98v-140h227v146q0 100 49 144q36 32 86 32q39 0 61.5 -16t22.5 -39z" />
    <glyph glyph-name="f_f_l" unicode="ffl" horiz-adv-x="784" 
d="M153 556v-140h227v155q0 83 44 127q41 41 109 41q64 0 102 -40l7 -8l14 42h21v-700h78v-33h-193v33h78v350h-223v-350h83v-33h-192v33h72v350h-227v-350h83v-33h-192v33h72v350h-77v33h77v140q0 80 41 124q38 38 100 38q35 0 58 -11q39 -16 39 -50q0 -14 -8 -22.5
t-22 -8.5q-20 0 -29 17t-3 36q-17 7 -37 7q-47 0 -74 -32q-28 -34 -28 -98zM417 573v-157h223v159q0 12 -1 18q-13 1 -21 10.5t-8 22.5q0 18 12 28q-8 14 -15 21q-31 31 -78 31q-45 0 -78 -31q-34 -34 -34 -102z" />
    <glyph glyph-name="f_b" unicode="fb" horiz-adv-x="822" 
d="M377 0v383h-224v-350h83v-33h-192v33h72v350h-77v33h77v155q0 83 44 127q41 41 109 41q65 0 102 -39l8 -9l14 42h21v-383q68 73 159 73q86 0 144 -61t58 -155q0 -91 -59.5 -152.5t-150.5 -61.5q-86 0 -152 59l-16 -52h-20zM566 26q74 0 122 51t48 130q0 80 -46.5 131.5
t-119.5 51.5q-91 0 -156 -77v-227q65 -60 152 -60zM346 626q0 18 13 28l-16 21q-31 31 -78 31q-45 0 -78 -31q-34 -36 -34 -102v-157h224v159q0 12 -1 18q-13 1 -21.5 10.5t-8.5 22.5z" />
    <glyph glyph-name="f_h" unicode="fh" horiz-adv-x="810" 
d="M377 33v350h-224v-350h83v-33h-192v33h72v350h-77v33h77v155q0 83 44 127q41 41 109 41q65 0 102 -39l8 -9l14 42h21v-400q73 90 163 90q71 0 105 -47q26 -35 26 -96v-247h72v-33h-182v33h73v242q0 53 -21 81q-25 33 -79 33q-82 0 -157 -91v-265h72v-33h-182v33h73z
M346 626q0 18 13 28l-16 21q-31 31 -78 31q-45 0 -78 -31q-34 -36 -34 -102v-157h224v159q0 12 -1 18q-13 1 -21.5 10.5t-8.5 22.5z" />
    <glyph glyph-name="f_j" unicode="fj" horiz-adv-x="485" 
d="M367 383h-214v-350h83v-33h-192v33h72v350h-77v33h77v146q0 100 50 144q35 32 86 32q38 0 60.5 -16t22.5 -39q0 -14 -9 -23.5t-22 -9.5q-19 0 -28 16t-3 34q-12 5 -25 5q-35 0 -63 -31q-32 -37 -32 -103v-155h251v-417q0 -69 -14 -114q-26 -85 -106 -85q-33 0 -53.5 15
t-20.5 39q0 13 8 23.5t22 10.5q12 0 20 -8.5t8 -20.5q0 -14 -7 -22q9 -6 25 -6q51 0 70 67q11 38 11 96v389z" />
    <glyph glyph-name="f_k" unicode="fk" horiz-adv-x="778" 
d="M414 733v-546l217 197h-98v32h221v-33h-75l-151 -136l150 -214h76v-33h-97l-156 227l-87 -80v-114h74v-33h-184v33h73v350h-224v-350h83v-33h-192v33h72v350h-77v33h77v155q0 83 44 127q41 41 109 41q65 0 102 -39l8 -9l14 42h21zM153 573v-157h224v159q0 12 -1 18
q-13 1 -21.5 10.5t-8.5 22.5q0 18 13 28l-16 21q-31 31 -78 31q-45 0 -78 -31q-34 -36 -34 -102z" />
    <glyph glyph-name="f_f_b" unicode="ffb" horiz-adv-x="1086" 
d="M640 0v383h-223v-350h83v-33h-192v33h72v350h-227v-350h83v-33h-192v33h72v350h-77v33h77v140q0 80 41 124q38 38 100 38q35 0 58 -11q39 -16 39 -50q0 -14 -8 -22.5t-22 -8.5q-20 0 -29 17t-3 36q-17 7 -37 7q-47 0 -74 -32q-28 -34 -28 -98v-140h227v155q0 83 44 127
q41 41 109 41q64 0 102 -40l7 -8l14 42h21v-383q69 73 160 73q86 0 143.5 -61t57.5 -155q0 -92 -59 -153t-151 -61q-87 0 -151 59l-17 -52h-20zM829 26q74 0 122 51t48 130q0 81 -46 132t-120 51q-91 0 -156 -77v-227q65 -60 152 -60zM610 626q0 18 12 28q-8 14 -15 21
q-31 31 -78 31q-45 0 -78 -31q-34 -34 -34 -102v-157h223v159q0 12 -1 18q-13 1 -21 10.5t-8 22.5z" />
    <glyph glyph-name="f_f_h" unicode="ffh" horiz-adv-x="1073" 
d="M677 733v-400q73 90 164 90q71 0 105 -47q25 -35 25 -96v-247h73v-33h-182v33h72v242q0 53 -21 81q-25 33 -78 33q-82 0 -158 -91v-265h72v-33h-182v33h73v350h-223v-350h83v-33h-192v33h72v350h-227v-350h83v-33h-192v33h72v350h-77v33h77v140q0 80 41 124q38 38 100 38
q35 0 58 -11q39 -16 39 -50q0 -14 -8 -22.5t-22 -8.5q-20 0 -29 17t-3 36q-17 7 -37 7q-47 0 -74 -32q-28 -34 -28 -98v-140h227v155q0 83 44 127q41 41 109 41q64 0 102 -40l7 -8l14 42h21zM417 573v-157h223v159q0 12 -1 18q-13 1 -21 10.5t-8 22.5q0 18 12 28
q-8 14 -15 21q-31 31 -78 31q-45 0 -78 -31q-34 -34 -34 -102z" />
    <glyph glyph-name="f_f_j" unicode="ffj" horiz-adv-x="748" 
d="M668 416v-417q0 -69 -14 -114q-28 -85 -107 -85q-33 0 -53.5 15.5t-20.5 38.5q0 13 8.5 23.5t21.5 10.5t21 -8.5t8 -20.5t-7 -22q7 -6 24 -6q52 0 71 67q11 38 11 96v389h-214v-350h82v-33h-191v33h72v350h-227v-350h83v-33h-192v33h72v350h-77v33h77v140q0 80 41 124
q38 38 100 38q32 0 56 -10q41 -16 41 -51q0 -14 -8 -22.5t-22 -8.5q-20 0 -29 16.5t-3 36.5q-17 7 -37 7q-47 0 -74 -32q-28 -34 -28 -98v-140h227v146q0 100 49 144q36 32 86 32q39 0 61.5 -16t22.5 -39q0 -14 -9.5 -23.5t-22.5 -9.5q-19 0 -28 16t-3 34q-10 5 -24 5
q-33 0 -60 -27q-35 -37 -35 -107v-155h251z" />
    <glyph glyph-name="f_f_k" unicode="ffk" horiz-adv-x="1041" 
d="M677 733v-546l218 197h-99v32h221v-33h-74l-152 -136l151 -214h75v-33h-97l-155 227l-88 -80v-114h75v-33h-185v33h73v350h-223v-350h83v-33h-192v33h72v350h-227v-350h83v-33h-192v33h72v350h-77v33h77v140q0 80 41 124q38 38 100 38q35 0 58 -11q39 -16 39 -50
q0 -14 -8 -22.5t-22 -8.5q-20 0 -29 17t-3 36q-17 7 -37 7q-47 0 -74 -32q-28 -34 -28 -98v-140h227v155q0 83 44 127q41 41 109 41q64 0 102 -40l7 -8l14 42h21zM417 573v-157h223v159q0 12 -1 18q-13 1 -21 10.5t-8 22.5q0 18 12 28q-8 14 -15 21q-31 31 -78 31
q-45 0 -78 -31q-34 -34 -34 -102z" />
    <glyph glyph-name=".notdef" horiz-adv-x="503" 
d="M2 -200v1000h500v-1000h-500zM73 750l179 -390l179 390h-358zM52 -76l172 376l-172 376v-752zM452 676l-172 -376l172 -376v752zM252 240l-179 -390h358z" />
    <glyph glyph-name=".null" horiz-adv-x="0" 
 />
    <glyph glyph-name="nonmarkingreturn" horiz-adv-x="333" 
 />
    <glyph glyph-name="space" unicode=" " horiz-adv-x="223" 
 />
    <glyph glyph-name="exclam" unicode="!" horiz-adv-x="227" 
d="M103 167l-14 491h49l-14 -491h-21zM114 -8q-17 0 -28.5 11.5t-11.5 28.5t11.5 29t28.5 12q16 0 27.5 -12t11.5 -29q0 -16 -11.5 -28t-27.5 -12z" />
    <glyph glyph-name="quotedbl" unicode="&#x22;" horiz-adv-x="267" 
d="M191 466l-21 155q-6 47 29 47q16 0 24 -12.5t4 -34.5l-21 -155h-15zM60 466l-21 155q-3 22 5 34.5t24 12.5q36 0 28 -47l-21 -155h-15z" />
    <glyph glyph-name="numbersign" unicode="#" horiz-adv-x="487" 
d="M48 334v33h105l21 132h33l-21 -132h149l21 132h33l-21 -132h101v-33h-106l-25 -163h100v-33h-105l-21 -138h-34l21 138h-148l-21 -138h-34l21 138h-100v33h105l26 163h-100zM182 334l-26 -163h148l26 163h-148z" />
    <glyph glyph-name="dollar" unicode="$" horiz-adv-x="432" 
d="M260 568l-6 -72q55 -6 89.5 -30t34.5 -54q0 -33 -29 -33q-12 0 -21.5 8.5t-9.5 21.5q0 15 11 26q-19 23 -77 31l-15 -196q35 -12 57.5 -22.5t45.5 -26.5t34 -38.5t11 -52.5q0 -61 -46.5 -95t-121.5 -35l-8 -104l-31 2l8 103q-61 5 -102.5 32t-41.5 64q0 15 8.5 25
t21.5 10q14 0 22.5 -9t8.5 -22q0 -16 -13 -26q20 -35 98 -44l16 214q-34 12 -54 21t-42.5 24.5t-33 36t-10.5 48.5q0 54 45 88.5t114 34.5l6 73zM349 131q0 39 -29 62t-85 42l-16 -205q59 1 94.5 28t35.5 73zM99 375q0 -36 27.5 -56.5t80.5 -38.5l14 188q-54 -1 -88 -26
t-34 -67z" />
    <glyph glyph-name="percent" unicode="%" horiz-adv-x="607" 
d="M443 223q46 0 78 -33.5t32 -81.5t-32 -81.5t-78 -33.5q-47 0 -79 33.5t-32 81.5t32 81.5t79 33.5zM164 277q-46 0 -78 33.5t-32 80.5q0 48 32 81.5t78 33.5q47 0 79 -33.5t32 -81.5q0 -47 -32 -80.5t-79 -33.5zM164 307q34 0 55.5 24.5t21.5 59.5q0 36 -21.5 61t-55.5 25
q-33 0 -54.5 -25t-21.5 -61q0 -35 21.5 -59.5t54.5 -24.5zM443 193q-34 0 -55.5 -25t-21.5 -60t21.5 -60t55.5 -25q33 0 54.5 25t21.5 60t-21.5 60t-54.5 25zM119 -21l-26 19l193 251l193 253l26 -18l-194 -253q-184 -239 -192 -252z" />
    <glyph glyph-name="ampersand" unicode="&#x26;" horiz-adv-x="587" 
d="M564 274h-60q-27 -86 -70 -151q113 -107 118 -110l-24 -25l-115 108q-85 -103 -206 -103q-81 0 -127.5 43.5t-46.5 107.5q0 58 36 102t105 86q-38 42 -53.5 75t-15.5 70q0 56 39 98t100 42q53 0 89 -33.5t36 -86.5q0 -45 -34 -85.5t-108 -85.5q18 -19 68 -67l115 -113
q39 59 61 128h-61v32h154v-32zM207 27q105 0 183 92l-119 114q-44 41 -75 75q-63 -39 -93.5 -77.5t-30.5 -87.5t35.5 -82.5t99.5 -33.5zM144 476q0 -58 61 -126q69 41 97 74t28 73q0 39 -24 63t-62 24q-44 0 -72 -30.5t-28 -77.5z" />
    <glyph glyph-name="quotesingle" unicode="'" horiz-adv-x="137" 
d="M60 466l-21 155q-3 22 5 34.5t24 12.5q36 0 28 -47l-21 -155h-15z" />
    <glyph glyph-name="parenleft" unicode="(" horiz-adv-x="321" 
d="M322 -225q-124 83 -188.5 214t-64.5 271t64.5 271t188.5 214l22 -29q-117 -79 -176.5 -202t-59.5 -254q0 -130 59.5 -253.5t176.5 -202.5z" />
    <glyph glyph-name="parenright" unicode=")" horiz-adv-x="321" 
d="M-2 -225l-21 29q116 80 175.5 202.5t59.5 253.5q0 130 -59.5 253.5t-175.5 202.5l21 29q124 -83 189 -214.5t65 -270.5t-65 -270.5t-189 -214.5z" />
    <glyph glyph-name="asterisk" unicode="*" horiz-adv-x="364" 
d="M291 567l-97 -16l69 -68q27 -25 6 -45q-11 -9 -23 -3.5t-20 21.5l-44 88l-44 -88q-6 -15 -18 -21t-24 2q-10 8 -8.5 21t14.5 25l69 68l-97 16q-17 2 -25.5 11.5t-4.5 22.5q4 12 17.5 14t26.5 -5l87 -45l-16 97q-3 17 3.5 28t19.5 11t19.5 -11t2.5 -28l-15 -97l88 45
q13 8 26.5 5.5t17.5 -14.5q4 -13 -4.5 -22.5t-25.5 -11.5z" />
    <glyph glyph-name="plus" unicode="+" horiz-adv-x="390" 
d="M177 109v137h-135v35h135v137h36v-137h135v-35h-135v-137h-36z" />
    <glyph glyph-name="comma" unicode="," horiz-adv-x="167" 
d="M21 -126l-9 15q68 54 70 108q-17 2 -28 13t-11 27t11 27t26 11q19 0 31.5 -14.5t12.5 -39.5q0 -41 -26.5 -80t-76.5 -67z" />
    <glyph glyph-name="hyphen" unicode="-" horiz-adv-x="262" 
d="M35 254v38h192v-38h-192z" />
    <glyph glyph-name="period" unicode="." horiz-adv-x="167" 
d="M84 -8q-18 0 -29.5 12t-11.5 30q0 17 11.5 29t29.5 12q17 0 28.5 -12t11.5 -29q0 -18 -11.5 -30t-28.5 -12z" />
    <glyph glyph-name="slash" unicode="/" horiz-adv-x="430" 
d="M-1 -204l-34 15l410 926l34 -15z" />
    <glyph glyph-name="zero" unicode="0" horiz-adv-x="525" 
d="M263 -8q-95 0 -155.5 73.5t-60.5 184.5q0 110 60.5 183.5t155.5 73.5q94 0 154.5 -73.5t60.5 -183.5q0 -111 -60.5 -184.5t-154.5 -73.5zM263 26q78 0 127 63t49 161q0 97 -49.5 160t-126.5 63q-78 0 -127 -63t-49 -160q0 -98 49 -161t127 -63z" />
    <glyph glyph-name="one" unicode="1" horiz-adv-x="378" 
d="M63 0v33h119v427l-111 -32l-8 33l143 41h15v-469h118v-33h-276z" />
    <glyph glyph-name="two" unicode="2" horiz-adv-x="463" 
d="M218 473q-36 0 -66.5 -14.5t-46.5 -37.5q-6 -9 -9 -18q27 -7 27 -32q0 -14 -9 -23.5t-22 -9.5q-16 0 -25.5 12t-9.5 31q0 27 16 52q20 32 60 53t87 21q77 0 120.5 -40t43.5 -98q0 -54 -34.5 -92.5t-103.5 -84.5q-119 -78 -159 -159h278v93h35v-126h-356l-4 16
q18 46 52 86.5t63 63.5t74 54q62 42 89.5 73t27.5 76q0 46 -33.5 75t-94.5 29z" />
    <glyph glyph-name="three" unicode="3" horiz-adv-x="470" 
d="M42 -4q0 19 10.5 31t26.5 12q13 0 21.5 -9t8.5 -21q0 -25 -28 -33q4 -10 13 -21q41 -46 130 -46q69 0 112 39.5t43 96.5q0 82 -81 119q-47 22 -116 22h-17v34h19q66 0 118 30q67 41 67 107q0 51 -38 83t-102 32q-81 0 -119 -48q-7 -10 -10 -21q12 -3 19.5 -12.5
t7.5 -19.5q0 -14 -9 -22.5t-22 -8.5q-15 0 -25.5 12t-10.5 30q0 26 17 52q22 33 63 53t91 20q79 0 127.5 -44.5t48.5 -105.5q0 -87 -87 -131q-32 -17 -63 -21q28 -4 61 -18q46 -19 72.5 -55.5t26.5 -84.5q0 -76 -55.5 -124t-138.5 -48q-54 0 -98 19t-66 51q-17 23 -17 51z
" />
    <glyph glyph-name="four" unicode="4" horiz-adv-x="474" 
d="M306 -120v189h-287l-5 13l311 424l28 -21l-280 -383h233v175l35 15v-190h119v-33h-119v-189h-35z" />
    <glyph glyph-name="five" unicode="5" horiz-adv-x="454" 
d="M70 -77q-28 26 -28 56q0 16 10 28t25 12q13 0 22 -8.5t9 -21.5q0 -23 -22 -31q4 -6 15 -16q43 -34 114 -34q69 0 114 44.5t45 114.5t-44 111.5t-118 41.5q-69 0 -132 -28l-16 10l33 297h282v-36h-250l-27 -230q51 20 111 20q89 0 144.5 -50t55.5 -136q0 -83 -57 -137.5
t-140 -54.5q-96 0 -146 48z" />
    <glyph glyph-name="six" unicode="6" horiz-adv-x="501" 
d="M287 599q-81 0 -137.5 -85.5t-58.5 -244.5q18 47 65.5 79.5t105.5 32.5q84 0 138.5 -54.5t54.5 -134.5q0 -84 -56 -142t-139 -58q-86 0 -142 56q-63 64 -63 208q0 187 70 282t165 95q73 0 114 -43q23 -25 23 -51q0 -21 -10.5 -32t-25.5 -11q-14 0 -22 9t-8 22q0 21 18 31
q-24 41 -92 41zM260 26q69 0 112.5 47t43.5 119q0 68 -42 111.5t-112 43.5q-71 0 -117.5 -48.5t-46.5 -112.5q0 -69 45 -114q46 -46 117 -46z" />
    <glyph glyph-name="seven" unicode="7" horiz-adv-x="426" 
d="M133 -121l-34 14l249 574h-277v-106h-35v138h355l6 -13z" />
    <glyph glyph-name="eight" unicode="8" horiz-adv-x="477" 
d="M238 -8q-82 0 -137 49t-55 123q0 55 36 98.5t93 59.5q-52 18 -84 58.5t-32 86.5q0 72 51.5 119t127.5 47q77 0 128 -47t51 -119q0 -47 -32 -87t-84 -58q56 -15 93 -58.5t37 -99.5q0 -73 -55.5 -122.5t-137.5 -49.5zM238 338q60 0 100.5 37t40.5 93q0 55 -40.5 93.5
t-100.5 38.5t-100 -38.5t-40 -93.5q0 -56 40.5 -93t99.5 -37zM238 25q65 0 108.5 40t43.5 100q0 61 -44 100.5t-108 39.5t-107.5 -39.5t-43.5 -100.5q0 -60 43.5 -100t107.5 -40z" />
    <glyph glyph-name="nine" unicode="9" horiz-adv-x="501" 
d="M206 -125q-75 0 -116 44q-22 23 -22 50q0 20 10.5 31.5t24.5 11.5t22.5 -9t8.5 -22q0 -20 -18 -31q25 -42 93 -42q86 0 143.5 83.5t57.5 238.5q-1 -1 -1 -2q-18 -47 -64.5 -78t-105.5 -31q-84 0 -138.5 53.5t-54.5 133.5q0 83 56.5 141.5t139.5 58.5q86 0 141 -57
q64 -64 64 -207q0 -97 -21 -171t-56.5 -115t-76.5 -61t-87 -20zM357 427q-45 45 -115 45q-69 0 -113 -47.5t-44 -118.5q0 -68 42.5 -110.5t111.5 -42.5q71 0 118 47.5t47 111.5q0 70 -47 115z" />
    <glyph glyph-name="colon" unicode=":" horiz-adv-x="185" 
d="M93 271q-17 0 -28.5 12.5t-11.5 29.5t11.5 29.5t28.5 12.5t28.5 -12.5t11.5 -29.5t-11.5 -29.5t-28.5 -12.5zM93 -8q-17 0 -28.5 12t-11.5 30q0 17 11.5 29t28.5 12t28.5 -12t11.5 -29q0 -18 -11.5 -30t-28.5 -12z" />
    <glyph glyph-name="semicolon" unicode=";" horiz-adv-x="185" 
d="M93 271q-17 0 -28.5 12.5t-11.5 29.5t11.5 29.5t28.5 12.5t28.5 -12.5t11.5 -29.5t-11.5 -29.5t-28.5 -12.5zM29 -127l-10 16q68 53 72 107q-17 1 -28.5 12.5t-11.5 28.5q0 16 11.5 27t26.5 11q19 0 32 -15t13 -40q0 -38 -27.5 -78.5t-77.5 -68.5z" />
    <glyph glyph-name="less" unicode="&#x3c;" horiz-adv-x="370" 
d="M283 90l-239 157v14l239 157l19 -28l-207 -136l207 -136z" />
    <glyph glyph-name="equal" unicode="=" horiz-adv-x="390" 
d="M42 307v35h306v-35h-306zM42 165v34h306v-34h-306z" />
    <glyph glyph-name="greater" unicode="&#x3e;" horiz-adv-x="370" 
d="M87 90l-19 28l207 136l-207 136l19 28l239 -157v-14z" />
    <glyph glyph-name="question" unicode="?" horiz-adv-x="415" 
d="M22 528q0 36 23 68q22 32 63.5 52t91.5 20q84 0 136.5 -49t52.5 -123q0 -67 -49 -119t-134 -73l-7 -137h-21l-9 160q87 19 134 63t47 105q0 62 -41 100t-108 38q-91 0 -128 -57q-6 -8 -11 -25q34 -6 34 -37q0 -13 -10 -23t-24 -10q-16 0 -28 13.5t-12 33.5zM190 -6
q-15 -1 -26.5 10t-12.5 27q0 16 11 28t26 12q16 1 27 -10t12 -27q1 -17 -10 -28.5t-27 -11.5z" />
    <glyph glyph-name="at" unicode="@" horiz-adv-x="787" 
d="M322 -173q-124 0 -199.5 82t-75.5 210q0 199 125.5 340.5t296.5 141.5q127 0 201 -76t74 -202q0 -115 -53 -199t-125 -84q-44 0 -64 24.5t-14 61.5q-18 -38 -55 -63.5t-80 -25.5q-56 0 -91 37t-35 102q0 87 54.5 148.5t127.5 61.5q49 0 77.5 -27.5t34.5 -69.5l23 94h35
l-55 -222q-12 -43 -1 -67.5t44 -24.5q60 0 103.5 77.5t43.5 176.5q0 112 -65.5 181.5t-179.5 69.5q-105 0 -195 -60.5t-143.5 -166t-53.5 -229.5q0 -114 67 -189t178 -75q90 0 166 41l13 -24q-80 -44 -179 -44zM359 69q64 0 105.5 57t41.5 125q0 48 -26 75.5t-70 27.5
q-61 0 -103 -52t-42 -125q0 -50 24.5 -79t69.5 -29z" />
    <glyph glyph-name="A" unicode="A" horiz-adv-x="702" 
d="M17 0v35h72l220 588h-83v35h250v-35h-83l220 -588h73v-35h-203v35h86l-77 209h-283l-77 -209h88v-35h-203zM222 279h257l-128 347z" />
    <glyph glyph-name="B" unicode="B" horiz-adv-x="594" 
d="M48 0v35h91v588h-91v35h262q104 0 156 -47t52 -117q0 -59 -36.5 -101t-96.5 -56q72 -14 112 -55t40 -104q0 -80 -60.5 -129t-159.5 -49h-269zM180 35h138q82 0 130.5 39.5t48.5 103.5q0 67 -50.5 104t-144.5 37h-122v-284zM180 354h123q87 0 131 38.5t44 99.5
q0 59 -43.5 95t-126.5 36h-128v-269z" />
    <glyph glyph-name="C" unicode="C" horiz-adv-x="699" 
d="M388 -11q-145 0 -237.5 99t-92.5 236q0 147 95.5 246t230.5 99q99 0 170.5 -52t71.5 -114q0 -21 -11.5 -34t-29.5 -13q-15 0 -25.5 10.5t-10.5 25.5q0 14 8.5 24.5t22.5 12.5q-11 38 -65.5 71t-130.5 33q-122 0 -203 -90.5t-81 -217.5q0 -124 81.5 -212t206.5 -88
q122 0 217 89l22 -28q-102 -97 -239 -97z" />
    <glyph glyph-name="D" unicode="D" horiz-adv-x="720" 
d="M48 0v35h91v588h-91v35h244q170 0 269 -89t99 -236q0 -150 -97.5 -241.5t-268.5 -91.5h-246zM180 35h118q155 0 238 81.5t83 217.5q0 132 -87 210.5t-241 78.5h-111v-588z" />
    <glyph glyph-name="E" unicode="E" horiz-adv-x="580" 
d="M48 0v35h91v588h-91v35h463v-146h-40v111h-291v-269h233v-36h-233v-283h291v111h40v-146h-463z" />
    <glyph glyph-name="F" unicode="F" horiz-adv-x="555" 
d="M48 0v35h91v588h-91v35h453v-146h-39v111h-282v-280h229v-35h-229v-273h98v-35h-230z" />
    <glyph glyph-name="G" unicode="G" horiz-adv-x="733" 
d="M379 -8q-132 0 -226 90.5t-94 238.5q0 153 99 250.5t236 97.5q103 0 173 -48t70 -101q0 -19 -10.5 -31t-27.5 -12q-15 0 -25 10.5t-10 25.5q0 25 22 35q-20 34 -72.5 59.5t-120.5 25.5q-130 0 -211 -90.5t-81 -221.5q0 -130 80.5 -212t199.5 -82q121 0 226 80v161h-202
v35h242v-303h-39v70q-104 -78 -229 -78z" />
    <glyph glyph-name="H" unicode="H" horiz-adv-x="769" 
d="M48 0v35h91v588h-91v35h225v-35h-93v-266h408v266h-92v35h225v-35h-92v-588h92v-35h-225v35h92v285h-408v-285h93v-35h-225z" />
    <glyph glyph-name="I" unicode="I" horiz-adv-x="331" 
d="M49 0v35h96v588h-96v35h234v-35h-97v-588h97v-35h-234z" />
    <glyph glyph-name="J" unicode="J" horiz-adv-x="511" 
d="M204 -11q-71 0 -121.5 46t-50.5 114q0 27 12 43.5t32 16.5q14 0 24.5 -10.5t10.5 -25.5t-10.5 -25.5t-28.5 -11.5q0 -42 37.5 -76t94.5 -34q60 0 97 39q48 48 48 156v402h-107v35h234v-35h-86v-403q0 -123 -59 -181q-48 -50 -127 -50z" />
    <glyph glyph-name="K" unicode="K" horiz-adv-x="660" 
d="M48 0v35h91v588h-91v35h225v-35h-93v-347l338 347h-100v35h227v-35h-78l-239 -245l238 -343h85v-35h-111l-241 351l-119 -121v-195h93v-35h-225z" />
    <glyph glyph-name="L" unicode="L" horiz-adv-x="538" 
d="M48 0v35h91v588h-91v35h227v-35h-95v-588h267v116h39v-151h-438z" />
    <glyph glyph-name="M" unicode="M" horiz-adv-x="863" 
d="M39 0v35h95l24 588h-94v35h139l228 -504l228 504h137v-35h-94l24 -588h95v-35h-221v35h87l-20 554l-229 -501h-16l-229 502l-20 -555h87v-35h-221z" />
    <glyph glyph-name="N" unicode="N" horiz-adv-x="758" 
d="M610 -3l-432 590v-552h94v-35h-224v35h91v588h-91v35h126l422 -577v542h-93v35h222v-35h-91v-626h-24z" />
    <glyph glyph-name="O" unicode="O" horiz-adv-x="775" 
d="M386 -11q-140 0 -234 98.5t-94 241.5t95 241.5t235 98.5t234 -98.5t94 -241.5t-94.5 -241.5t-235.5 -98.5zM387 25q125 0 206 87.5t81 216.5q0 128 -81 216t-206 88q-124 0 -205.5 -87.5t-81.5 -216.5q0 -128 81.5 -216t205.5 -88z" />
    <glyph glyph-name="P" unicode="P" horiz-adv-x="567" 
d="M48 0v35h91v588h-91v35h243q103 0 169.5 -56t66.5 -145q0 -94 -63.5 -149t-170.5 -55q-67 0 -113 2v-220h95v-35h-227zM294 288q91 0 141.5 45t50.5 123q0 75 -54 121t-139 46h-113v-333q50 -2 114 -2z" />
    <glyph glyph-name="Q" unicode="Q" horiz-adv-x="775" 
d="M670 -139q-18 0 -36.5 4t-31 8t-32.5 15l-28.5 16t-32.5 21t-31 21q-50 33 -127 47q-110 18 -181 80q-52 45 -82 111.5t-30 144.5q0 143 95 241.5t235 98.5t234 -98.5t94 -241.5q0 -128 -76 -220.5t-197 -109.5q38 -10 90 -45q46 -32 74 -44t63 -12q36 0 73 22l16 -32
q-43 -27 -89 -27zM388 25q124 0 205 87.5t81 216.5q0 128 -81 216t-206 88q-124 0 -205.5 -87.5t-81.5 -216.5q0 -145 96 -230q82 -74 192 -74z" />
    <glyph glyph-name="R" unicode="R" horiz-adv-x="604" 
d="M48 0v35h91v588h-91v35h246q102 0 163.5 -51.5t61.5 -132.5q0 -70 -43 -117t-116 -64l164 -258h80v-35h-108l-179 286q-22 -2 -38 -2q-72 0 -99 1v-250h93v-35h-225zM281 319q89 0 142.5 40t53.5 114q0 69 -50 109.5t-136 40.5h-111v-302q60 -2 101 -2z" />
    <glyph glyph-name="S" unicode="S" horiz-adv-x="529" 
d="M264 -10q-88 0 -146 41t-58 88q0 21 10.5 33.5t26.5 12.5q14 0 24 -10t10 -24q0 -24 -22 -38q16 -28 58.5 -47.5t98.5 -19.5q74 0 118.5 38.5t44.5 100.5q0 56 -40.5 88.5t-117.5 63.5q-45 18 -72.5 31.5t-57 35.5t-43.5 51.5t-14 67.5q0 72 53.5 118.5t137.5 46.5
q74 0 128 -38t54 -84q0 -19 -10.5 -30.5t-25.5 -11.5q-14 0 -24.5 10t-10.5 25q0 20 19 36q-13 24 -51.5 40.5t-80.5 16.5q-65 0 -107 -36t-42 -90q0 -30 12 -53.5t38 -41.5t49 -29.5t64 -27.5q43 -17 70.5 -31t55.5 -36t42 -51.5t14 -67.5q0 -80 -57.5 -129t-147.5 -49z
" />
    <glyph glyph-name="T" unicode="T" horiz-adv-x="626" 
d="M195 0v35h98v588h-207v-116h-40v151h534v-151h-40v116h-206v-588h97v-35h-236z" />
    <glyph glyph-name="U" unicode="U" horiz-adv-x="701" 
d="M349 -11q-109 0 -167 61.5t-58 173.5v399h-92v35h226v-35h-94v-395q0 -100 47.5 -151.5t138.5 -51.5t139 51t48 151v396h-94v35h226v-35h-92v-397q0 -113 -59.5 -175t-168.5 -62z" />
    <glyph glyph-name="V" unicode="V" horiz-adv-x="685" 
d="M329 -12l-243 635h-73v35h203v-35h-86l214 -572l214 572h-89v35h203v-35h-74l-243 -635h-26z" />
    <glyph glyph-name="W" unicode="W" horiz-adv-x="963" 
d="M287 -13l-191 636h-83v35h214v-35h-89l164 -563l170 508h24l170 -508l163 563h-91v35h214v-35h-83l-190 -636h-25l-171 504l-171 -504h-25z" />
    <glyph glyph-name="X" unicode="X" horiz-adv-x="711" 
d="M41 0v35h71l220 302l-207 286h-72v35h195v-35h-77l185 -262l186 262h-79v35h195v-35h-72l-207 -285l221 -303h70v-35h-195v35h78l-198 278l-199 -278h80v-35h-195z" />
    <glyph glyph-name="Y" unicode="Y" horiz-adv-x="634" 
d="M195 0v35h101v240l-204 348h-75v35h204v-35h-82l179 -314l179 314h-83v35h203v-35h-76l-203 -348v-240h101v-35h-244z" />
    <glyph glyph-name="Z" unicode="Z" horiz-adv-x="582" 
d="M42 0v18l430 606h-368v-112h-39v146h465v-18l-429 -606h399v112h39v-146h-497z" />
    <glyph glyph-name="bracketleft" unicode="[" horiz-adv-x="326" 
d="M107 -200v932h202v-35h-163v-862h163v-35h-202z" />
    <glyph glyph-name="backslash" unicode="\" horiz-adv-x="430" 
d="M431 -204l-410 926l35 15l410 -926z" />
    <glyph glyph-name="bracketright" unicode="]" horiz-adv-x="326" 
d="M17 -200v35h163v862h-163v35h203v-932h-203z" />
    <glyph glyph-name="asciicircum" unicode="^" horiz-adv-x="424" 
d="M94 383l-17 19l135 127l135 -127l-17 -19l-118 89z" />
    <glyph glyph-name="underscore" unicode="_" horiz-adv-x="506" 
d="M-3 -133v38h512v-38h-512z" />
    <glyph glyph-name="grave" unicode="`" horiz-adv-x="503" 
d="M292 503l-144 69q-29 14 -29 31q0 12 8 20.5t19 8.5q13 0 31 -15l124 -99z" />
    <glyph glyph-name="a" unicode="a" horiz-adv-x="472" 
d="M185 -7q-64 0 -101.5 34t-37.5 85q0 56 43.5 90.5t111.5 34.5q73 0 133 -24v76q0 39 -21 65q-32 37 -98 37q-60 0 -92 -32q10 -10 10 -27q0 -12 -8.5 -21t-21.5 -9q-15 0 -23.5 9.5t-8.5 24.5q0 32 40.5 59.5t106.5 27.5q84 0 123 -45q29 -32 29 -83v-262h72v-33h-107v63
q-64 -70 -150 -70zM190 25q80 0 144 73v87q-66 21 -131 21q-58 0 -89 -26.5t-31 -65.5q0 -38 27.5 -63.5t79.5 -25.5z" />
    <glyph glyph-name="b" unicode="b" horiz-adv-x="531" 
d="M273 -7q-87 0 -151 59l-17 -52h-20v697h-73v33h110v-380q69 73 160 73q86 0 143.5 -61t57.5 -155q0 -92 -59 -153t-151 -61zM274 26q74 0 122 51t48 130q0 81 -46 132t-120 51q-91 0 -156 -77v-227q65 -60 152 -60z" />
    <glyph glyph-name="c" unicode="c" horiz-adv-x="454" 
d="M261 -7q-93 0 -154.5 59t-61.5 152q0 92 60.5 155.5t144.5 63.5q65 0 112 -35.5t47 -80.5q0 -17 -10.5 -29t-26.5 -12q-12 0 -20.5 7.5t-8.5 22.5q0 22 24 32q-9 27 -42.5 44.5t-74.5 17.5q-66 0 -116.5 -52t-50.5 -135q0 -78 51 -127.5t131 -49.5q69 0 135 44l-3 -37
q-58 -40 -136 -40z" />
    <glyph glyph-name="d" unicode="d" horiz-adv-x="539" 
d="M246 -7q-85 0 -142.5 60t-57.5 153q0 92 58.5 154.5t149.5 62.5q86 0 149 -60v334h-87v33h124v-697h72v-33h-108v69q-66 -76 -158 -76zM248 26q88 0 155 77v226q-68 61 -150 61q-73 0 -120.5 -52.5t-47.5 -130.5q-1 -79 45 -130t118 -51z" />
    <glyph glyph-name="e" unicode="e" horiz-adv-x="471" 
d="M424 204h-341q3 -86 51 -132t128 -46q72 0 145 48l-3 -38q-64 -43 -146 -43q-96 0 -154.5 59t-58.5 157q0 90 56 152t141 62t135 -57t50 -138q0 -15 -3 -24zM239 390q-61 0 -104.5 -43t-50.5 -111h305q-3 68 -42 111t-108 43z" />
    <glyph glyph-name="f" unicode="f" horiz-adv-x="290" 
d="M263 667q-31 0 -36 38q-26 -1 -47 -22q-27 -32 -27 -97v-170h111v-33h-111v-350h83v-33h-192v33h72v350h-77v33h77v161q0 91 39 130q34 32 79 32q27 0 43.5 -11t16.5 -31q0 -13 -9 -21.5t-22 -8.5z" />
    <glyph glyph-name="g" unicode="g" horiz-adv-x="545" 
d="M441 383v-409q0 -73 -37 -116q-49 -58 -155 -58q-94 0 -136 46q-18 18 -18 40q0 17 10.5 27.5t25.5 10.5q13 0 21 -9t8 -22q0 -17 -15 -29q27 -31 108 -31q83 0 123 47q28 34 28 91v101q-68 -73 -156 -73q-85 0 -142.5 60t-57.5 150q0 88 58.5 151t149.5 63q83 0 149 -62
v55h108v-33h-72zM255 390q-74 0 -121.5 -52t-47.5 -128q0 -77 46 -128t118 -51q87 0 154 78v219q-66 62 -149 62z" />
    <glyph glyph-name="h" unicode="h" horiz-adv-x="535" 
d="M102 697h-72v33h109v-397q32 39 75 64.5t89 25.5q71 0 105 -47q25 -33 25 -96v-247h73v-33h-182v33h72v242q0 54 -20 81q-25 33 -79 33q-82 0 -158 -91v-265h73v-33h-182v33h72v664z" />
    <glyph glyph-name="i" unicode="i" horiz-adv-x="265" 
d="M130 556q-15 0 -25.5 11t-10.5 26q0 16 10.5 27t25.5 11t25.5 -11t10.5 -27q0 -15 -10.5 -26t-25.5 -11zM42 0v33h78v350h-78v33h115v-383h78v-33h-193z" />
    <glyph glyph-name="j" unicode="j" horiz-adv-x="227" 
d="M-47 -146q0 13 8 23.5t22 10.5q12 0 20 -8.5t8 -20.5q0 -14 -7 -22q9 -6 24 -6q52 0 72 67q10 33 10 96v389h-86v33h123v-417q0 -67 -14 -114q-25 -85 -106 -85q-33 0 -53.5 15t-20.5 39zM120 556q-15 0 -25.5 11t-10.5 26q0 16 10.5 27t25.5 11t25 -11t10 -27
q0 -15 -10 -26t-25 -11z" />
    <glyph glyph-name="k" unicode="k" horiz-adv-x="500" 
d="M30 0v33h72v664h-72v33h109v-543l218 197h-99v32h221v-33h-74l-151 -136l150 -214h75v-33h-97l-155 227l-88 -80v-114h75v-33h-184z" />
    <glyph glyph-name="l" unicode="l" horiz-adv-x="254" 
d="M31 0v33h77v664h-77v33h114v-697h79v-33h-193z" />
    <glyph glyph-name="m" unicode="m" horiz-adv-x="816" 
d="M41 0v33h73v350h-73v33h108v-84q31 39 74 65t87 26q75 0 104 -53q8 -16 13 -38q81 91 164 91q81 0 108 -61q15 -31 15 -82v-247h73v-33h-182v33h72v242q0 42 -11 67q-20 47 -80 47q-76 0 -154 -89v-267h73v-33h-182v33h72v242q0 43 -10 67q-20 47 -80 47q-77 0 -154 -90
v-266h72v-33h-182z" />
    <glyph glyph-name="n" unicode="n" horiz-adv-x="544" 
d="M149 416v-84q76 91 165 91q77 0 109 -55q19 -34 19 -88v-247h73v-33h-182v33h72v242q0 45 -12 69q-22 45 -84 45q-83 0 -158 -91v-265h72v-33h-182v33h73v350h-73v33h108z" />
    <glyph glyph-name="o" unicode="o" horiz-adv-x="513" 
d="M256 -7q-91 0 -150.5 61.5t-59.5 153.5q0 91 59.5 153t150.5 62q92 0 151 -61.5t59 -153.5q0 -91 -59.5 -153t-150.5 -62zM256 26q75 0 123 51.5t48 130.5t-48 130.5t-123 51.5t-123 -52t-48 -130q0 -79 48 -130.5t123 -51.5z" />
    <glyph glyph-name="p" unicode="p" horiz-adv-x="541" 
d="M31 -196v33h73v546h-73v33h109v-69q66 76 155 76q85 0 141.5 -60t56.5 -154q0 -92 -57.5 -154t-147.5 -62q-82 0 -147 58v-214h80v-33h-190zM289 26q73 0 119 52t47 131q0 80 -45 130.5t-117 50.5q-85 0 -152 -77v-227q65 -60 148 -60z" />
    <glyph glyph-name="q" unicode="q" horiz-adv-x="525" 
d="M327 -196v33h81v229q-69 -73 -160 -73q-86 0 -144 60.5t-58 154.5q0 92 59.5 153.5t150.5 61.5q86 0 152 -59l16 52h21v-579h72v-33h-190zM251 26q90 0 157 77v226q-68 61 -153 61q-74 0 -122 -51.5t-48 -130.5q0 -80 46 -131t120 -51z" />
    <glyph glyph-name="r" unicode="r" horiz-adv-x="340" 
d="M274 423q23 0 36 -11.5t13 -28.5q0 -14 -9 -23.5t-24 -9.5q-14 0 -24 10t-11 23q-55 -9 -104 -97v-253h82v-33h-192v33h73v350h-73v33h108v-93q24 43 59 71.5t66 28.5z" />
    <glyph glyph-name="s" unicode="s" horiz-adv-x="412" 
d="M351 340q0 -14 -8.5 -23.5t-21.5 -9.5t-22 9t-9 22q0 15 10 26q-28 27 -95 27q-50 0 -80 -23t-30 -56q0 -23 18 -38.5t39 -23t65 -18.5q34 -9 55.5 -16.5t45.5 -21.5t35.5 -35t11.5 -50q0 -52 -44.5 -84t-112.5 -32q-45 0 -83.5 14t-60.5 36q-19 19 -19 43q0 14 8.5 24
t21.5 10q14 0 22.5 -8.5t8.5 -21.5q0 -17 -12 -26q10 -15 42 -27t71 -12q56 0 89 23t33 60t-30 55t-90 33q-76 18 -113 41.5t-37 73.5q0 48 41.5 80t105.5 32q86 0 126 -42q19 -19 19 -41z" />
    <glyph glyph-name="t" unicode="t" horiz-adv-x="299" 
d="M181 -7q-58 0 -79 46q-10 21 -10 52v292h-76v33h76v111l37 13v-124h134v-33h-134v-288q0 -24 7 -39q13 -28 53 -28q34 0 76 25l-6 -37q-38 -23 -78 -23z" />
    <glyph glyph-name="u" unicode="u" horiz-adv-x="535" 
d="M230 -7q-79 0 -110 56q-18 33 -18 87v247h-73v33h110v-276q0 -44 13 -70q23 -43 83 -43q77 0 158 94v262h-72v33h109v-383h73v-33h-109v88q-31 -41 -74.5 -68t-89.5 -27z" />
    <glyph glyph-name="v" unicode="v" horiz-adv-x="495" 
d="M240 -17l-177 400h-60v33h178v-33h-76l144 -339l143 339h-77v33h177v-33h-60l-177 -400h-15z" />
    <glyph glyph-name="w" unicode="w" horiz-adv-x="663" 
d="M184 -17l-118 400h-63v33h176v-32h-75l92 -328l129 310h15l129 -310l92 328h-77v32h177v-33h-65l-116 -400h-16l-132 319l-133 -319h-15z" />
    <glyph glyph-name="x" unicode="x" horiz-adv-x="476" 
d="M20 0v33h58l140 179l-131 171h-61v33h163v-31h-61l110 -151l112 151h-63v31h162v-33h-61l-129 -169l139 -181h58v-33h-168v31h69l-119 162l-121 -162h70v-31h-167z" />
    <glyph glyph-name="y" unicode="y" horiz-adv-x="484" 
d="M187 -128q-46 -72 -104 -72q-24 0 -40 11.5t-16 30.5q0 14 8.5 22.5t22.5 8.5q16 0 26 -12.5t8 -27.5q37 5 70 57q16 26 39 76l24 53l-161 364h-62v33h178v-33h-74l137 -325l140 325h-76v33h175v-33h-62l-195 -439q-17 -38 -38 -72z" />
    <glyph glyph-name="z" unicode="z" horiz-adv-x="412" 
d="M34 0v13l283 371h-230v-85h-35v117h322v-14l-283 -370h252v85h35v-117h-344z" />
    <glyph glyph-name="braceleft" unicode="{" horiz-adv-x="313" 
d="M261 -217q-89 1 -143.5 43.5t-54.5 103.5q0 34 16.5 61t54.5 69q55 59 55 95q0 40 -34 66t-84 26h-23v35h23q50 0 84 25.5t34 65.5q0 38 -55 95q-26 29 -37.5 44t-22.5 38.5t-11 47.5q0 61 54.5 103.5t143.5 43.5v-31q-77 -4 -118.5 -38t-41.5 -78q0 -39 64 -109
q63 -71 63 -115q0 -37 -28.5 -68t-83.5 -42q55 -10 83.5 -41.5t28.5 -67.5q0 -46 -63 -115q-64 -72 -64 -110q0 -44 41.5 -78t118.5 -38v-31z" />
    <glyph glyph-name="bar" unicode="|" horiz-adv-x="250" 
d="M107 -200v932h36v-932h-36z" />
    <glyph glyph-name="braceright" unicode="}" horiz-adv-x="313" 
d="M53 -217v31q76 4 117 38t41 78q0 39 -62 110q-64 68 -64 115q0 36 28.5 67.5t83.5 41.5q-55 11 -83.5 42.5t-28.5 67.5q0 45 64 115q62 70 62 109q0 44 -41 78t-117 38v31q89 -1 143 -43.5t54 -103.5q0 -34 -17 -61.5t-54 -68.5q-55 -57 -55 -95q0 -40 34 -65.5t84 -25.5
h23v-35h-23q-50 0 -84 -26t-34 -66q0 -36 55 -95q37 -41 54 -68.5t17 -61.5q0 -61 -54 -103.5t-143 -43.5z" />
    <glyph glyph-name="asciitilde" unicode="~" horiz-adv-x="408" 
d="M273 202q-36 0 -81 37q-37 28 -56 28q-37 0 -51 -59l-31 7q5 39 27.5 65t53.5 26q35 0 82 -37q34 -28 55 -28q37 0 51 58l31 -7q-5 -38 -27.5 -64t-53.5 -26z" />
    <glyph glyph-name="uni00A0" unicode="&#xa0;" horiz-adv-x="223" 
 />
    <glyph glyph-name="exclamdown" unicode="&#xa1;" horiz-adv-x="227" 
d="M114 585q-17 0 -28.5 11.5t-11.5 28.5t11.5 29t28.5 12q16 0 27.5 -12t11.5 -29q0 -16 -11.5 -28t-27.5 -12zM89 0l14 491h21l14 -491h-49z" />
    <glyph glyph-name="cent" unicode="&#xa2;" horiz-adv-x="462" 
d="M422 348q0 -16 -10.5 -28.5t-26.5 -12.5q-12 0 -20 7.5t-8 22.5q0 23 24 31q-9 24 -37.5 41t-64.5 22l-33 -363q9 -1 28 -1q71 0 139 44l-3 -37q-56 -39 -138 -39q-19 0 -28 1l-12 -140l-32 3l12 143q-75 17 -121.5 72t-46.5 132q0 89 60.5 152t145.5 66l9 108l32 -2
l-9 -108q59 -7 99.5 -41t40.5 -73zM82 246q0 -65 36.5 -111t97.5 -61l31 357q-67 -4 -116 -55t-49 -130z" />
    <glyph glyph-name="sterling" unicode="&#xa3;" horiz-adv-x="444" 
d="M334 133h-166q2 -22 2 -36q0 -80 -58 -140q49 -1 105 -22q53 -19 95 -19q63 0 94 56l28 -16q-39 -74 -121 -74q-47 0 -106 23q-58 21 -103 21q-11 0 -16 -1q-27 -41 -64 -41q-12 0 -20.5 6t-8.5 16q0 19 20.5 33.5t59.5 16.5q59 61 59 141q0 14 -2 36h-96v32h89l-11 38
q-23 75 -23 130q0 71 46 122t122 51q61 0 102.5 -30t41.5 -68q0 -20 -10 -30.5t-23 -10.5t-21.5 8.5t-8.5 22.5q0 22 17 30q-21 45 -98 45q-60 0 -96 -41.5t-36 -98.5t23 -124q1 -3 5.5 -19t6.5 -25h172v-32z" />
    <glyph glyph-name="yen" unicode="&#xa5;" horiz-adv-x="471" 
d="M76 230v31h124l-127 205h-61v33h164v-33h-64l124 -205l124 205h-65v33h164v-33h-62l-127 -205h125v-31h-143v-77h143v-31h-143v-90h82v-32h-198v32h83v90h-143v31h143v77h-143z" />
    <glyph glyph-name="section" unicode="&#xa7;" horiz-adv-x="436" 
d="M226 506q56 0 94.5 -22t38.5 -53q0 -32 -28 -32q-29 0 -29 30q0 11 6 20q-9 10 -32.5 17.5t-49.5 7.5q-45 0 -71.5 -16t-26.5 -42q0 -25 23.5 -39.5t88.5 -31.5q66 -17 99.5 -38.5t33.5 -60.5q0 -62 -87 -86q63 -27 63 -78q0 -39 -38.5 -65.5t-98.5 -26.5q-57 0 -96 22.5
t-39 52.5q0 13 8 22.5t20 9.5q13 0 21.5 -8.5t8.5 -21.5q0 -12 -7 -19q21 -26 83 -26q44 0 71 16t27 41q0 26 -23.5 40.5t-88.5 31.5q-66 17 -100 38.5t-34 58.5q0 63 86 88q-61 26 -61 78q0 38 38.5 65t99.5 27zM216 182l35 -9q83 22 83 69q0 27 -25.5 42t-88.5 31l-34 9
q-83 -23 -83 -70q0 -27 25.5 -42t87.5 -30z" />
    <glyph glyph-name="dieresis" unicode="&#xa8;" horiz-adv-x="503" 
d="M320 519q-16 0 -26.5 11.5t-10.5 26.5q0 17 10.5 28t26.5 11t26.5 -11t10.5 -28q0 -15 -11 -26.5t-26 -11.5zM183 519q-15 0 -26 11.5t-11 26.5q0 17 10.5 28t26.5 11t27 -11t11 -28q0 -15 -11 -26.5t-27 -11.5z" />
    <glyph glyph-name="copyright" unicode="&#xa9;" horiz-adv-x="589" 
d="M294 -9q-108 0 -180 75t-72 184t72 184.5t180 75.5t180 -75.5t72 -183.5q0 -109 -72 -184.5t-180 -75.5zM294 15q97 0 161 69t64 167t-64 166.5t-161 68.5q-96 0 -160.5 -69t-64.5 -167q0 -97 64.5 -166t160.5 -69zM303 364q-43 0 -72.5 -32.5t-29.5 -77.5q0 -43 30 -75
t75 -32q44 0 80 33l16 -19q-38 -39 -97 -39q-58 0 -95 38.5t-37 92.5q0 59 39 97t91 38q41 0 69 -20t28 -43q0 -10 -6 -17t-15 -7q-19 0 -19 19q0 13 9 15q-17 29 -66 29z" />
    <glyph glyph-name="ordfeminine" unicode="&#xaa;" horiz-adv-x="321" 
d="M121 409q-38 0 -61 20.5t-23 51.5q0 34 27 55t68 21t76 -13v37q0 33 -18 48q-16 15 -50 15t-49 -15q4 -5 4 -15q0 -21 -21 -21q-10 0 -16 6.5t-6 16.5q0 20 25 36.5t65 16.5t65 -17q30 -22 30 -66v-147h42v-25h-70v36q-39 -41 -88 -41zM43 315v27h236v-27h-236zM126 434
q46 0 82 41v48q-34 12 -74 12q-32 0 -49.5 -14.5t-17.5 -37.5q0 -21 15.5 -35t43.5 -14z" />
    <glyph glyph-name="guillemotleft" unicode="&#xab;" horiz-adv-x="419" 
d="M350 112l-164 157l164 156l23 -22l-137 -134l137 -134zM195 112l-164 157l164 156l23 -22l-138 -134l138 -134z" />
    <glyph glyph-name="registered" unicode="&#xae;" horiz-adv-x="381" 
d="M190 336q-74 0 -124 52t-50 126q0 75 50 127t124 52t124.5 -52t50.5 -127q0 -74 -50.5 -126t-124.5 -52zM190 670q-63 0 -106 -45t-43 -110q0 -66 43 -111t106 -45t106 45t43 111q0 65 -42.5 110t-106.5 45zM120 429v21h24v136h-24v21h69q31 0 49 -14t18 -39
q0 -34 -36 -48l32 -56h22v-21h-38l-40 71h-29v-50h24v-21h-71zM167 519h20q20 0 32.5 9t12.5 25q0 33 -44 33h-21v-67z" />
    <glyph glyph-name="macron" unicode="&#xaf;" horiz-adv-x="503" 
d="M111 534v37h281v-37h-281z" />
    <glyph glyph-name="degree" unicode="&#xb0;" horiz-adv-x="283" 
d="M142 422q-52 0 -86.5 36t-34.5 87t34.5 87t86.5 36q51 0 85 -35.5t34 -87.5q0 -51 -34 -87t-85 -36zM142 449q38 0 62.5 27.5t24.5 68.5t-24.5 68.5t-62.5 27.5q-39 0 -64 -27.5t-25 -68.5t25 -68.5t64 -27.5z" />
    <glyph glyph-name="plusminus" unicode="&#xb1;" horiz-adv-x="390" 
d="M177 150v138h-135v34h135v137h36v-137h135v-34h-135v-138h-36zM42 46v35h306v-35h-306z" />
    <glyph glyph-name="two.sup" unicode="&#xb2;" horiz-adv-x="353" 
d="M61 431l-9 15q27 87 127 153q43 29 62.5 51t19.5 52t-23.5 50t-58.5 20q-34 0 -56.5 -14t-26.5 -29q17 -7 17 -23q0 -10 -7 -17.5t-17 -7.5q-27 0 -27 33q0 32 33 59t85 27q49 0 82 -28t33 -70q0 -39 -23 -65t-74 -59q-87 -57 -108 -120h181v63h30v-90h-240z" />
    <glyph glyph-name="three.sup" unicode="&#xb3;" horiz-adv-x="353" 
d="M174 425q-48 0 -86 22.5t-38 54.5q0 13 7.5 21.5t18.5 8.5q10 0 16.5 -7t6.5 -17q0 -14 -12 -21q6 -12 31.5 -23.5t55.5 -11.5q42 0 69 22t27 53q0 35 -30 56t-83 22h-21v28h22q44 0 73.5 21t29.5 53q0 29 -23.5 46.5t-61.5 17.5q-30 0 -50.5 -9.5t-27.5 -22.5
q12 -6 12 -20q0 -10 -6.5 -17t-16.5 -7t-18 8t-8 22q0 27 32.5 50.5t83.5 23.5t84 -26t33 -65q0 -32 -26.5 -57t-64.5 -31q43 -6 71.5 -32t28.5 -61q0 -44 -36.5 -73t-92.5 -29z" />
    <glyph glyph-name="acute" unicode="&#xb4;" horiz-adv-x="503" 
d="M211 503l-9 15l124 99q18 15 31 15q11 0 19 -8.5t8 -20.5q0 -17 -29 -31z" />
    <glyph glyph-name="paragraph" unicode="&#xb6;" horiz-adv-x="527" 
d="M206 0v32h79v159q-17 -1 -75 -1q-78 0 -127.5 42.5t-49.5 114.5q0 66 51.5 109t128.5 43h276v-33h-75v-433h75v-33h-283zM321 32h58v435h-58v-435z" />
    <glyph glyph-name="periodcentered" unicode="&#xb7;" horiz-adv-x="247" 
d="M124 204q-18 0 -29.5 12t-11.5 30q0 17 11.5 29t29.5 12q17 0 28.5 -12t11.5 -29t-12 -29.5t-28 -12.5z" />
    <glyph glyph-name="cedilla" unicode="&#xb8;" horiz-adv-x="503" 
d="M260 -200q-50 0 -98 23l10 25q41 -19 84 -19q28 0 42.5 11t14.5 29q0 39 -63 40q-10 0 -18 -2l-12 8l26 100l22 -5l-9 -69q44 -1 67.5 -20t23.5 -50t-23.5 -51t-66.5 -20z" />
    <glyph glyph-name="one.sup" unicode="&#xb9;" horiz-adv-x="353" 
d="M69 431v29h100v300l-97 -24l-7 29l120 30h16v-335h98v-29h-230z" />
    <glyph glyph-name="ordmasculine" unicode="&#xba;" horiz-adv-x="337" 
d="M56 315v27h225v-27h-225zM169 410q-56 0 -92 37.5t-36 92.5t36 92.5t92 37.5t91.5 -37t35.5 -93q0 -55 -35.5 -92.5t-91.5 -37.5zM169 435q42 0 69.5 30t27.5 75t-27.5 75t-69.5 30q-43 0 -70.5 -30t-27.5 -75t27.5 -75t70.5 -30z" />
    <glyph glyph-name="guillemotright" unicode="&#xbb;" horiz-adv-x="419" 
d="M224 112l-22 23l137 134l-137 134l22 22l164 -156zM69 112l-23 23l138 134l-138 134l23 22l164 -156z" />
    <glyph glyph-name="onequarter" unicode="&#xbc;" horiz-adv-x="795" 
d="M575 -1v27h68v81h-177l-6 13l194 248l24 -18l-173 -217h138v90l30 13v-103h65v-26h-65v-81h53v-27h-151zM233 -11l-25 14l196 323l68.5 111.5l85.5 141t42 68.5l24 -14l-196 -323zM62 281v29h100v300l-97 -24l-7 29l120 30h16v-335h98v-29h-230z" />
    <glyph glyph-name="onehalf" unicode="&#xbd;" horiz-adv-x="795" 
d="M498 -1l-9 15q27 87 127 153q43 29 62.5 51t19.5 52t-23.5 50t-58.5 20q-34 0 -56.5 -14t-26.5 -29q17 -7 17 -23q0 -10 -7 -17.5t-17 -7.5q-27 0 -27 33q0 32 33 59t85 27q49 0 82 -28t33 -70q0 -39 -23 -65t-74 -59q-87 -57 -108 -120h181v63h30v-90h-240zM220 -11
l-25 14l196 323l68.5 111.5l85.5 141t42 68.5l24 -14l-196 -323zM55 281v29h100v300l-97 -24l-7 29l120 30h16v-335h98v-29h-230z" />
    <glyph glyph-name="threequarters" unicode="&#xbe;" horiz-adv-x="795" 
d="M189 275q-48 0 -86 22.5t-38 54.5q0 13 7.5 21.5t18.5 8.5q10 0 16.5 -7t6.5 -17q0 -14 -12 -21q6 -12 31.5 -23.5t55.5 -11.5q42 0 69 22t27 53q0 35 -30 56t-83 22h-21v28h22q44 0 73.5 21t29.5 53q0 29 -24 46.5t-61 17.5q-30 0 -50.5 -9.5t-27.5 -22.5q12 -6 12 -20
q0 -10 -6.5 -17t-16.5 -7t-18 8t-8 22q0 27 32.5 50.5t83.5 23.5t84 -26t33 -65q0 -32 -26.5 -57t-64.5 -31q43 -6 71.5 -32t28.5 -61q0 -44 -36.5 -73t-92.5 -29zM575 -1v27h68v81h-177l-6 13l194 248l24 -18l-173 -217h138v90l30 13v-103h65v-26h-65v-81h53v-27h-151z
M239 -11l-25 14l196 323l68.5 111.5l85.5 141t42 68.5l24 -14l-196 -323z" />
    <glyph glyph-name="questiondown" unicode="&#xbf;" horiz-adv-x="415" 
d="M394 130q0 -36 -23 -67q-52 -72 -156 -72q-84 0 -136.5 48.5t-52.5 123.5q0 66 48.5 118t134.5 73l7 138h21l9 -161q-87 -18 -134 -62.5t-47 -104.5q0 -63 40.5 -101t108.5 -38q88 0 128 58q7 11 11 25q-34 5 -34 36q0 14 10 24t24 10q16 0 28.5 -13.5t12.5 -34.5z
M227 665q16 -1 26.5 -12.5t9.5 -27.5q0 -16 -11.5 -27.5t-27.5 -10.5t-26.5 13t-9.5 28t12 27t27 10z" />
    <glyph glyph-name="Agrave" unicode="&#xc0;" horiz-adv-x="702" 
d="M17 0v35h72l220 588h-83v35h250v-35h-83l220 -588h73v-35h-203v35h86l-77 209h-283l-77 -209h88v-35h-203zM222 279h257l-128 347zM383 719l-144 69q-29 14 -29 31q0 12 8 20.5t19 8.5q13 0 31 -15l124 -99z" />
    <glyph glyph-name="Aacute" unicode="&#xc1;" horiz-adv-x="702" 
d="M17 0v35h72l220 588h-83v35h250v-35h-83l220 -588h73v-35h-203v35h86l-77 209h-283l-77 -209h88v-35h-203zM222 279h257l-128 347zM317 719l-9 15l124 99q18 15 31 15q11 0 19 -8.5t8 -20.5q0 -17 -29 -31z" />
    <glyph glyph-name="Acircumflex" unicode="&#xc2;" horiz-adv-x="702" 
d="M17 0v35h72l220 588h-83v35h250v-35h-83l220 -588h73v-35h-203v35h86l-77 209h-283l-77 -209h88v-35h-203zM222 279h257l-128 347zM232 713l-17 19l136 127l135 -127l-17 -19l-118 89z" />
    <glyph glyph-name="Atilde" unicode="&#xc3;" horiz-adv-x="702" 
d="M17 0v35h72l220 588h-83v35h250v-35h-83l220 -588h73v-35h-203v35h86l-77 209h-283l-77 -209h88v-35h-203zM222 279h257l-128 347zM421 720q-35 0 -82 37q-34 27 -56 27q-36 0 -50 -59l-31 7q5 39 27 65.5t53 26.5q37 0 82 -37q34 -27 56 -27q36 0 50 58l31 -6
q-5 -39 -27 -65.5t-53 -26.5z" />
    <glyph glyph-name="Adieresis" unicode="&#xc4;" horiz-adv-x="702" 
d="M17 0v35h72l220 588h-83v35h250v-35h-83l220 -588h73v-35h-203v35h86l-77 209h-283l-77 -209h88v-35h-203zM222 279h257l-128 347zM419 735q-16 0 -26.5 11.5t-10.5 26.5q0 17 10.5 28t26.5 11t26.5 -11t10.5 -28q0 -15 -11 -26.5t-26 -11.5zM282 735q-15 0 -26 11.5
t-11 26.5q0 17 10.5 28t26.5 11t27 -11t11 -28q0 -15 -11 -26.5t-27 -11.5z" />
    <glyph glyph-name="Aring" unicode="&#xc5;" horiz-adv-x="702" 
d="M442 726q0 -44 -33 -68h67v-35h-83l220 -588h73v-35h-203v35h86l-77 209h-283l-77 -209h88v-35h-203v35h72l220 588h-83v35h66q-32 26 -32 68q0 37 26.5 63.5t64.5 26.5t64.5 -27t26.5 -63zM222 279h257l-128 347zM351 660q25 0 41.5 18t16.5 45q0 26 -16.5 44.5
t-41.5 18.5q-26 0 -42.5 -18.5t-16.5 -44.5q0 -27 16.5 -45t42.5 -18z" />
    <glyph glyph-name="AE" unicode="&#xc6;" horiz-adv-x="854" 
d="M-20 0v35h79l300 588h-80v35h505v-146h-39v111h-291v-269h233v-36h-233v-283h291v111h39v-146h-458v35h87v209h-207l-106 -209h77v-35h-197zM224 279h189v344h-14z" />
    <glyph glyph-name="Ccedilla" unicode="&#xc7;" horiz-adv-x="699" 
d="M381 -200q-50 0 -98 23l10 25q41 -19 84 -19q28 0 42.5 11t14.5 29q0 39 -63 40q-10 0 -18 -2l-12 8l19 75q-134 10 -218 107t-84 227q0 147 95.5 246t230.5 99q99 0 170.5 -52t71.5 -114q0 -21 -11.5 -34t-29.5 -13q-15 0 -25.5 10.5t-10.5 25.5q0 14 8.5 24.5
t22.5 12.5q-11 38 -65.5 71t-130.5 33q-122 0 -203 -90.5t-81 -217.5q0 -124 81.5 -212t206.5 -88q122 0 217 89l22 -28q-102 -97 -239 -97h-2l-6 -48q44 -1 67.5 -20t23.5 -50t-23.5 -51t-66.5 -20z" />
    <glyph glyph-name="Egrave" unicode="&#xc8;" horiz-adv-x="581" 
d="M48 0v35h91v588h-91v35h463v-146h-40v111h-291v-269h233v-36h-233v-283h291v111h40v-146h-463zM322 719l-144 69q-29 14 -29 31q0 12 8 20.5t19 8.5q13 0 31 -15l124 -99z" />
    <glyph glyph-name="Eacute" unicode="&#xc9;" horiz-adv-x="581" 
d="M255 719l-9 15l124 99q18 15 31 15q11 0 19 -8.5t8 -20.5q0 -17 -29 -31zM48 0v35h91v588h-91v35h463v-146h-40v111h-291v-269h233v-36h-233v-283h291v111h40v-146h-463z" />
    <glyph glyph-name="Ecircumflex" unicode="&#xca;" horiz-adv-x="581" 
d="M170 713l-17 19l136 127l135 -127l-17 -19l-118 89zM48 0v35h91v588h-91v35h463v-146h-40v111h-291v-269h233v-36h-233v-283h291v111h40v-146h-463z" />
    <glyph glyph-name="Edieresis" unicode="&#xcb;" horiz-adv-x="581" 
d="M357 735q-16 0 -26.5 11.5t-10.5 26.5q0 17 10.5 28t26.5 11t26.5 -11t10.5 -28q0 -15 -11 -26.5t-26 -11.5zM220 735q-15 0 -26 11.5t-11 26.5q0 17 10.5 28t26.5 11t27 -11t11 -28q0 -15 -11 -26.5t-27 -11.5zM48 0v35h91v588h-91v35h463v-146h-40v111h-291v-269h233
v-36h-233v-283h291v111h40v-146h-463z" />
    <glyph glyph-name="Igrave" unicode="&#xcc;" horiz-adv-x="331" 
d="M49 0v35h96v588h-96v35h234v-35h-97v-588h97v-35h-234zM199 719l-144 69q-29 14 -29 31q0 12 8 20.5t19 8.5q13 0 31 -15l124 -99z" />
    <glyph glyph-name="Iacute" unicode="&#xcd;" horiz-adv-x="331" 
d="M49 0v35h96v588h-96v35h234v-35h-97v-588h97v-35h-234zM133 719l-9 15l124 99q18 15 31 15q11 0 19 -8.5t8 -20.5q0 -17 -29 -31z" />
    <glyph glyph-name="Icircumflex" unicode="&#xce;" horiz-adv-x="331" 
d="M49 0v35h96v588h-96v35h234v-35h-97v-588h97v-35h-234zM48 713l-17 19l136 127l135 -127l-17 -19l-118 89z" />
    <glyph glyph-name="Idieresis" unicode="&#xcf;" horiz-adv-x="331" 
d="M49 0v35h96v588h-96v35h234v-35h-97v-588h97v-35h-234zM235 735q-16 0 -26.5 11.5t-10.5 26.5q0 17 10.5 28t26.5 11t26.5 -11t10.5 -28q0 -15 -11 -26.5t-26 -11.5zM98 735q-15 0 -26 11.5t-11 26.5q0 17 10.5 28t26.5 11t27 -11t11 -28q0 -15 -11 -26.5t-27 -11.5z" />
    <glyph glyph-name="Eth" unicode="&#xd0;" horiz-adv-x="722" 
d="M142 319h-72v36h72v268h-92v35h244q171 0 270 -89.5t99 -235.5q0 -150 -97.5 -241.5t-268.5 -91.5h-247v35h92v284zM183 35h117q155 0 238 81.5t83 217.5q0 132 -86.5 210.5t-240.5 78.5h-111v-268h159v-36h-159v-284z" />
    <glyph glyph-name="Ntilde" unicode="&#xd1;" horiz-adv-x="759" 
d="M610 -3l-432 590v-552h94v-35h-224v35h91v588h-91v35h126l422 -577v542h-93v35h222v-35h-91v-626h-24zM451 720q-35 0 -82 37q-34 27 -56 27q-36 0 -50 -59l-31 7q5 39 27 65.5t53 26.5q37 0 82 -37q34 -27 56 -27q36 0 50 58l31 -6q-5 -39 -27 -65.5t-53 -26.5z" />
    <glyph glyph-name="Ograve" unicode="&#xd2;" horiz-adv-x="775" 
d="M386 -11q-140 0 -234 98.5t-94 241.5t95 241.5t235 98.5t234 -98.5t94 -241.5t-94.5 -241.5t-235.5 -98.5zM387 25q125 0 206 87.5t81 216.5q0 128 -81 216t-206 88q-124 0 -205.5 -87.5t-81.5 -216.5q0 -128 81.5 -216t205.5 -88zM419 719l-144 69q-29 14 -29 31
q0 12 8 20.5t19 8.5q13 0 31 -15l124 -99z" />
    <glyph glyph-name="Oacute" unicode="&#xd3;" horiz-adv-x="775" 
d="M354 719l-9 15l124 99q18 15 31 15q11 0 19 -8.5t8 -20.5q0 -17 -29 -31zM386 -11q-140 0 -234 98.5t-94 241.5t95 241.5t235 98.5t234 -98.5t94 -241.5t-94.5 -241.5t-235.5 -98.5zM387 25q125 0 206 87.5t81 216.5q0 128 -81 216t-206 88q-124 0 -205.5 -87.5
t-81.5 -216.5q0 -128 81.5 -216t205.5 -88z" />
    <glyph glyph-name="Ocircumflex" unicode="&#xd4;" horiz-adv-x="775" 
d="M268 713l-17 19l136 127l135 -127l-17 -19l-118 89zM386 -11q-140 0 -234 98.5t-94 241.5t95 241.5t235 98.5t234 -98.5t94 -241.5t-94.5 -241.5t-235.5 -98.5zM387 25q125 0 206 87.5t81 216.5q0 128 -81 216t-206 88q-124 0 -205.5 -87.5t-81.5 -216.5
q0 -128 81.5 -216t205.5 -88z" />
    <glyph glyph-name="Otilde" unicode="&#xd5;" horiz-adv-x="775" 
d="M386 -11q-140 0 -234 98.5t-94 241.5t95 241.5t235 98.5t234 -98.5t94 -241.5t-94.5 -241.5t-235.5 -98.5zM387 25q125 0 206 87.5t81 216.5q0 128 -81 216t-206 88q-124 0 -205.5 -87.5t-81.5 -216.5q0 -128 81.5 -216t205.5 -88zM457 720q-35 0 -82 37q-34 27 -56 27
q-36 0 -50 -59l-31 7q5 39 27 65.5t53 26.5q37 0 82 -37q34 -27 56 -27q36 0 50 58l31 -6q-5 -39 -27 -65.5t-53 -26.5z" />
    <glyph glyph-name="Odieresis" unicode="&#xd6;" horiz-adv-x="775" 
d="M455 735q-16 0 -26.5 11.5t-10.5 26.5q0 17 10.5 28t26.5 11t26.5 -11t10.5 -28q0 -15 -11 -26.5t-26 -11.5zM318 735q-15 0 -26 11.5t-11 26.5q0 17 10.5 28t26.5 11t27 -11t11 -28q0 -15 -11 -26.5t-27 -11.5zM386 -11q-140 0 -234 98.5t-94 241.5t95 241.5t235 98.5
t234 -98.5t94 -241.5t-94.5 -241.5t-235.5 -98.5zM387 25q125 0 206 87.5t81 216.5q0 128 -81 216t-206 88q-124 0 -205.5 -87.5t-81.5 -216.5q0 -128 81.5 -216t205.5 -88z" />
    <glyph glyph-name="multiply" unicode="&#xd7;" horiz-adv-x="390" 
d="M308 125l-114 114l-112 -113l-25 24l113 113l-113 113l25 26l113 -114l113 113l24 -25l-113 -112l114 -114z" />
    <glyph glyph-name="Oslash" unicode="&#xd8;" horiz-adv-x="775" 
d="M386 -11q-121 0 -210 76l-84 -98l-26 22l85 99q-93 98 -93 241t95 241.5t235 98.5q114 0 202 -70l80 93l26 -22l-81 -93q101 -98 101 -248q0 -143 -94.5 -241.5t-235.5 -98.5zM387 25q125 0 206 87.5t81 216.5q0 134 -84 221l-390 -457q77 -68 187 -68zM100 329
q0 -128 78 -214l388 456q-75 62 -179 62q-124 0 -205.5 -87.5t-81.5 -216.5z" />
    <glyph glyph-name="Ugrave" unicode="&#xd9;" horiz-adv-x="701" 
d="M349 -11q-109 0 -167 61.5t-58 173.5v399h-92v35h226v-35h-94v-395q0 -100 47.5 -151.5t138.5 -51.5t139 51t48 151v396h-94v35h226v-35h-92v-397q0 -113 -59.5 -175t-168.5 -62zM383 719l-144 69q-29 14 -29 31q0 12 8 20.5t19 8.5q13 0 31 -15l124 -99z" />
    <glyph glyph-name="Uacute" unicode="&#xda;" horiz-adv-x="701" 
d="M317 719l-9 15l124 99q18 15 31 15q11 0 19 -8.5t8 -20.5q0 -17 -29 -31zM349 -11q-109 0 -167 61.5t-58 173.5v399h-92v35h226v-35h-94v-395q0 -100 47.5 -151.5t138.5 -51.5t139 51t48 151v396h-94v35h226v-35h-92v-397q0 -113 -59.5 -175t-168.5 -62z" />
    <glyph glyph-name="Ucircumflex" unicode="&#xdb;" horiz-adv-x="701" 
d="M231 713l-17 19l136 127l135 -127l-17 -19l-118 89zM349 -11q-109 0 -167 61.5t-58 173.5v399h-92v35h226v-35h-94v-395q0 -100 47.5 -151.5t138.5 -51.5t139 51t48 151v396h-94v35h226v-35h-92v-397q0 -113 -59.5 -175t-168.5 -62z" />
    <glyph glyph-name="Udieresis" unicode="&#xdc;" horiz-adv-x="701" 
d="M418 735q-16 0 -26.5 11.5t-10.5 26.5q0 17 10.5 28t26.5 11t26.5 -11t10.5 -28q0 -15 -11 -26.5t-26 -11.5zM281 735q-15 0 -26 11.5t-11 26.5q0 17 10.5 28t26.5 11t27 -11t11 -28q0 -15 -11 -26.5t-27 -11.5zM349 -11q-109 0 -167 61.5t-58 173.5v399h-92v35h226v-35
h-94v-395q0 -100 47.5 -151.5t138.5 -51.5t139 51t48 151v396h-94v35h226v-35h-92v-397q0 -113 -59.5 -175t-168.5 -62z" />
    <glyph glyph-name="Yacute" unicode="&#xdd;" horiz-adv-x="634" 
d="M195 0v35h101v240l-204 348h-75v35h204v-35h-82l179 -314l179 314h-83v35h203v-35h-76l-203 -348v-240h101v-35h-244zM283 719l-9 15l124 99q18 15 31 15q11 0 19 -8.5t8 -20.5q0 -17 -29 -31z" />
    <glyph glyph-name="Thorn" unicode="&#xde;" horiz-adv-x="579" 
d="M48 0v35h92v588h-92v35h226v-35h-93v-100q60 3 114 3q105 0 169 -53t64 -139q0 -89 -62 -141t-170 -52q-69 0 -115 2v-108h96v-35h-229zM297 176q91 0 140.5 42t49.5 115q0 72 -51 114.5t-139 42.5q-72 0 -116 -2v-310q50 -2 116 -2z" />
    <glyph glyph-name="germandbls" unicode="&#xdf;" horiz-adv-x="519" 
d="M333 -8q-46 0 -74.5 18t-28.5 44q0 15 8.5 24t21.5 9t21.5 -8.5t8.5 -20.5q0 -16 -8 -22q15 -13 52 -13q51 0 81.5 28t30.5 75q0 66 -93 120q-51 30 -77 57.5t-26 68.5q0 48 56 104q62 60 62 126q0 46 -30.5 75t-77.5 29q-61 0 -91 -55q-16 -32 -16 -80v-571h-109v33h72
v350h-77v33h77v152q0 63 25 105q40 66 122 66q61 0 102 -38.5t41 -98.5q0 -77 -69 -144q-27 -27 -38.5 -45.5t-11.5 -40.5q0 -27 21 -48t65 -48q52 -31 81.5 -66t29.5 -84q0 -60 -41.5 -97t-109.5 -37z" />
    <glyph glyph-name="agrave" unicode="&#xe0;" horiz-adv-x="472" 
d="M185 -7q-64 0 -101.5 34t-37.5 85q0 56 43.5 90.5t111.5 34.5q73 0 133 -24v76q0 39 -21 65q-32 37 -98 37q-60 0 -92 -32q10 -10 10 -27q0 -12 -8.5 -21t-21.5 -9q-15 0 -23.5 9.5t-8.5 24.5q0 32 40.5 59.5t106.5 27.5q84 0 123 -45q29 -32 29 -83v-262h72v-33h-107v63
q-64 -70 -150 -70zM190 25q80 0 144 73v87q-66 21 -131 21q-58 0 -89 -26.5t-31 -65.5q0 -38 27.5 -63.5t79.5 -25.5zM259 503l-144 69q-29 14 -29 31q0 12 8 20.5t19 8.5q13 0 31 -15l124 -99z" />
    <glyph glyph-name="aacute" unicode="&#xe1;" horiz-adv-x="472" 
d="M185 -7q-64 0 -101.5 34t-37.5 85q0 56 43.5 90.5t111.5 34.5q73 0 133 -24v76q0 39 -21 65q-32 37 -98 37q-60 0 -92 -32q10 -10 10 -27q0 -12 -8.5 -21t-21.5 -9q-15 0 -23.5 9.5t-8.5 24.5q0 32 40.5 59.5t106.5 27.5q84 0 123 -45q29 -32 29 -83v-262h72v-33h-107v63
q-64 -70 -150 -70zM190 25q80 0 144 73v87q-66 21 -131 21q-58 0 -89 -26.5t-31 -65.5q0 -38 27.5 -63.5t79.5 -25.5zM193 503l-9 15l124 99q18 15 31 15q11 0 19 -8.5t8 -20.5q0 -17 -29 -31z" />
    <glyph glyph-name="acircumflex" unicode="&#xe2;" horiz-adv-x="472" 
d="M185 -7q-64 0 -101.5 34t-37.5 85q0 56 43.5 90.5t111.5 34.5q73 0 133 -24v76q0 39 -21 65q-32 37 -98 37q-60 0 -92 -32q10 -10 10 -27q0 -12 -8.5 -21t-21.5 -9q-15 0 -23.5 9.5t-8.5 24.5q0 32 40.5 59.5t106.5 27.5q84 0 123 -45q29 -32 29 -83v-262h72v-33h-107v63
q-64 -70 -150 -70zM190 25q80 0 144 73v87q-66 21 -131 21q-58 0 -89 -26.5t-31 -65.5q0 -38 27.5 -63.5t79.5 -25.5zM107 497l-17 19l136 127l135 -127l-17 -19l-118 89z" />
    <glyph glyph-name="atilde" unicode="&#xe3;" horiz-adv-x="472" 
d="M185 -7q-64 0 -101.5 34t-37.5 85q0 56 43.5 90.5t111.5 34.5q73 0 133 -24v76q0 39 -21 65q-32 37 -98 37q-60 0 -92 -32q10 -10 10 -27q0 -12 -8.5 -21t-21.5 -9q-15 0 -23.5 9.5t-8.5 24.5q0 32 40.5 59.5t106.5 27.5q84 0 123 -45q29 -32 29 -83v-262h72v-33h-107v63
q-64 -70 -150 -70zM190 25q80 0 144 73v87q-66 21 -131 21q-58 0 -89 -26.5t-31 -65.5q0 -38 27.5 -63.5t79.5 -25.5zM296 504q-35 0 -82 37q-34 27 -56 27q-36 0 -50 -59l-31 7q5 39 27 65.5t53 26.5q37 0 82 -37q34 -27 56 -27q36 0 50 58l31 -6q-5 -39 -27 -65.5
t-53 -26.5z" />
    <glyph glyph-name="adieresis" unicode="&#xe4;" horiz-adv-x="472" 
d="M185 -7q-64 0 -101.5 34t-37.5 85q0 56 43.5 90.5t111.5 34.5q73 0 133 -24v76q0 39 -21 65q-32 37 -98 37q-60 0 -92 -32q10 -10 10 -27q0 -12 -8.5 -21t-21.5 -9q-15 0 -23.5 9.5t-8.5 24.5q0 32 40.5 59.5t106.5 27.5q84 0 123 -45q29 -32 29 -83v-262h72v-33h-107v63
q-64 -70 -150 -70zM190 25q80 0 144 73v87q-66 21 -131 21q-58 0 -89 -26.5t-31 -65.5q0 -38 27.5 -63.5t79.5 -25.5zM294 519q-16 0 -26.5 11.5t-10.5 26.5q0 17 10.5 28t26.5 11t26.5 -11t10.5 -28q0 -15 -11 -26.5t-26 -11.5zM157 519q-15 0 -26 11.5t-11 26.5
q0 17 10.5 28t26.5 11t27 -11t11 -28q0 -15 -11 -26.5t-27 -11.5z" />
    <glyph glyph-name="aring" unicode="&#xe5;" horiz-adv-x="472" 
d="M185 -7q-64 0 -101.5 34t-37.5 85q0 56 43.5 90.5t111.5 34.5q73 0 133 -24v76q0 39 -21 65q-32 37 -98 37q-60 0 -92 -32q10 -10 10 -27q0 -12 -8.5 -21t-21.5 -9q-15 0 -23.5 9.5t-8.5 24.5q0 32 40.5 59.5t106.5 27.5q84 0 123 -45q29 -32 29 -83v-262h72v-33h-107v63
q-64 -70 -150 -70zM190 25q80 0 144 73v87q-66 21 -131 21q-58 0 -89 -26.5t-31 -65.5q0 -38 27.5 -63.5t79.5 -25.5zM226 494q-39 0 -65.5 27t-26.5 66q0 38 26.5 65.5t65.5 27.5q38 0 64.5 -27.5t26.5 -65.5q0 -39 -26.5 -66t-64.5 -27zM226 524q25 0 41.5 18t16.5 45
q0 26 -16.5 44.5t-41.5 18.5q-26 0 -42.5 -18.5t-16.5 -44.5q0 -27 16.5 -45t42.5 -18z" />
    <glyph glyph-name="ae" unicode="&#xe6;" horiz-adv-x="750" 
d="M215 390q-59 0 -92 -31q10 -12 10 -27q0 -12 -8.5 -21t-21.5 -9q-15 0 -23.5 9.5t-8.5 24.5q0 32 40.5 59.5t106.5 27.5q82 0 121 -47q16 -20 22 -48q25 44 67.5 69.5t93.5 25.5q86 0 135.5 -57t49.5 -138q0 -12 -2 -24h-340q2 -87 49.5 -132.5t128.5 -45.5q71 0 145 48
l-4 -38q-64 -43 -146 -43q-120 0 -173 87q-80 -87 -180 -87q-64 0 -101.5 34t-37.5 85q0 56 43.5 90.5t111.5 34.5q73 0 133 -24v72q0 40 -22 67q-31 38 -97 38zM190 25q89 0 163 78q-16 39 -19 81q-68 22 -131 22q-58 0 -89 -26.5t-31 -65.5q0 -38 27.5 -63.5t79.5 -25.5z
M520 390q-61 0 -104 -43t-50 -111h303q-2 68 -41 111t-108 43z" />
    <glyph glyph-name="ccedilla" unicode="&#xe7;" horiz-adv-x="497" 
d="M251 -200q-50 0 -98 23l10 25q41 -19 84 -19q28 0 42.5 11t14.5 29q0 39 -63 40q-10 0 -18 -2l-12 8l20 80q-82 9 -134 66.5t-52 142.5q0 92 60.5 155.5t144.5 63.5q65 0 112 -35.5t47 -80.5q0 -17 -10.5 -29t-26.5 -12q-12 0 -20.5 7.5t-8.5 22.5q0 22 24 32
q-9 27 -42.5 44.5t-74.5 17.5q-66 0 -116.5 -52t-50.5 -135q0 -78 51 -127.5t131 -49.5q69 0 135 44l-3 -37q-58 -40 -136 -40h-4l-7 -52q44 -1 67.5 -20t23.5 -50t-23.5 -51t-66.5 -20z" />
    <glyph glyph-name="egrave" unicode="&#xe8;" horiz-adv-x="471" 
d="M424 204h-341q3 -86 51 -132t128 -46q72 0 145 48l-3 -38q-64 -43 -146 -43q-96 0 -154.5 59t-58.5 157q0 90 56 152t141 62t135 -57t50 -138q0 -15 -3 -24zM239 390q-61 0 -104.5 -43t-50.5 -111h305q-3 68 -42 111t-108 43zM272 503l-144 69q-29 14 -29 31q0 12 8 20.5
t19 8.5q13 0 31 -15l124 -99z" />
    <glyph glyph-name="eacute" unicode="&#xe9;" horiz-adv-x="471" 
d="M424 204h-341q3 -86 51 -132t128 -46q72 0 145 48l-3 -38q-64 -43 -146 -43q-96 0 -154.5 59t-58.5 157q0 90 56 152t141 62t135 -57t50 -138q0 -15 -3 -24zM239 390q-61 0 -104.5 -43t-50.5 -111h305q-3 68 -42 111t-108 43zM206 503l-9 15l124 99q18 15 31 15
q11 0 19 -8.5t8 -20.5q0 -17 -29 -31z" />
    <glyph glyph-name="ecircumflex" unicode="&#xea;" horiz-adv-x="471" 
d="M424 204h-341q3 -86 51 -132t128 -46q72 0 145 48l-3 -38q-64 -43 -146 -43q-96 0 -154.5 59t-58.5 157q0 90 56 152t141 62t135 -57t50 -138q0 -15 -3 -24zM239 390q-61 0 -104.5 -43t-50.5 -111h305q-3 68 -42 111t-108 43zM121 497l-17 19l136 127l135 -127l-17 -19
l-118 89z" />
    <glyph glyph-name="edieresis" unicode="&#xeb;" horiz-adv-x="471" 
d="M424 204h-341q3 -86 51 -132t128 -46q72 0 145 48l-3 -38q-64 -43 -146 -43q-96 0 -154.5 59t-58.5 157q0 90 56 152t141 62t135 -57t50 -138q0 -15 -3 -24zM239 390q-61 0 -104.5 -43t-50.5 -111h305q-3 68 -42 111t-108 43zM171 519q-15 0 -26 11.5t-11 26.5
q0 17 10.5 28t26.5 11t27 -11t11 -28q0 -15 -11 -26.5t-27 -11.5zM308 519q-16 0 -26.5 11.5t-10.5 26.5q0 17 10.5 28t26.5 11t26.5 -11t10.5 -28q0 -15 -11 -26.5t-26 -11.5z" />
    <glyph glyph-name="igrave" unicode="&#xec;" horiz-adv-x="268" 
d="M42 0v33h78v350h-78v33h115v-383h78v-33h-193zM167 503l-144 69q-29 14 -29 31q0 12 8 20.5t19 8.5q13 0 31 -15l124 -99z" />
    <glyph glyph-name="iacute" unicode="&#xed;" horiz-adv-x="268" 
d="M101 503l-9 15l124 99q18 15 31 15q11 0 19 -8.5t8 -20.5q0 -17 -29 -31zM42 0v33h78v350h-78v33h115v-383h78v-33h-193z" />
    <glyph glyph-name="icircumflex" unicode="&#xee;" horiz-adv-x="268" 
d="M15 497l-17 19l136 127l135 -127l-17 -19l-118 89zM42 0v33h78v350h-78v33h115v-383h78v-33h-193z" />
    <glyph glyph-name="idieresis" unicode="&#xef;" horiz-adv-x="268" 
d="M202 519q-16 0 -26.5 11.5t-10.5 26.5q0 17 10.5 28t26.5 11t26.5 -11t10.5 -28q0 -15 -11 -26.5t-26 -11.5zM65 519q-15 0 -26 11.5t-11 26.5q0 17 10.5 28t26.5 11t27 -11t11 -28q0 -15 -11 -26.5t-27 -11.5zM42 0v33h78v350h-78v33h115v-383h78v-33h-193z" />
    <glyph glyph-name="eth" unicode="&#xf0;" horiz-adv-x="511" 
d="M171 468l-21 25l133 120q-81 81 -150 91q0 -15 -9 -26.5t-24 -11.5q-13 0 -22.5 9.5t-9.5 24.5q0 16 13 27.5t35 11.5q28 0 63 -15q70 -29 128 -89l99 91l22 -25l-99 -90q139 -155 139 -363q0 -129 -67 -196q-56 -59 -147 -59t-149.5 59.5t-58.5 147.5q0 86 59 146
t150 60q59 0 106.5 -30t69.5 -79q-11 160 -126 292zM428 208q0 69 -49 117.5t-124 48.5t-122.5 -50t-47.5 -124q0 -76 47.5 -125t121.5 -49t124 52q50 55 50 130z" />
    <glyph glyph-name="ntilde" unicode="&#xf1;" horiz-adv-x="544" 
d="M149 416v-84q76 91 165 91q77 0 109 -55q19 -34 19 -88v-247h73v-33h-182v33h72v242q0 45 -12 69q-22 45 -84 45q-83 0 -158 -91v-265h72v-33h-182v33h73v350h-73v33h108zM350 504q-35 0 -82 37q-34 27 -56 27q-36 0 -50 -59l-31 7q5 39 27 65.5t53 26.5q37 0 82 -37
q34 -27 56 -27q36 0 50 58l31 -6q-5 -39 -27 -65.5t-53 -26.5z" />
    <glyph glyph-name="ograve" unicode="&#xf2;" horiz-adv-x="513" 
d="M256 -7q-91 0 -150.5 61.5t-59.5 153.5q0 91 59.5 153t150.5 62q92 0 151 -61.5t59 -153.5q0 -91 -59.5 -153t-150.5 -62zM256 26q75 0 123 51.5t48 130.5t-48 130.5t-123 51.5t-123 -52t-48 -130q0 -79 48 -130.5t123 -51.5zM290 503l-144 69q-29 14 -29 31q0 12 8 20.5
t19 8.5q13 0 31 -15l124 -99z" />
    <glyph glyph-name="oacute" unicode="&#xf3;" horiz-adv-x="513" 
d="M222 503l-9 15l124 99q18 15 31 15q11 0 19 -8.5t8 -20.5q0 -17 -29 -31zM256 -7q-91 0 -150.5 61.5t-59.5 153.5q0 91 59.5 153t150.5 62q92 0 151 -61.5t59 -153.5q0 -91 -59.5 -153t-150.5 -62zM256 26q75 0 123 51.5t48 130.5t-48 130.5t-123 51.5t-123 -52t-48 -130
q0 -79 48 -130.5t123 -51.5z" />
    <glyph glyph-name="ocircumflex" unicode="&#xf4;" horiz-adv-x="513" 
d="M137 497l-17 19l136 127l135 -127l-17 -19l-118 89zM256 -7q-91 0 -150.5 61.5t-59.5 153.5q0 91 59.5 153t150.5 62q92 0 151 -61.5t59 -153.5q0 -91 -59.5 -153t-150.5 -62zM256 26q75 0 123 51.5t48 130.5t-48 130.5t-123 51.5t-123 -52t-48 -130q0 -79 48 -130.5
t123 -51.5z" />
    <glyph glyph-name="otilde" unicode="&#xf5;" horiz-adv-x="513" 
d="M256 -7q-91 0 -150.5 61.5t-59.5 153.5q0 91 59.5 153t150.5 62q92 0 151 -61.5t59 -153.5q0 -91 -59.5 -153t-150.5 -62zM256 26q75 0 123 51.5t48 130.5t-48 130.5t-123 51.5t-123 -52t-48 -130q0 -79 48 -130.5t123 -51.5zM327 504q-35 0 -82 37q-34 27 -56 27
q-36 0 -50 -59l-31 7q5 39 27 65.5t53 26.5q37 0 82 -37q34 -27 56 -27q36 0 50 58l31 -6q-5 -39 -27 -65.5t-53 -26.5z" />
    <glyph glyph-name="odieresis" unicode="&#xf6;" horiz-adv-x="513" 
d="M324 519q-16 0 -26.5 11.5t-10.5 26.5q0 17 10.5 28t26.5 11t26.5 -11t10.5 -28q0 -15 -11 -26.5t-26 -11.5zM187 519q-15 0 -26 11.5t-11 26.5q0 17 10.5 28t26.5 11t27 -11t11 -28q0 -15 -11 -26.5t-27 -11.5zM256 -7q-91 0 -150.5 61.5t-59.5 153.5q0 91 59.5 153
t150.5 62q92 0 151 -61.5t59 -153.5q0 -91 -59.5 -153t-150.5 -62zM256 26q75 0 123 51.5t48 130.5t-48 130.5t-123 51.5t-123 -52t-48 -130q0 -79 48 -130.5t123 -51.5z" />
    <glyph glyph-name="divide" unicode="&#xf7;" horiz-adv-x="390" 
d="M348 246h-306v35h306v-35zM195 354q-14 0 -24 10t-10 24t10 24.5t24 10.5q13 0 23 -10.5t10 -24.5t-9.5 -24t-23.5 -10zM195 104q-14 0 -24 10.5t-10 24.5t10 24t24 10t23.5 -10t9.5 -24t-10 -24.5t-23 -10.5z" />
    <glyph glyph-name="oslash" unicode="&#xf8;" horiz-adv-x="513" 
d="M256 -7q-71 0 -128 42l-50 -58l-25 21l51 59q-58 61 -58 151q0 91 59.5 153t150.5 62q72 0 128 -43l52 60l25 -21l-53 -61q58 -63 58 -150q0 -91 -59.5 -153t-150.5 -62zM85 208q0 -76 44 -126l233 272q-44 36 -106 36q-75 0 -123 -52t-48 -130zM256 26q75 0 123 51.5
t48 130.5q0 74 -43 125l-233 -272q45 -35 105 -35z" />
    <glyph glyph-name="ugrave" unicode="&#xf9;" horiz-adv-x="535" 
d="M230 -7q-79 0 -110 56q-18 33 -18 87v247h-73v33h110v-276q0 -44 13 -70q23 -43 83 -43q77 0 158 94v262h-72v33h109v-383h73v-33h-109v88q-31 -41 -74.5 -68t-89.5 -27zM296 503l-144 69q-29 14 -29 31q0 12 8 20.5t19 8.5q13 0 31 -15l124 -99z" />
    <glyph glyph-name="uacute" unicode="&#xfa;" horiz-adv-x="535" 
d="M230 503l-9 15l124 99q18 15 31 15q11 0 19 -8.5t8 -20.5q0 -17 -29 -31zM230 -7q-79 0 -110 56q-18 33 -18 87v247h-73v33h110v-276q0 -44 13 -70q23 -43 83 -43q77 0 158 94v262h-72v33h109v-383h73v-33h-109v88q-31 -41 -74.5 -68t-89.5 -27z" />
    <glyph glyph-name="ucircumflex" unicode="&#xfb;" horiz-adv-x="535" 
d="M144 497l-17 19l136 127l135 -127l-17 -19l-118 89zM230 -7q-79 0 -110 56q-18 33 -18 87v247h-73v33h110v-276q0 -44 13 -70q23 -43 83 -43q77 0 158 94v262h-72v33h109v-383h73v-33h-109v88q-31 -41 -74.5 -68t-89.5 -27z" />
    <glyph glyph-name="udieresis" unicode="&#xfc;" horiz-adv-x="535" 
d="M331 519q-16 0 -26.5 11.5t-10.5 26.5q0 17 10.5 28t26.5 11t26.5 -11t10.5 -28q0 -15 -11 -26.5t-26 -11.5zM194 519q-15 0 -26 11.5t-11 26.5q0 17 10.5 28t26.5 11t27 -11t11 -28q0 -15 -11 -26.5t-27 -11.5zM230 -7q-79 0 -110 56q-18 33 -18 87v247h-73v33h110v-276
q0 -44 13 -70q23 -43 83 -43q77 0 158 94v262h-72v33h109v-383h73v-33h-109v88q-31 -41 -74.5 -68t-89.5 -27z" />
    <glyph glyph-name="yacute" unicode="&#xfd;" horiz-adv-x="484" 
d="M187 -128q-46 -72 -104 -72q-24 0 -40 11.5t-16 30.5q0 14 8.5 22.5t22.5 8.5q16 0 26 -12.5t8 -27.5q37 5 70 57q16 26 39 76l24 53l-161 364h-62v33h178v-33h-74l137 -325l140 325h-76v33h175v-33h-62l-195 -439q-17 -38 -38 -72zM210 503l-9 15l124 99q18 15 31 15
q11 0 19 -8.5t8 -20.5q0 -17 -29 -31z" />
    <glyph glyph-name="thorn" unicode="&#xfe;" horiz-adv-x="517" 
d="M7 -196v33h72v860h-72v33h109v-381q67 74 155 74q85 0 141.5 -60t56.5 -154q0 -92 -57.5 -154t-147.5 -62q-82 0 -148 57v-213h80v-33h-189zM265 26q73 0 119 52t47 131q0 80 -45 130.5t-117 50.5q-88 0 -153 -77v-226q65 -61 149 -61z" />
    <glyph glyph-name="ydieresis" unicode="&#xff;" horiz-adv-x="484" 
d="M187 -128q-46 -72 -104 -72q-24 0 -40 11.5t-16 30.5q0 14 8.5 22.5t22.5 8.5q16 0 26 -12.5t8 -27.5q37 5 70 57q16 26 39 76l24 53l-161 364h-62v33h178v-33h-74l137 -325l140 325h-76v33h175v-33h-62l-195 -439q-17 -38 -38 -72zM175 519q-15 0 -26 11.5t-11 26.5
q0 17 10.5 28t26.5 11t27 -11t11 -28q0 -15 -11 -26.5t-27 -11.5zM312 519q-16 0 -26.5 11.5t-10.5 26.5q0 17 10.5 28t26.5 11t26.5 -11t10.5 -28q0 -15 -11 -26.5t-26 -11.5z" />
    <glyph glyph-name="Amacron" unicode="&#x100;" horiz-adv-x="702" 
d="M17 0v35h72l220 588h-83v35h250v-35h-83l220 -588h73v-35h-203v35h86l-77 209h-283l-77 -209h88v-35h-203zM222 279h257l-128 347zM210 750v37h281v-37h-281z" />
    <glyph glyph-name="amacron" unicode="&#x101;" horiz-adv-x="472" 
d="M185 -7q-64 0 -101.5 34t-37.5 85q0 56 43.5 90.5t111.5 34.5q73 0 133 -24v76q0 39 -21 65q-32 37 -98 37q-60 0 -92 -32q10 -10 10 -27q0 -12 -8.5 -21t-21.5 -9q-15 0 -23.5 9.5t-8.5 24.5q0 32 40.5 59.5t106.5 27.5q84 0 123 -45q29 -32 29 -83v-262h72v-33h-107v63
q-64 -70 -150 -70zM190 25q80 0 144 73v87q-66 21 -131 21q-58 0 -89 -26.5t-31 -65.5q0 -38 27.5 -63.5t79.5 -25.5zM85 534v37h281v-37h-281z" />
    <glyph glyph-name="Abreve" unicode="&#x102;" horiz-adv-x="702" 
d="M17 0v35h72l220 588h-83v35h250v-35h-83l220 -588h73v-35h-203v35h86l-77 209h-283l-77 -209h88v-35h-203zM222 279h257l-128 347zM351 719q-47 0 -84 30t-54 77l29 14q32 -78 109 -78q76 0 109 78l28 -14q-17 -47 -54 -77t-83 -30z" />
    <glyph glyph-name="abreve" unicode="&#x103;" horiz-adv-x="472" 
d="M185 -7q-64 0 -101.5 34t-37.5 85q0 56 43.5 90.5t111.5 34.5q73 0 133 -24v76q0 39 -21 65q-32 37 -98 37q-60 0 -92 -32q10 -10 10 -27q0 -12 -8.5 -21t-21.5 -9q-15 0 -23.5 9.5t-8.5 24.5q0 32 40.5 59.5t106.5 27.5q84 0 123 -45q29 -32 29 -83v-262h72v-33h-107v63
q-64 -70 -150 -70zM190 25q80 0 144 73v87q-66 21 -131 21q-58 0 -89 -26.5t-31 -65.5q0 -38 27.5 -63.5t79.5 -25.5zM226 503q-47 0 -84 30t-54 77l29 14q32 -78 109 -78q76 0 109 78l28 -14q-17 -47 -54 -77t-83 -30z" />
    <glyph glyph-name="Aogonek" unicode="&#x104;" horiz-adv-x="702" 
d="M589 -201q-46 0 -71 23t-25 62q0 69 76 116h-86v35h86l-77 209h-283l-77 -209h88v-35h-203v35h72l220 588h-83v35h250v-35h-83l220 -588h73v-35h-66q-43 -19 -67 -48.5t-24 -61.5q0 -27 16.5 -43t46.5 -16q37 0 75 21l-2 -29q-31 -24 -76 -24zM222 279h257l-128 347z" />
    <glyph glyph-name="aogonek" unicode="&#x105;" horiz-adv-x="472" 
d="M353 -201q-46 0 -71 23t-25 62q0 70 78 117v62q-64 -70 -150 -70q-64 0 -101.5 34t-37.5 85q0 56 43.5 90.5t111.5 34.5q73 0 133 -24v76q0 39 -21 65q-32 37 -98 37q-60 0 -92 -32q10 -10 10 -27q0 -12 -8.5 -21t-21.5 -9q-15 0 -23.5 9.5t-8.5 24.5q0 32 40.5 59.5
t106.5 27.5q84 0 123 -45q29 -32 29 -83v-262h72v-33h-58q-43 -19 -67 -48.5t-24 -61.5q0 -27 16.5 -43t46.5 -16q37 0 75 21l-2 -29q-31 -24 -76 -24zM190 25q80 0 144 73v87q-66 21 -131 21q-58 0 -89 -26.5t-31 -65.5q0 -38 27.5 -63.5t79.5 -25.5z" />
    <glyph glyph-name="Cacute" unicode="&#x106;" horiz-adv-x="699" 
d="M351 719l-9 15l124 99q18 15 31 15q11 0 19 -8.5t8 -20.5q0 -17 -29 -31zM388 -11q-145 0 -237.5 99t-92.5 236q0 147 95.5 246t230.5 99q99 0 170.5 -52t71.5 -114q0 -21 -11.5 -34t-29.5 -13q-15 0 -25.5 10.5t-10.5 25.5q0 14 8.5 24.5t22.5 12.5q-11 38 -65.5 71
t-130.5 33q-122 0 -203 -90.5t-81 -217.5q0 -124 81.5 -212t206.5 -88q122 0 217 89l22 -28q-102 -97 -239 -97z" />
    <glyph glyph-name="cacute" unicode="&#x107;" horiz-adv-x="454" 
d="M212 503l-9 15l124 99q18 15 31 15q11 0 19 -8.5t8 -20.5q0 -17 -29 -31zM261 -7q-93 0 -154.5 59t-61.5 152q0 92 60.5 155.5t144.5 63.5q65 0 112 -35.5t47 -80.5q0 -17 -10.5 -29t-26.5 -12q-12 0 -20.5 7.5t-8.5 22.5q0 22 24 32q-9 27 -42.5 44.5t-74.5 17.5
q-66 0 -116.5 -52t-50.5 -135q0 -78 51 -127.5t131 -49.5q69 0 135 44l-3 -37q-58 -40 -136 -40z" />
    <glyph glyph-name="Cdotaccent" unicode="&#x10a;" horiz-adv-x="699" 
d="M388 -11q-145 0 -237.5 99t-92.5 236q0 147 95.5 246t230.5 99q99 0 170.5 -52t71.5 -114q0 -21 -11.5 -34t-29.5 -13q-15 0 -25.5 10.5t-10.5 25.5q0 14 8.5 24.5t22.5 12.5q-11 38 -65.5 71t-130.5 33q-122 0 -203 -90.5t-81 -217.5q0 -124 81.5 -212t206.5 -88
q122 0 217 89l22 -28q-102 -97 -239 -97zM384 733q-17 0 -28.5 12t-11.5 28q0 17 11.5 29t28.5 12q16 0 27.5 -12t11.5 -29q0 -16 -11.5 -28t-27.5 -12z" />
    <glyph glyph-name="cdotaccent" unicode="&#x10b;" horiz-adv-x="454" 
d="M261 -7q-93 0 -154.5 59t-61.5 152q0 92 60.5 155.5t144.5 63.5q65 0 112 -35.5t47 -80.5q0 -17 -10.5 -29t-26.5 -12q-12 0 -20.5 7.5t-8.5 22.5q0 22 24 32q-9 27 -42.5 44.5t-74.5 17.5q-66 0 -116.5 -52t-50.5 -135q0 -78 51 -127.5t131 -49.5q69 0 135 44l-3 -37
q-58 -40 -136 -40zM247 517q-17 0 -28.5 12t-11.5 28q0 17 11.5 29t28.5 12q16 0 27.5 -12t11.5 -29q0 -16 -11.5 -28t-27.5 -12z" />
    <glyph glyph-name="Ccaron" unicode="&#x10c;" horiz-adv-x="699" 
d="M502 861l17 -20l-135 -126l-136 126l17 20l119 -89zM388 -11q-145 0 -237.5 99t-92.5 236q0 147 95.5 246t230.5 99q99 0 170.5 -52t71.5 -114q0 -21 -11.5 -34t-29.5 -13q-15 0 -25.5 10.5t-10.5 25.5q0 14 8.5 24.5t22.5 12.5q-11 38 -65.5 71t-130.5 33
q-122 0 -203 -90.5t-81 -217.5q0 -124 81.5 -212t206.5 -88q122 0 217 89l22 -28q-102 -97 -239 -97z" />
    <glyph glyph-name="ccaron" unicode="&#x10d;" horiz-adv-x="454" 
d="M365 645l17 -20l-135 -126l-136 126l17 20l119 -89zM261 -7q-93 0 -154.5 59t-61.5 152q0 92 60.5 155.5t144.5 63.5q65 0 112 -35.5t47 -80.5q0 -17 -10.5 -29t-26.5 -12q-12 0 -20.5 7.5t-8.5 22.5q0 22 24 32q-9 27 -42.5 44.5t-74.5 17.5q-66 0 -116.5 -52
t-50.5 -135q0 -78 51 -127.5t131 -49.5q69 0 135 44l-3 -37q-58 -40 -136 -40z" />
    <glyph glyph-name="Dcaron" unicode="&#x10e;" horiz-adv-x="720" 
d="M457 861l17 -20l-135 -126l-136 126l17 20l119 -89zM48 0v35h91v588h-91v35h244q170 0 269 -89t99 -236q0 -150 -97.5 -241.5t-268.5 -91.5h-246zM180 35h118q155 0 238 81.5t83 217.5q0 132 -87 210.5t-241 78.5h-111v-588z" />
    <glyph glyph-name="dcaron" unicode="&#x10f;" horiz-adv-x="539" 
d="M496 539l-14 10q31 50 31 98q0 12 -2 28t-2 24q0 30 27 30t27 -33q0 -79 -67 -157zM246 -7q-85 0 -142.5 60t-57.5 153q0 92 58.5 154.5t149.5 62.5q86 0 149 -60v334h-87v33h124v-697h72v-33h-108v69q-66 -76 -158 -76zM248 26q88 0 155 77v226q-68 61 -150 61
q-73 0 -120.5 -52.5t-47.5 -130.5q-1 -79 45 -130t118 -51z" />
    <glyph glyph-name="Dcroat" unicode="&#x110;" horiz-adv-x="722" 
d="M142 319h-72v36h72v268h-92v35h244q171 0 270 -89.5t99 -235.5q0 -150 -97.5 -241.5t-268.5 -91.5h-247v35h92v284zM183 35h117q155 0 238 81.5t83 217.5q0 132 -86.5 210.5t-240.5 78.5h-111v-268h159v-36h-159v-284z" />
    <glyph glyph-name="dcroat" unicode="&#x111;" horiz-adv-x="539" 
d="M239 544v33h164v120h-87v33h124v-153h72v-33h-72v-511h72v-33h-108v69q-66 -76 -158 -76q-85 0 -142.5 60t-57.5 153q0 92 58.5 154.5t149.5 62.5q86 0 149 -60v181h-164zM248 26q88 0 155 77v226q-68 61 -150 61q-73 0 -120.5 -52.5t-47.5 -130.5q-1 -79 45 -130
t118 -51z" />
    <glyph glyph-name="Emacron" unicode="&#x112;" horiz-adv-x="581" 
d="M48 0v35h91v588h-91v35h463v-146h-40v111h-291v-269h233v-36h-233v-283h291v111h40v-146h-463zM148 750v37h281v-37h-281z" />
    <glyph glyph-name="emacron" unicode="&#x113;" horiz-adv-x="471" 
d="M424 204h-341q3 -86 51 -132t128 -46q72 0 145 48l-3 -38q-64 -43 -146 -43q-96 0 -154.5 59t-58.5 157q0 90 56 152t141 62t135 -57t50 -138q0 -15 -3 -24zM239 390q-61 0 -104.5 -43t-50.5 -111h305q-3 68 -42 111t-108 43zM99 534v37h281v-37h-281z" />
    <glyph glyph-name="Ebreve" unicode="&#x114;" horiz-adv-x="581" 
d="M48 0v35h91v588h-91v35h463v-146h-40v111h-291v-269h233v-36h-233v-283h291v111h40v-146h-463zM289 719q-47 0 -84 30t-54 77l29 14q32 -78 109 -78q76 0 109 78l28 -14q-17 -47 -54 -77t-83 -30z" />
    <glyph glyph-name="ebreve" unicode="&#x115;" horiz-adv-x="471" 
d="M424 204h-341q3 -86 51 -132t128 -46q72 0 145 48l-3 -38q-64 -43 -146 -43q-96 0 -154.5 59t-58.5 157q0 90 56 152t141 62t135 -57t50 -138q0 -15 -3 -24zM239 390q-61 0 -104.5 -43t-50.5 -111h305q-3 68 -42 111t-108 43zM240 503q-47 0 -84 30t-54 77l29 14
q32 -78 109 -78q76 0 109 78l28 -14q-17 -47 -54 -77t-83 -30z" />
    <glyph glyph-name="Edotaccent" unicode="&#x116;" horiz-adv-x="581" 
d="M48 0v35h91v588h-91v35h463v-146h-40v111h-291v-269h233v-36h-233v-283h291v111h40v-146h-463zM289 733q-17 0 -28.5 12t-11.5 28q0 17 11.5 29t28.5 12q16 0 27.5 -12t11.5 -29q0 -16 -11.5 -28t-27.5 -12z" />
    <glyph glyph-name="edotaccent" unicode="&#x117;" horiz-adv-x="471" 
d="M424 204h-341q3 -86 51 -132t128 -46q72 0 145 48l-3 -38q-64 -43 -146 -43q-96 0 -154.5 59t-58.5 157q0 90 56 152t141 62t135 -57t50 -138q0 -15 -3 -24zM239 390q-61 0 -104.5 -43t-50.5 -111h305q-3 68 -42 111t-108 43zM240 517q-17 0 -28.5 12t-11.5 28
q0 17 11.5 29t28.5 12q16 0 27.5 -12t11.5 -29q0 -16 -11.5 -28t-27.5 -12z" />
    <glyph glyph-name="Eogonek" unicode="&#x118;" horiz-adv-x="581" 
d="M48 0v35h91v588h-91v35h463v-146h-40v111h-291v-269h233v-36h-233v-283h291v111h40v-146h-48q-43 -19 -67 -48.5t-24 -61.5q0 -27 16.5 -43t46.5 -16q37 0 75 21l-2 -29q-31 -24 -76 -24q-46 0 -71 23t-25 62q0 69 76 116h-364z" />
    <glyph glyph-name="eogonek" unicode="&#x119;" horiz-adv-x="471" 
d="M424 204h-341q3 -86 51 -132t128 -46q71 0 145 48l-3 -38q-74 -41 -111 -73t-37 -74q0 -26 16.5 -42t46.5 -16q37 0 75 21l-2 -29q-31 -24 -77 -24q-45 0 -70 23t-25 61q0 68 67 113q-15 -3 -29 -3q-96 0 -154.5 59t-58.5 157q0 90 56 152t141 62t135 -57t50 -138
q0 -15 -3 -24zM239 390q-61 0 -104.5 -43t-50.5 -111h305q-3 68 -42 111t-108 43z" />
    <glyph glyph-name="Ecaron" unicode="&#x11a;" horiz-adv-x="581" 
d="M407 861l17 -20l-135 -126l-136 126l17 20l119 -89zM48 0v35h91v588h-91v35h463v-146h-40v111h-291v-269h233v-36h-233v-283h291v111h40v-146h-463z" />
    <glyph glyph-name="ecaron" unicode="&#x11b;" horiz-adv-x="471" 
d="M424 204h-341q3 -86 51 -132t128 -46q72 0 145 48l-3 -38q-64 -43 -146 -43q-96 0 -154.5 59t-58.5 157q0 90 56 152t141 62t135 -57t50 -138q0 -15 -3 -24zM239 390q-61 0 -104.5 -43t-50.5 -111h305q-3 68 -42 111t-108 43zM358 645l17 -20l-135 -126l-136 126l17 20
l119 -89z" />
    <glyph glyph-name="Gbreve" unicode="&#x11e;" horiz-adv-x="733" 
d="M379 -8q-132 0 -226 90.5t-94 238.5q0 153 99 250.5t236 97.5q103 0 173 -48t70 -101q0 -19 -10.5 -31t-27.5 -12q-15 0 -25 10.5t-10 25.5q0 25 22 35q-20 34 -72.5 59.5t-120.5 25.5q-130 0 -211 -90.5t-81 -221.5q0 -130 80.5 -212t199.5 -82q121 0 226 80v161h-202
v35h242v-303h-39v70q-104 -78 -229 -78zM384 719q-47 0 -84 30t-54 77l29 14q32 -78 109 -78q76 0 109 78l28 -14q-17 -47 -54 -77t-83 -30z" />
    <glyph glyph-name="gbreve" unicode="&#x11f;" horiz-adv-x="545" 
d="M441 383v-409q0 -73 -37 -116q-49 -58 -155 -58q-94 0 -136 46q-18 18 -18 40q0 17 10.5 27.5t25.5 10.5q13 0 21 -9t8 -22q0 -17 -15 -29q27 -31 108 -31q83 0 123 47q28 34 28 91v101q-68 -73 -156 -73q-85 0 -142.5 60t-57.5 150q0 88 58.5 151t149.5 63q83 0 149 -62
v55h108v-33h-72zM255 390q-74 0 -121.5 -52t-47.5 -128q0 -77 46 -128t118 -51q87 0 154 78v219q-66 62 -149 62zM274 503q-47 0 -84 30t-54 77l29 14q32 -78 109 -78q76 0 109 78l28 -14q-17 -47 -54 -77t-83 -30z" />
    <glyph glyph-name="Gdotaccent" unicode="&#x120;" horiz-adv-x="733" 
d="M379 -8q-132 0 -226 90.5t-94 238.5q0 153 99 250.5t236 97.5q103 0 173 -48t70 -101q0 -19 -10.5 -31t-27.5 -12q-15 0 -25 10.5t-10 25.5q0 25 22 35q-20 34 -72.5 59.5t-120.5 25.5q-130 0 -211 -90.5t-81 -221.5q0 -130 80.5 -212t199.5 -82q121 0 226 80v161h-202
v35h242v-303h-39v70q-104 -78 -229 -78zM384 733q-17 0 -28.5 12t-11.5 28q0 17 11.5 29t28.5 12q16 0 27.5 -12t11.5 -29q0 -16 -11.5 -28t-27.5 -12z" />
    <glyph glyph-name="gdotaccent" unicode="&#x121;" horiz-adv-x="545" 
d="M441 383v-409q0 -73 -37 -116q-49 -58 -155 -58q-94 0 -136 46q-18 18 -18 40q0 17 10.5 27.5t25.5 10.5q13 0 21 -9t8 -22q0 -17 -15 -29q27 -31 108 -31q83 0 123 47q28 34 28 91v101q-68 -73 -156 -73q-85 0 -142.5 60t-57.5 150q0 88 58.5 151t149.5 63q83 0 149 -62
v55h108v-33h-72zM255 390q-74 0 -121.5 -52t-47.5 -128q0 -77 46 -128t118 -51q87 0 154 78v219q-66 62 -149 62zM274 517q-17 0 -28.5 12t-11.5 28q0 17 11.5 29t28.5 12q16 0 27.5 -12t11.5 -29q0 -16 -11.5 -28t-27.5 -12z" />
    <glyph glyph-name="Gcommaaccent" unicode="&#x122;" horiz-adv-x="733" 
d="M329 -243l-8 14q62 50 64 99q-16 2 -26 12t-10 25t10 24.5t24 9.5q17 0 28 -13t11 -36q0 -38 -24 -74t-69 -61zM379 -8q-132 0 -226 90.5t-94 238.5q0 153 99 250.5t236 97.5q103 0 173 -48t70 -101q0 -19 -10.5 -31t-27.5 -12q-15 0 -25 10.5t-10 25.5q0 25 22 35
q-20 34 -72.5 59.5t-120.5 25.5q-130 0 -211 -90.5t-81 -221.5q0 -130 80.5 -212t199.5 -82q121 0 226 80v161h-202v35h242v-303h-39v70q-104 -78 -229 -78z" />
    <glyph glyph-name="gcommaaccent" unicode="&#x123;" horiz-adv-x="545" 
d="M320 710l8 -14q-62 -50 -64 -99q16 -2 26 -12t10 -25t-10 -24.5t-24 -9.5q-17 0 -28 13t-11 36q0 38 24 74t69 61zM441 383v-409q0 -73 -37 -116q-49 -58 -155 -58q-94 0 -136 46q-18 18 -18 40q0 17 10.5 27.5t25.5 10.5q13 0 21 -9t8 -22q0 -17 -15 -29q27 -31 108 -31
q83 0 123 47q28 34 28 91v101q-68 -73 -156 -73q-85 0 -142.5 60t-57.5 150q0 88 58.5 151t149.5 63q83 0 149 -62v55h108v-33h-72zM255 390q-74 0 -121.5 -52t-47.5 -128q0 -77 46 -128t118 -51q87 0 154 78v219q-66 62 -149 62z" />
    <glyph glyph-name="Hbar" unicode="&#x126;" horiz-adv-x="769" 
d="M68 475v35h71v113h-91v35h225v-35h-93v-113h408v113h-92v35h225v-35h-92v-113h72v-35h-72v-440h92v-35h-225v35h92v285h-408v-285h93v-35h-225v35h91v440h-71zM180 357h408v118h-408v-118z" />
    <glyph glyph-name="hbar" unicode="&#x127;" horiz-adv-x="535" 
d="M102 697h-72v33h109v-153h164v-33h-164v-211q32 39 75 64.5t89 25.5q71 0 105 -47q25 -33 25 -96v-247h73v-33h-182v33h72v242q0 54 -20 81q-25 33 -79 33q-82 0 -158 -91v-265h73v-33h-182v33h72v511h-72v33h72v120z" />
    <glyph glyph-name="Imacron" unicode="&#x12a;" horiz-adv-x="331" 
d="M49 0v35h96v588h-96v35h234v-35h-97v-588h97v-35h-234zM26 750v37h281v-37h-281z" />
    <glyph glyph-name="imacron" unicode="&#x12b;" horiz-adv-x="268" 
d="M42 0v33h78v350h-78v33h115v-383h78v-33h-193zM-7 534v37h281v-37h-281z" />
    <glyph glyph-name="Ibreve" unicode="&#x12c;" horiz-adv-x="331" 
d="M49 0v35h96v588h-96v35h234v-35h-97v-588h97v-35h-234zM167 719q-47 0 -84 30t-54 77l29 14q32 -78 109 -78q76 0 109 78l28 -14q-17 -47 -54 -77t-83 -30z" />
    <glyph glyph-name="ibreve" unicode="&#x12d;" horiz-adv-x="268" 
d="M42 0v33h78v350h-78v33h115v-383h78v-33h-193zM134 503q-47 0 -84 30t-54 77l29 14q32 -78 109 -78q76 0 109 78l28 -14q-17 -47 -54 -77t-83 -30z" />
    <glyph glyph-name="Iogonek" unicode="&#x12e;" horiz-adv-x="331" 
d="M49 0v35h96v588h-96v35h234v-35h-97v-588h97v-35h-74q-43 -19 -67 -48.5t-24 -61.5q0 -27 16.5 -43t46.5 -16q37 0 75 21l-2 -29q-31 -24 -76 -24q-46 0 -71 23t-25 62q0 69 76 116h-109z" />
    <glyph glyph-name="iogonek" unicode="&#x12f;" horiz-adv-x="265" 
d="M42 0v33h78v350h-78v33h115v-383h78v-33h-67q-41 -19 -64.5 -48.5t-23.5 -61.5q0 -27 16.5 -43t46.5 -16q37 0 75 21l-2 -29q-31 -24 -76 -24q-46 0 -71 23t-25 62q0 68 74 116h-76zM130 556q-15 0 -25.5 11t-10.5 26q0 16 10.5 27t25.5 11t25.5 -11t10.5 -27
q0 -15 -10.5 -26t-25.5 -11z" />
    <glyph glyph-name="Idotaccent" unicode="&#x130;" horiz-adv-x="331" 
d="M49 0v35h96v588h-96v35h234v-35h-97v-588h97v-35h-234zM167 733q-17 0 -28.5 12t-11.5 28q0 17 11.5 29t28.5 12q16 0 27.5 -12t11.5 -29q0 -16 -11.5 -28t-27.5 -12z" />
    <glyph glyph-name="dotlessi" unicode="&#x131;" horiz-adv-x="268" 
d="M42 0v33h78v350h-78v33h115v-383h78v-33h-193z" />
    <glyph glyph-name="Kcommaaccent" unicode="&#x136;" horiz-adv-x="660" 
d="M294 -243l-8 14q62 50 64 99q-16 2 -26 12t-10 25t10 24.5t24 9.5q17 0 28 -13t11 -36q0 -38 -24 -74t-69 -61zM48 0v35h91v588h-91v35h225v-35h-93v-347l338 347h-100v35h227v-35h-78l-239 -245l238 -343h85v-35h-111l-241 351l-119 -121v-195h93v-35h-225z" />
    <glyph glyph-name="kcommaaccent" unicode="&#x137;" horiz-adv-x="500" 
d="M200 -243l-8 14q62 50 64 99q-16 2 -26 12t-10 25t10 24.5t24 9.5q17 0 28 -13t11 -36q0 -38 -24 -74t-69 -61zM30 0v33h72v664h-72v33h109v-543l218 197h-99v32h221v-33h-74l-151 -136l150 -214h75v-33h-97l-155 227l-88 -80v-114h75v-33h-184z" />
    <glyph glyph-name="Lacute" unicode="&#x139;" horiz-adv-x="538" 
d="M149 728l-9 15l124 99q18 15 31 15q11 0 19 -8.5t8 -20.5q0 -17 -29 -31zM48 0v35h91v588h-91v35h227v-35h-95v-588h267v116h39v-151h-438z" />
    <glyph glyph-name="lacute" unicode="&#x13a;" horiz-adv-x="254" 
d="M103 767l-9 15l124 99q18 15 31 15q11 0 19 -8.5t8 -20.5q0 -17 -29 -31zM31 0v33h77v664h-77v33h114v-697h79v-33h-193z" />
    <glyph glyph-name="Lcommaaccent" unicode="&#x13b;" horiz-adv-x="538" 
d="M213 -243l-8 14q62 50 64 99q-16 2 -26 12t-10 25t10 24.5t24 9.5q17 0 28 -13t11 -36q0 -38 -24 -74t-69 -61zM48 0v35h91v588h-91v35h227v-35h-95v-588h267v116h39v-151h-438z" />
    <glyph glyph-name="lcommaaccent" unicode="&#x13c;" horiz-adv-x="254" 
d="M72 -243l-8 14q62 50 64 99q-16 2 -26 12t-10 25t10 24.5t24 9.5q17 0 28 -13t11 -36q0 -38 -24 -74t-69 -61zM31 0v33h77v664h-77v33h114v-697h79v-33h-193z" />
    <glyph glyph-name="Lcaron" unicode="&#x13d;" horiz-adv-x="538" 
d="M331 469l-14 10q31 50 31 98q0 12 -2 28t-2 24q0 30 27 30t27 -33q0 -79 -67 -157zM48 0v35h91v588h-91v35h227v-35h-95v-588h267v116h39v-151h-438z" />
    <glyph glyph-name="lcaron" unicode="&#x13e;" horiz-adv-x="254" 
d="M202 539l-14 10q31 50 31 98q0 12 -2 28t-2 24q0 30 27 30t27 -33q0 -79 -67 -157zM31 0v33h77v664h-77v33h114v-697h79v-33h-193z" />
    <glyph glyph-name="Ldot" unicode="&#x13f;" horiz-adv-x="538" 
d="M48 0v35h91v588h-91v35h227v-35h-95v-588h267v116h39v-151h-438zM428 309q-17 0 -28.5 12t-11.5 28q0 17 11.5 29t28.5 12q16 0 27.5 -12t11.5 -29q0 -16 -11.5 -28t-27.5 -12z" />
    <glyph glyph-name="ldot" unicode="&#x140;" horiz-adv-x="279" 
d="M31 0v33h77v664h-77v33h114v-697h79v-33h-193zM265 305q-17 0 -28.5 12t-11.5 28q0 17 11.5 29t28.5 12q16 0 27.5 -12t11.5 -29q0 -16 -11.5 -28t-27.5 -12z" />
    <glyph glyph-name="Lslash" unicode="&#x141;" horiz-adv-x="547" 
d="M56 0v35h91v246l-89 -53l-18 30l107 64v301h-91v35h227v-35h-95v-277l164 98l18 -30l-182 -109v-270h267v116h39v-151h-438z" />
    <glyph glyph-name="lslash" unicode="&#x142;" horiz-adv-x="274" 
d="M41 0v33h77v345l-95 -57l-16 28l111 67v281h-77v33h114v-292l84 50l17 -28l-101 -60v-367h79v-33h-193z" />
    <glyph glyph-name="Nacute" unicode="&#x143;" horiz-adv-x="759" 
d="M347 719l-9 15l124 99q18 15 31 15q11 0 19 -8.5t8 -20.5q0 -17 -29 -31zM610 -3l-432 590v-552h94v-35h-224v35h91v588h-91v35h126l422 -577v542h-93v35h222v-35h-91v-626h-24z" />
    <glyph glyph-name="nacute" unicode="&#x144;" horiz-adv-x="544" 
d="M246 503l-9 15l124 99q18 15 31 15q11 0 19 -8.5t8 -20.5q0 -17 -29 -31zM149 416v-84q76 91 165 91q77 0 109 -55q19 -34 19 -88v-247h73v-33h-182v33h72v242q0 45 -12 69q-22 45 -84 45q-83 0 -158 -91v-265h72v-33h-182v33h73v350h-73v33h108z" />
    <glyph glyph-name="Ncommaaccent" unicode="&#x145;" horiz-adv-x="759" 
d="M326 -243l-8 14q62 50 64 99q-16 2 -26 12t-10 25t10 24.5t24 9.5q17 0 28 -13t11 -36q0 -38 -24 -74t-69 -61zM610 -3l-432 590v-552h94v-35h-224v35h91v588h-91v35h126l422 -577v542h-93v35h222v-35h-91v-626h-24z" />
    <glyph glyph-name="ncommaaccent" unicode="&#x146;" horiz-adv-x="544" 
d="M224 -243l-8 14q62 50 64 99q-16 2 -26 12t-10 25t10 24.5t24 9.5q17 0 28 -13t11 -36q0 -38 -24 -74t-69 -61zM149 416v-84q76 91 165 91q77 0 109 -55q19 -34 19 -88v-247h73v-33h-182v33h72v242q0 45 -12 69q-22 45 -84 45q-83 0 -158 -91v-265h72v-33h-182v33h73v350
h-73v33h108z" />
    <glyph glyph-name="Ncaron" unicode="&#x147;" horiz-adv-x="759" 
d="M499 861l17 -20l-135 -126l-136 126l17 20l119 -89zM610 -3l-432 590v-552h94v-35h-224v35h91v588h-91v35h126l422 -577v542h-93v35h222v-35h-91v-626h-24z" />
    <glyph glyph-name="ncaron" unicode="&#x148;" horiz-adv-x="544" 
d="M397 645l17 -20l-135 -126l-136 126l17 20l119 -89zM149 416v-84q76 91 165 91q77 0 109 -55q19 -34 19 -88v-247h73v-33h-182v33h72v242q0 45 -12 69q-22 45 -84 45q-83 0 -158 -91v-265h72v-33h-182v33h73v350h-73v33h108z" />
    <glyph glyph-name="Omacron" unicode="&#x14c;" horiz-adv-x="775" 
d="M246 750v37h281v-37h-281zM386 -11q-140 0 -234 98.5t-94 241.5t95 241.5t235 98.5t234 -98.5t94 -241.5t-94.5 -241.5t-235.5 -98.5zM387 25q125 0 206 87.5t81 216.5q0 128 -81 216t-206 88q-124 0 -205.5 -87.5t-81.5 -216.5q0 -128 81.5 -216t205.5 -88z" />
    <glyph glyph-name="omacron" unicode="&#x14d;" horiz-adv-x="513" 
d="M115 534v37h281v-37h-281zM256 -7q-91 0 -150.5 61.5t-59.5 153.5q0 91 59.5 153t150.5 62q92 0 151 -61.5t59 -153.5q0 -91 -59.5 -153t-150.5 -62zM256 26q75 0 123 51.5t48 130.5t-48 130.5t-123 51.5t-123 -52t-48 -130q0 -79 48 -130.5t123 -51.5z" />
    <glyph glyph-name="Obreve" unicode="&#x14e;" horiz-adv-x="775" 
d="M386 -11q-140 0 -234 98.5t-94 241.5t95 241.5t235 98.5t234 -98.5t94 -241.5t-94.5 -241.5t-235.5 -98.5zM387 25q125 0 206 87.5t81 216.5q0 128 -81 216t-206 88q-124 0 -205.5 -87.5t-81.5 -216.5q0 -128 81.5 -216t205.5 -88zM387 719q-47 0 -84 30t-54 77l29 14
q32 -78 109 -78q76 0 109 78l28 -14q-17 -47 -54 -77t-83 -30z" />
    <glyph glyph-name="obreve" unicode="&#x14f;" horiz-adv-x="513" 
d="M256 -7q-91 0 -150.5 61.5t-59.5 153.5q0 91 59.5 153t150.5 62q92 0 151 -61.5t59 -153.5q0 -91 -59.5 -153t-150.5 -62zM256 26q75 0 123 51.5t48 130.5t-48 130.5t-123 51.5t-123 -52t-48 -130q0 -79 48 -130.5t123 -51.5zM256 503q-47 0 -84 30t-54 77l29 14
q32 -78 109 -78q76 0 109 78l28 -14q-17 -47 -54 -77t-83 -30z" />
    <glyph glyph-name="Ohungarumlaut" unicode="&#x150;" horiz-adv-x="775" 
d="M280 719l-9 14l122 103q18 16 31 16q11 0 18.5 -7.5t7.5 -19.5q0 -18 -28 -31zM449 724l-9 14l128 96q17 13 32 13q11 0 18 -7.5t7 -18.5q0 -20 -31 -32zM386 -11q-140 0 -234 98.5t-94 241.5t95 241.5t235 98.5t234 -98.5t94 -241.5t-94.5 -241.5t-235.5 -98.5zM387 25
q125 0 206 87.5t81 216.5q0 128 -81 216t-206 88q-124 0 -205.5 -87.5t-81.5 -216.5q0 -128 81.5 -216t205.5 -88z" />
    <glyph glyph-name="ohungarumlaut" unicode="&#x151;" horiz-adv-x="513" 
d="M149 503l-9 14l122 103q18 16 31 16q11 0 18.5 -7.5t7.5 -19.5q0 -18 -28 -31zM318 508l-9 14l128 96q17 13 32 13q11 0 18 -7.5t7 -18.5q0 -20 -31 -32zM256 -7q-91 0 -150.5 61.5t-59.5 153.5q0 91 59.5 153t150.5 62q92 0 151 -61.5t59 -153.5q0 -91 -59.5 -153
t-150.5 -62zM256 26q75 0 123 51.5t48 130.5t-48 130.5t-123 51.5t-123 -52t-48 -130q0 -79 48 -130.5t123 -51.5z" />
    <glyph glyph-name="OE" unicode="&#x152;" horiz-adv-x="918" 
d="M417 0q-164 0 -261.5 89.5t-97.5 235.5q0 149 96.5 241t260.5 92h433v-146h-39v111h-291v-269h233v-36h-233v-283h291v111h39v-146h-431zM418 35h58v588h-64q-149 0 -230.5 -82t-81.5 -217q0 -131 85 -210t233 -79z" />
    <glyph glyph-name="oe" unicode="&#x153;" horiz-adv-x="847" 
d="M640 26q72 0 146 48l-4 -38q-64 -43 -146 -43q-72 0 -121.5 34.5t-70.5 95.5q-22 -59 -71.5 -94.5t-116.5 -35.5q-91 0 -150.5 61.5t-59.5 153.5q0 91 59.5 153t150.5 62q68 0 117.5 -35.5t70.5 -95.5q20 59 66 95t110 36q85 0 135 -57t50 -138q0 -15 -3 -24h-341
q3 -86 51 -132t128 -46zM256 26q75 0 123 51.5t48 130.5t-48 130.5t-123 51.5t-123 -52t-48 -130q0 -79 48 -130.5t123 -51.5zM617 390q-60 0 -104 -43t-51 -111h305q-3 68 -42 111t-108 43z" />
    <glyph glyph-name="Racute" unicode="&#x154;" horiz-adv-x="605" 
d="M268 719l-9 15l124 99q18 15 31 15q11 0 19 -8.5t8 -20.5q0 -17 -29 -31zM48 0v35h91v588h-91v35h246q102 0 163.5 -51.5t61.5 -132.5q0 -70 -43 -117t-116 -64l164 -258h80v-35h-108l-179 286q-22 -2 -38 -2q-72 0 -99 1v-250h93v-35h-225zM281 319q89 0 142.5 40
t53.5 114q0 69 -50 109.5t-136 40.5h-111v-302q60 -2 101 -2z" />
    <glyph glyph-name="racute" unicode="&#x155;" horiz-adv-x="340" 
d="M274 423q23 0 36 -11.5t13 -28.5q0 -14 -9 -23.5t-24 -9.5q-14 0 -24 10t-11 23q-55 -9 -104 -97v-253h82v-33h-192v33h73v350h-73v33h108v-93q24 43 59 71.5t66 28.5zM150 503l-9 15l124 99q18 15 31 15q11 0 19 -8.5t8 -20.5q0 -17 -29 -31z" />
    <glyph glyph-name="Rcommaaccent" unicode="&#x156;" horiz-adv-x="605" 
d="M248 -243l-8 14q62 50 64 99q-16 2 -26 12t-10 25t10 24.5t24 9.5q17 0 28 -13t11 -36q0 -38 -24 -74t-69 -61zM48 0v35h91v588h-91v35h246q102 0 163.5 -51.5t61.5 -132.5q0 -70 -43 -117t-116 -64l164 -258h80v-35h-108l-179 286q-22 -2 -38 -2q-72 0 -99 1v-250h93
v-35h-225zM281 319q89 0 142.5 40t53.5 114q0 69 -50 109.5t-136 40.5h-111v-302q60 -2 101 -2z" />
    <glyph glyph-name="rcommaaccent" unicode="&#x157;" horiz-adv-x="340" 
d="M274 423q23 0 36 -11.5t13 -28.5q0 -14 -9 -23.5t-24 -9.5q-14 0 -24 10t-11 23q-55 -9 -104 -97v-253h82v-33h-192v33h73v350h-73v33h108v-93q24 43 59 71.5t66 28.5zM75 -243l-8 14q62 50 64 99q-16 2 -26 12t-10 25t10 24.5t24 9.5q17 0 28 -13t11 -36q0 -38 -24 -74
t-69 -61z" />
    <glyph glyph-name="Rcaron" unicode="&#x158;" horiz-adv-x="605" 
d="M420 861l17 -20l-135 -126l-136 126l17 20l119 -89zM48 0v35h91v588h-91v35h246q102 0 163.5 -51.5t61.5 -132.5q0 -70 -43 -117t-116 -64l164 -258h80v-35h-108l-179 286q-22 -2 -38 -2q-72 0 -99 1v-250h93v-35h-225zM281 319q89 0 142.5 40t53.5 114q0 69 -50 109.5
t-136 40.5h-111v-302q60 -2 101 -2z" />
    <glyph glyph-name="rcaron" unicode="&#x159;" horiz-adv-x="340" 
d="M274 423q23 0 36 -11.5t13 -28.5q0 -14 -9 -23.5t-24 -9.5q-14 0 -24 10t-11 23q-55 -9 -104 -97v-253h82v-33h-192v33h73v350h-73v33h108v-93q24 43 59 71.5t66 28.5zM301 645l17 -20l-135 -126l-136 126l17 20l119 -89z" />
    <glyph glyph-name="Sacute" unicode="&#x15a;" horiz-adv-x="529" 
d="M245 719l-9 15l124 99q18 15 31 15q11 0 19 -8.5t8 -20.5q0 -17 -29 -31zM264 -10q-88 0 -146 41t-58 88q0 21 10.5 33.5t26.5 12.5q14 0 24 -10t10 -24q0 -24 -22 -38q16 -28 58.5 -47.5t98.5 -19.5q74 0 118.5 38.5t44.5 100.5q0 56 -40.5 88.5t-117.5 63.5
q-45 18 -72.5 31.5t-57 35.5t-43.5 51.5t-14 67.5q0 72 53.5 118.5t137.5 46.5q74 0 128 -38t54 -84q0 -19 -10.5 -30.5t-25.5 -11.5q-14 0 -24.5 10t-10.5 25q0 20 19 36q-13 24 -51.5 40.5t-80.5 16.5q-65 0 -107 -36t-42 -90q0 -30 12 -53.5t38 -41.5t49 -29.5t64 -27.5
q43 -17 70.5 -31t55.5 -36t42 -51.5t14 -67.5q0 -80 -57.5 -129t-147.5 -49z" />
    <glyph glyph-name="sacute" unicode="&#x15b;" horiz-adv-x="412" 
d="M351 340q0 -14 -8.5 -23.5t-21.5 -9.5t-22 9t-9 22q0 15 10 26q-28 27 -95 27q-50 0 -80 -23t-30 -56q0 -23 18 -38.5t39 -23t65 -18.5q34 -9 55.5 -16.5t45.5 -21.5t35.5 -35t11.5 -50q0 -52 -44.5 -84t-112.5 -32q-45 0 -83.5 14t-60.5 36q-19 19 -19 43q0 14 8.5 24
t21.5 10q14 0 22.5 -8.5t8.5 -21.5q0 -17 -12 -26q10 -15 42 -27t71 -12q56 0 89 23t33 60t-30 55t-90 33q-76 18 -113 41.5t-37 73.5q0 48 41.5 80t105.5 32q86 0 126 -42q19 -19 19 -41zM176 503l-9 15l124 99q18 15 31 15q11 0 19 -8.5t8 -20.5q0 -17 -29 -31z" />
    <glyph glyph-name="Scedilla" unicode="&#x15e;" horiz-adv-x="529" 
d="M267 -200q-50 0 -98 23l10 25q41 -19 84 -19q28 0 42.5 11t14.5 29q0 39 -63 40q-10 0 -18 -2l-12 8l19 76q-81 4 -133.5 44t-52.5 84q0 21 10.5 33.5t26.5 12.5q14 0 24 -10t10 -24q0 -24 -22 -38q16 -28 58.5 -47.5t98.5 -19.5q74 0 118.5 38.5t44.5 100.5
q0 56 -40.5 88.5t-117.5 63.5q-45 18 -72.5 31.5t-57 35.5t-43.5 51.5t-14 67.5q0 72 53.5 118.5t137.5 46.5q74 0 128 -38t54 -84q0 -19 -10.5 -30.5t-25.5 -11.5q-14 0 -24.5 10t-10.5 25q0 20 19 36q-13 24 -51.5 40.5t-80.5 16.5q-65 0 -107 -36t-42 -90q0 -30 12 -53.5
t38 -41.5t49 -29.5t64 -27.5q43 -17 70.5 -31t55.5 -36t42 -51.5t14 -67.5q0 -78 -55 -127t-142 -51l-6 -49q44 -1 67.5 -20t23.5 -50t-23.5 -51t-66.5 -20z" />
    <glyph glyph-name="scedilla" unicode="&#x15f;" horiz-adv-x="412" 
d="M211 -200q-50 0 -98 23l10 25q41 -19 84 -19q28 0 42.5 11t14.5 29q0 39 -63 40q-10 0 -18 -2l-12 8l20 79q-86 5 -127 49q-19 19 -19 43q0 14 8.5 24t21.5 10q14 0 22.5 -8.5t8.5 -21.5q0 -17 -12 -26q10 -15 42 -27t71 -12q56 0 89 23t33 60t-30 55t-90 33
q-76 18 -113 41.5t-37 73.5q0 48 41.5 80t105.5 32q86 0 126 -42q19 -19 19 -41q0 -14 -8.5 -23.5t-21.5 -9.5t-22 9t-9 22q0 15 10 26q-28 27 -95 27q-50 0 -80 -23t-30 -56q0 -23 18 -38.5t39 -23t65 -18.5q34 -9 55.5 -16.5t45.5 -21.5t35.5 -35t11.5 -50
q0 -50 -41.5 -82t-106.5 -34l-7 -52q44 -1 67.5 -20t23.5 -50t-23.5 -51t-66.5 -20z" />
    <glyph glyph-name="Scaron" unicode="&#x160;" horiz-adv-x="529" 
d="M397 861l17 -20l-135 -126l-136 126l17 20l119 -89zM264 -10q-88 0 -146 41t-58 88q0 21 10.5 33.5t26.5 12.5q14 0 24 -10t10 -24q0 -24 -22 -38q16 -28 58.5 -47.5t98.5 -19.5q74 0 118.5 38.5t44.5 100.5q0 56 -40.5 88.5t-117.5 63.5q-45 18 -72.5 31.5t-57 35.5
t-43.5 51.5t-14 67.5q0 72 53.5 118.5t137.5 46.5q74 0 128 -38t54 -84q0 -19 -10.5 -30.5t-25.5 -11.5q-14 0 -24.5 10t-10.5 25q0 20 19 36q-13 24 -51.5 40.5t-80.5 16.5q-65 0 -107 -36t-42 -90q0 -30 12 -53.5t38 -41.5t49 -29.5t64 -27.5q43 -17 70.5 -31t55.5 -36
t42 -51.5t14 -67.5q0 -80 -57.5 -129t-147.5 -49z" />
    <glyph glyph-name="scaron" unicode="&#x161;" horiz-adv-x="412" 
d="M351 340q0 -14 -8.5 -23.5t-21.5 -9.5t-22 9t-9 22q0 15 10 26q-28 27 -95 27q-50 0 -80 -23t-30 -56q0 -23 18 -38.5t39 -23t65 -18.5q34 -9 55.5 -16.5t45.5 -21.5t35.5 -35t11.5 -50q0 -52 -44.5 -84t-112.5 -32q-45 0 -83.5 14t-60.5 36q-19 19 -19 43q0 14 8.5 24
t21.5 10q14 0 22.5 -8.5t8.5 -21.5q0 -17 -12 -26q10 -15 42 -27t71 -12q56 0 89 23t33 60t-30 55t-90 33q-76 18 -113 41.5t-37 73.5q0 48 41.5 80t105.5 32q86 0 126 -42q19 -19 19 -41zM327 645l17 -20l-135 -126l-136 126l17 20l119 -89z" />
    <glyph glyph-name="Tcommaaccent" unicode="&#x162;" horiz-adv-x="626" 
d="M257 -243l-8 14q62 50 64 99q-16 2 -26 12t-10 25t10 24.5t24 9.5q17 0 28 -13t11 -36q0 -38 -24 -74t-69 -61zM195 0v35h98v588h-207v-116h-40v151h534v-151h-40v116h-206v-588h97v-35h-236z" />
    <glyph glyph-name="tcommaaccent" unicode="&#x163;" horiz-adv-x="299" 
d="M110 -243l-8 14q62 50 64 99q-16 2 -26 12t-10 25t10 24.5t24 9.5q17 0 28 -13t11 -36q0 -38 -24 -74t-69 -61zM181 -7q-58 0 -79 46q-10 21 -10 52v292h-76v33h76v111l37 13v-124h134v-33h-134v-288q0 -24 7 -39q13 -28 53 -28q34 0 76 25l-6 -37q-38 -23 -78 -23z" />
    <glyph glyph-name="Tcaron" unicode="&#x164;" horiz-adv-x="626" 
d="M431 861l17 -20l-135 -126l-136 126l17 20l119 -89zM195 0v35h98v588h-207v-116h-40v151h534v-151h-40v116h-206v-588h97v-35h-236z" />
    <glyph glyph-name="tcaron" unicode="&#x165;" horiz-adv-x="299" 
d="M195 480l-14 10q31 50 31 98q0 12 -2 28t-2 24q0 30 27 30t27 -33q0 -79 -67 -157zM181 -7q-58 0 -79 46q-10 21 -10 52v292h-76v33h76v111l37 13v-124h134v-33h-134v-288q0 -24 7 -39q13 -28 53 -28q34 0 76 25l-6 -37q-38 -23 -78 -23z" />
    <glyph glyph-name="Umacron" unicode="&#x16a;" horiz-adv-x="701" 
d="M349 -11q-109 0 -167 61.5t-58 173.5v399h-92v35h226v-35h-94v-395q0 -100 47.5 -151.5t138.5 -51.5t139 51t48 151v396h-94v35h226v-35h-92v-397q0 -113 -59.5 -175t-168.5 -62zM209 750v37h281v-37h-281z" />
    <glyph glyph-name="umacron" unicode="&#x16b;" horiz-adv-x="535" 
d="M230 -7q-79 0 -110 56q-18 33 -18 87v247h-73v33h110v-276q0 -44 13 -70q23 -43 83 -43q77 0 158 94v262h-72v33h109v-383h73v-33h-109v88q-31 -41 -74.5 -68t-89.5 -27zM122 534v37h281v-37h-281z" />
    <glyph glyph-name="Ubreve" unicode="&#x16c;" horiz-adv-x="701" 
d="M349 -11q-109 0 -167 61.5t-58 173.5v399h-92v35h226v-35h-94v-395q0 -100 47.5 -151.5t138.5 -51.5t139 51t48 151v396h-94v35h226v-35h-92v-397q0 -113 -59.5 -175t-168.5 -62zM350 719q-47 0 -84 30t-54 77l29 14q32 -78 109 -78q76 0 109 78l28 -14q-17 -47 -54 -77
t-83 -30z" />
    <glyph glyph-name="ubreve" unicode="&#x16d;" horiz-adv-x="535" 
d="M230 -7q-79 0 -110 56q-18 33 -18 87v247h-73v33h110v-276q0 -44 13 -70q23 -43 83 -43q77 0 158 94v262h-72v33h109v-383h73v-33h-109v88q-31 -41 -74.5 -68t-89.5 -27zM263 503q-47 0 -84 30t-54 77l29 14q32 -78 109 -78q76 0 109 78l28 -14q-17 -47 -54 -77t-83 -30z
" />
    <glyph glyph-name="Uring" unicode="&#x16e;" horiz-adv-x="701" 
d="M350 710q-39 0 -65.5 27t-26.5 66q0 38 26.5 65.5t65.5 27.5q38 0 64.5 -27.5t26.5 -65.5q0 -39 -26.5 -66t-64.5 -27zM350 740q25 0 41.5 18t16.5 45q0 26 -16.5 44.5t-41.5 18.5q-26 0 -42.5 -18.5t-16.5 -44.5q0 -27 16.5 -45t42.5 -18zM349 -11q-109 0 -167 61.5
t-58 173.5v399h-92v35h226v-35h-94v-395q0 -100 47.5 -151.5t138.5 -51.5t139 51t48 151v396h-94v35h226v-35h-92v-397q0 -113 -59.5 -175t-168.5 -62z" />
    <glyph glyph-name="uring" unicode="&#x16f;" horiz-adv-x="535" 
d="M263 494q-39 0 -65.5 27t-26.5 66q0 38 26.5 65.5t65.5 27.5q38 0 64.5 -27.5t26.5 -65.5q0 -39 -26.5 -66t-64.5 -27zM263 524q25 0 41.5 18t16.5 45q0 26 -16.5 44.5t-41.5 18.5q-26 0 -42.5 -18.5t-16.5 -44.5q0 -27 16.5 -45t42.5 -18zM230 -7q-79 0 -110 56
q-18 33 -18 87v247h-73v33h110v-276q0 -44 13 -70q23 -43 83 -43q77 0 158 94v262h-72v33h109v-383h73v-33h-109v88q-31 -41 -74.5 -68t-89.5 -27z" />
    <glyph glyph-name="Uhungarumlaut" unicode="&#x170;" horiz-adv-x="701" 
d="M349 -11q-109 0 -167 61.5t-58 173.5v399h-92v35h226v-35h-94v-395q0 -100 47.5 -151.5t138.5 -51.5t139 51t48 151v396h-94v35h226v-35h-92v-397q0 -113 -59.5 -175t-168.5 -62zM243 719l-9 14l122 103q18 16 31 16q11 0 18.5 -7.5t7.5 -19.5q0 -18 -28 -31zM412 724
l-9 14l128 96q17 13 32 13q11 0 18 -7.5t7 -18.5q0 -20 -31 -32z" />
    <glyph glyph-name="uhungarumlaut" unicode="&#x171;" horiz-adv-x="535" 
d="M230 -7q-79 0 -110 56q-18 33 -18 87v247h-73v33h110v-276q0 -44 13 -70q23 -43 83 -43q77 0 158 94v262h-72v33h109v-383h73v-33h-109v88q-31 -41 -74.5 -68t-89.5 -27zM156 503l-9 14l122 103q18 16 31 16q11 0 18.5 -7.5t7.5 -19.5q0 -18 -28 -31zM325 508l-9 14
l128 96q17 13 32 13q11 0 18 -7.5t7 -18.5q0 -20 -31 -32z" />
    <glyph glyph-name="Uogonek" unicode="&#x172;" horiz-adv-x="701" 
d="M375 -201q-46 0 -71 23t-25 62q0 60 60 105q-104 3 -159.5 64.5t-55.5 170.5v399h-92v35h226v-35h-94v-395q0 -100 47.5 -151.5t138.5 -51.5t139 51t48 151v396h-94v35h226v-35h-92v-397q0 -102 -48.5 -163t-139.5 -71q-74 -41 -74 -102q0 -27 16.5 -43t46.5 -16
q37 0 75 21l-2 -29q-31 -24 -76 -24z" />
    <glyph glyph-name="uogonek" unicode="&#x173;" horiz-adv-x="535" 
d="M230 -7q-79 0 -110 56q-18 33 -18 87v247h-73v33h110v-276q0 -44 13 -70q23 -43 83 -43q77 0 158 94v262h-72v33h109v-383h73v-33h-60q-43 -19 -67 -48.5t-24 -61.5q0 -27 16.5 -43t46.5 -16q37 0 75 21l-2 -29q-31 -24 -76 -24q-46 0 -71 23t-25 62q0 70 78 117v87
q-31 -41 -74.5 -68t-89.5 -27z" />
    <glyph glyph-name="Wcircumflex" unicode="&#x174;" horiz-adv-x="963" 
d="M363 712l-17 19l136 127l135 -127l-17 -19l-118 89zM287 -13l-191 636h-83v35h214v-35h-89l164 -563l170 508h24l170 -508l163 563h-91v35h214v-35h-83l-190 -636h-25l-171 504l-171 -504h-25z" />
    <glyph glyph-name="wcircumflex" unicode="&#x175;" horiz-adv-x="663" 
d="M213 496l-17 19l136 127l135 -127l-17 -19l-118 89zM184 -17l-118 400h-63v33h176v-32h-75l92 -328l129 310h15l129 -310l92 328h-77v32h177v-33h-65l-116 -400h-16l-132 319l-133 -319h-15z" />
    <glyph glyph-name="Ycircumflex" unicode="&#x176;" horiz-adv-x="634" 
d="M195 0v35h101v240l-204 348h-75v35h204v-35h-82l179 -314l179 314h-83v35h203v-35h-76l-203 -348v-240h101v-35h-244zM197 713l-17 19l136 127l135 -127l-17 -19l-118 89z" />
    <glyph glyph-name="ycircumflex" unicode="&#x177;" horiz-adv-x="484" 
d="M187 -128q-46 -72 -104 -72q-24 0 -40 11.5t-16 30.5q0 14 8.5 22.5t22.5 8.5q16 0 26 -12.5t8 -27.5q37 5 70 57q16 26 39 76l24 53l-161 364h-62v33h178v-33h-74l137 -325l140 325h-76v33h175v-33h-62l-195 -439q-17 -38 -38 -72zM125 497l-17 19l136 127l135 -127
l-17 -19l-118 89z" />
    <glyph glyph-name="Ydieresis" unicode="&#x178;" horiz-adv-x="634" 
d="M195 0v35h101v240l-204 348h-75v35h204v-35h-82l179 -314l179 314h-83v35h203v-35h-76l-203 -348v-240h101v-35h-244zM384 735q-16 0 -26.5 11.5t-10.5 26.5q0 17 10.5 28t26.5 11t26.5 -11t10.5 -28q0 -15 -11 -26.5t-26 -11.5zM247 735q-15 0 -26 11.5t-11 26.5
q0 17 10.5 28t26.5 11t27 -11t11 -28q0 -15 -11 -26.5t-27 -11.5z" />
    <glyph glyph-name="Zacute" unicode="&#x179;" horiz-adv-x="582" 
d="M257 719l-9 15l124 99q18 15 31 15q11 0 19 -8.5t8 -20.5q0 -17 -29 -31zM42 0v18l430 606h-368v-112h-39v146h465v-18l-429 -606h399v112h39v-146h-497z" />
    <glyph glyph-name="zacute" unicode="&#x17a;" horiz-adv-x="412" 
d="M174 503l-9 15l124 99q18 15 31 15q11 0 19 -8.5t8 -20.5q0 -17 -29 -31zM34 0v13l283 371h-230v-85h-35v117h322v-14l-283 -370h252v85h35v-117h-344z" />
    <glyph glyph-name="Zdotaccent" unicode="&#x17b;" horiz-adv-x="582" 
d="M42 0v18l430 606h-368v-112h-39v146h465v-18l-429 -606h399v112h39v-146h-497zM291 733q-17 0 -28.5 12t-11.5 28q0 17 11.5 29t28.5 12q16 0 27.5 -12t11.5 -29q0 -16 -11.5 -28t-27.5 -12z" />
    <glyph glyph-name="zdotaccent" unicode="&#x17c;" horiz-adv-x="412" 
d="M34 0v13l283 371h-230v-85h-35v117h322v-14l-283 -370h252v85h35v-117h-344zM207 517q-17 0 -28.5 12t-11.5 28q0 17 11.5 29t28.5 12q16 0 27.5 -12t11.5 -29q0 -16 -11.5 -28t-27.5 -12z" />
    <glyph glyph-name="Zcaron" unicode="&#x17d;" horiz-adv-x="582" 
d="M409 861l17 -20l-135 -126l-136 126l17 20l119 -89zM42 0v18l430 606h-368v-112h-39v146h465v-18l-429 -606h399v112h39v-146h-497z" />
    <glyph glyph-name="zcaron" unicode="&#x17e;" horiz-adv-x="412" 
d="M325 645l17 -20l-135 -126l-136 126l17 20l119 -89zM34 0v13l283 371h-230v-85h-35v117h322v-14l-283 -370h252v85h35v-117h-344z" />
    <glyph glyph-name="Aringacute" unicode="&#x1fa;" horiz-adv-x="702" 
d="M316 858l-9 15l124 99q18 15 31 15q11 0 19 -8.5t8 -20.5q0 -17 -29 -31zM442 726q0 -44 -33 -68h67v-35h-83l220 -588h73v-35h-203v35h86l-77 209h-283l-77 -209h88v-35h-203v35h72l220 588h-83v35h66q-32 26 -32 68q0 37 26.5 63.5t64.5 26.5t64.5 -27t26.5 -63z
M222 279h257l-128 347zM351 660q25 0 41.5 18t16.5 45q0 26 -16.5 44.5t-41.5 18.5q-26 0 -42.5 -18.5t-16.5 -44.5q0 -27 16.5 -45t42.5 -18z" />
    <glyph glyph-name="aringacute" unicode="&#x1fb;" horiz-adv-x="472" 
d="M185 -7q-64 0 -101.5 34t-37.5 85q0 56 43.5 90.5t111.5 34.5q73 0 133 -24v76q0 39 -21 65q-32 37 -98 37q-60 0 -92 -32q10 -10 10 -27q0 -12 -8.5 -21t-21.5 -9q-15 0 -23.5 9.5t-8.5 24.5q0 32 40.5 59.5t106.5 27.5q84 0 123 -45q29 -32 29 -83v-262h72v-33h-107v63
q-64 -70 -150 -70zM190 25q80 0 144 73v87q-66 21 -131 21q-58 0 -89 -26.5t-31 -65.5q0 -38 27.5 -63.5t79.5 -25.5zM202 735l-9 15l124 99q18 15 31 15q11 0 19 -8.5t8 -20.5q0 -17 -29 -31zM236 494q-39 0 -65.5 27t-26.5 66q0 38 26.5 65.5t65.5 27.5q38 0 64.5 -27.5
t26.5 -65.5q0 -39 -26.5 -66t-64.5 -27zM236 524q25 0 41.5 18t16.5 45q0 26 -16.5 44.5t-41.5 18.5q-26 0 -42.5 -18.5t-16.5 -44.5q0 -27 16.5 -45t42.5 -18z" />
    <glyph glyph-name="AEacute" unicode="&#x1fc;" horiz-adv-x="854" 
d="M436 719l-9 15l124 99q18 15 31 15q11 0 19 -8.5t8 -20.5q0 -17 -29 -31zM-20 0v35h79l300 588h-80v35h505v-146h-39v111h-291v-269h233v-36h-233v-283h291v111h39v-146h-458v35h87v209h-207l-106 -209h77v-35h-197zM224 279h189v344h-14z" />
    <glyph glyph-name="aeacute" unicode="&#x1fd;" horiz-adv-x="750" 
d="M215 390q-59 0 -92 -31q10 -12 10 -27q0 -12 -8.5 -21t-21.5 -9q-15 0 -23.5 9.5t-8.5 24.5q0 32 40.5 59.5t106.5 27.5q82 0 121 -47q16 -20 22 -48q25 44 67.5 69.5t93.5 25.5q86 0 135.5 -57t49.5 -138q0 -12 -2 -24h-340q2 -87 49.5 -132.5t128.5 -45.5q71 0 145 48
l-4 -38q-64 -43 -146 -43q-120 0 -173 87q-80 -87 -180 -87q-64 0 -101.5 34t-37.5 85q0 56 43.5 90.5t111.5 34.5q73 0 133 -24v72q0 40 -22 67q-31 38 -97 38zM190 25q89 0 163 78q-16 39 -19 81q-68 22 -131 22q-58 0 -89 -26.5t-31 -65.5q0 -38 27.5 -63.5t79.5 -25.5z
M520 390q-61 0 -104 -43t-50 -111h303q-2 68 -41 111t-108 43zM336 503l-9 15l124 99q18 15 31 15q11 0 19 -8.5t8 -20.5q0 -17 -29 -31z" />
    <glyph glyph-name="Oslashacute" unicode="&#x1fe;" horiz-adv-x="775" 
d="M386 -11q-121 0 -210 76l-84 -98l-26 22l85 99q-93 98 -93 241t95 241.5t235 98.5q114 0 202 -70l80 93l26 -22l-81 -93q101 -98 101 -248q0 -143 -94.5 -241.5t-235.5 -98.5zM387 25q125 0 206 87.5t81 216.5q0 134 -84 221l-390 -457q77 -68 187 -68zM100 329
q0 -128 78 -214l388 456q-75 62 -179 62q-124 0 -205.5 -87.5t-81.5 -216.5zM354 719l-9 15l124 99q18 15 31 15q11 0 19 -8.5t8 -20.5q0 -17 -29 -31z" />
    <glyph glyph-name="oslashacute" unicode="&#x1ff;" horiz-adv-x="513" 
d="M256 -7q-71 0 -128 42l-50 -58l-25 21l51 59q-58 61 -58 151q0 91 59.5 153t150.5 62q72 0 128 -43l52 60l25 -21l-53 -61q58 -63 58 -150q0 -91 -59.5 -153t-150.5 -62zM85 208q0 -76 44 -126l233 272q-44 36 -106 36q-75 0 -123 -52t-48 -130zM256 26q75 0 123 51.5
t48 130.5q0 74 -43 125l-233 -272q45 -35 105 -35zM222 503l-9 15l124 99q18 15 31 15q11 0 19 -8.5t8 -20.5q0 -17 -29 -31z" />
    <glyph glyph-name="Scommaaccent" unicode="&#x218;" horiz-adv-x="529" 
d="M221 -243l-8 14q62 50 64 99q-16 2 -26 12t-10 25t10 24.5t24 9.5q17 0 28 -13t11 -36q0 -38 -24 -74t-69 -61zM264 -10q-88 0 -146 41t-58 88q0 21 10.5 33.5t26.5 12.5q14 0 24 -10t10 -24q0 -24 -22 -38q16 -28 58.5 -47.5t98.5 -19.5q74 0 118.5 38.5t44.5 100.5
q0 56 -40.5 88.5t-117.5 63.5q-45 18 -72.5 31.5t-57 35.5t-43.5 51.5t-14 67.5q0 72 53.5 118.5t137.5 46.5q74 0 128 -38t54 -84q0 -19 -10.5 -30.5t-25.5 -11.5q-14 0 -24.5 10t-10.5 25q0 20 19 36q-13 24 -51.5 40.5t-80.5 16.5q-65 0 -107 -36t-42 -90q0 -30 12 -53.5
t38 -41.5t49 -29.5t64 -27.5q43 -17 70.5 -31t55.5 -36t42 -51.5t14 -67.5q0 -80 -57.5 -129t-147.5 -49z" />
    <glyph glyph-name="scommaaccent" unicode="&#x219;" horiz-adv-x="412" 
d="M351 340q0 -14 -8.5 -23.5t-21.5 -9.5t-22 9t-9 22q0 15 10 26q-28 27 -95 27q-50 0 -80 -23t-30 -56q0 -23 18 -38.5t39 -23t65 -18.5q34 -9 55.5 -16.5t45.5 -21.5t35.5 -35t11.5 -50q0 -52 -44.5 -84t-112.5 -32q-45 0 -83.5 14t-60.5 36q-19 19 -19 43q0 14 8.5 24
t21.5 10q14 0 22.5 -8.5t8.5 -21.5q0 -17 -12 -26q10 -15 42 -27t71 -12q56 0 89 23t33 60t-30 55t-90 33q-76 18 -113 41.5t-37 73.5q0 48 41.5 80t105.5 32q86 0 126 -42q19 -19 19 -41zM153 -243l-8 14q62 50 64 99q-16 2 -26 12t-10 25t10 24.5t24 9.5q17 0 28 -13
t11 -36q0 -38 -24 -74t-69 -61z" />
    <glyph glyph-name="schwa" unicode="&#x259;" horiz-adv-x="471" 
d="M229 -7q-85 0 -134.5 57t-49.5 138q0 18 1 24h342q-3 85 -51 131.5t-128 46.5q-72 0 -145 -48l3 38q64 43 146 43q96 0 155 -59t59 -157q0 -89 -56.5 -151.5t-141.5 -62.5zM232 26q61 0 104.5 43t50.5 111h-305q2 -68 41.5 -111t108.5 -43z" />
    <glyph glyph-name="circumflex" unicode="&#x2c6;" horiz-adv-x="503" 
d="M133 497l-17 19l136 127l135 -127l-17 -19l-118 89z" />
    <glyph glyph-name="caron" unicode="&#x2c7;" horiz-adv-x="503" 
d="M370 645l17 -20l-135 -126l-136 126l17 20l119 -89z" />
    <glyph glyph-name="breve" unicode="&#x2d8;" horiz-adv-x="503" 
d="M252 503q-47 0 -84 30t-54 77l29 14q32 -78 109 -78q76 0 109 78l28 -14q-17 -47 -54 -77t-83 -30z" />
    <glyph glyph-name="dotaccent" unicode="&#x2d9;" horiz-adv-x="503" 
d="M252 517q-17 0 -28.5 12t-11.5 28q0 17 11.5 29t28.5 12q16 0 27.5 -12t11.5 -29q0 -16 -11.5 -28t-27.5 -12z" />
    <glyph glyph-name="ring" unicode="&#x2da;" horiz-adv-x="503" 
d="M252 494q-39 0 -65.5 27t-26.5 66q0 38 26.5 65.5t65.5 27.5q38 0 64.5 -27.5t26.5 -65.5q0 -39 -26.5 -66t-64.5 -27zM252 524q25 0 41.5 18t16.5 45q0 26 -16.5 44.5t-41.5 18.5q-26 0 -42.5 -18.5t-16.5 -44.5q0 -27 16.5 -45t42.5 -18z" />
    <glyph glyph-name="ogonek" unicode="&#x2db;" horiz-adv-x="506" 
d="M247 -201q-46 0 -71 23t-25 62q0 44 34.5 81.5t87.5 56.5l39 -9q-58 -19 -91.5 -52t-33.5 -71q0 -27 16.5 -43t46.5 -16q37 0 75 21l-2 -29q-31 -24 -76 -24z" />
    <glyph glyph-name="tilde" unicode="&#x2dc;" horiz-adv-x="503" 
d="M321 504q-35 0 -82 37q-34 27 -56 27q-36 0 -50 -59l-31 7q5 39 27 65.5t53 26.5q37 0 82 -37q34 -27 56 -27q36 0 50 58l31 -6q-5 -39 -27 -65.5t-53 -26.5z" />
    <glyph glyph-name="hungarumlaut" unicode="&#x2dd;" horiz-adv-x="503" 
d="M99 503l-9 14l122 103q18 16 31 16q11 0 18.5 -7.5t7.5 -19.5q0 -18 -28 -31zM268 508l-9 14l128 96q17 13 32 13q11 0 18 -7.5t7 -18.5q0 -20 -31 -32z" />
    <glyph glyph-name="commaaccent" unicode="&#x326;" horiz-adv-x="224" 
d="M59 -243l-8 14q62 50 64 99q-16 2 -26 12t-10 25t10 24.5t24 9.5q17 0 28 -13t11 -36q0 -38 -24 -74t-69 -61z" />
    <glyph glyph-name="Wgrave" unicode="&#x1e80;" horiz-adv-x="963" 
d="M287 -13l-191 636h-83v35h214v-35h-89l164 -563l170 508h24l170 -508l163 563h-91v35h214v-35h-83l-190 -636h-25l-171 504l-171 -504h-25zM514 718l-144 69q-29 14 -29 31q0 12 8 20.5t19 8.5q13 0 31 -15l124 -99z" />
    <glyph glyph-name="wgrave" unicode="&#x1e81;" horiz-adv-x="663" 
d="M184 -17l-118 400h-63v33h176v-32h-75l92 -328l129 310h15l129 -310l92 328h-77v32h177v-33h-65l-116 -400h-16l-132 319l-133 -319h-15zM364 502l-144 69q-29 14 -29 31q0 12 8 20.5t19 8.5q13 0 31 -15l124 -99z" />
    <glyph glyph-name="Wacute" unicode="&#x1e82;" horiz-adv-x="963" 
d="M448 718l-9 15l124 99q18 15 31 15q11 0 19 -8.5t8 -20.5q0 -17 -29 -31zM287 -13l-191 636h-83v35h214v-35h-89l164 -563l170 508h24l170 -508l163 563h-91v35h214v-35h-83l-190 -636h-25l-171 504l-171 -504h-25z" />
    <glyph glyph-name="wacute" unicode="&#x1e83;" horiz-adv-x="663" 
d="M298 502l-9 15l124 99q18 15 31 15q11 0 19 -8.5t8 -20.5q0 -17 -29 -31zM184 -17l-118 400h-63v33h176v-32h-75l92 -328l129 310h15l129 -310l92 328h-77v32h177v-33h-65l-116 -400h-16l-132 319l-133 -319h-15z" />
    <glyph glyph-name="Wdieresis" unicode="&#x1e84;" horiz-adv-x="963" 
d="M550 734q-16 0 -26.5 11.5t-10.5 26.5q0 17 10.5 28t26.5 11t26.5 -11t10.5 -28q0 -15 -11 -26.5t-26 -11.5zM413 734q-15 0 -26 11.5t-11 26.5q0 17 10.5 28t26.5 11t27 -11t11 -28q0 -15 -11 -26.5t-27 -11.5zM287 -13l-191 636h-83v35h214v-35h-89l164 -563l170 508
h24l170 -508l163 563h-91v35h214v-35h-83l-190 -636h-25l-171 504l-171 -504h-25z" />
    <glyph glyph-name="wdieresis" unicode="&#x1e85;" horiz-adv-x="663" 
d="M400 518q-16 0 -26.5 11.5t-10.5 26.5q0 17 10.5 28t26.5 11t26.5 -11t10.5 -28q0 -15 -11 -26.5t-26 -11.5zM263 518q-15 0 -26 11.5t-11 26.5q0 17 10.5 28t26.5 11t27 -11t11 -28q0 -15 -11 -26.5t-27 -11.5zM184 -17l-118 400h-63v33h176v-32h-75l92 -328l129 310h15
l129 -310l92 328h-77v32h177v-33h-65l-116 -400h-16l-132 319l-133 -319h-15z" />
    <glyph glyph-name="Ygrave" unicode="&#x1ef2;" horiz-adv-x="634" 
d="M195 0v35h101v240l-204 348h-75v35h204v-35h-82l179 -314l179 314h-83v35h203v-35h-76l-203 -348v-240h101v-35h-244zM349 719l-144 69q-29 14 -29 31q0 12 8 20.5t19 8.5q13 0 31 -15l124 -99z" />
    <glyph glyph-name="ygrave" unicode="&#x1ef3;" horiz-adv-x="484" 
d="M187 -128q-46 -72 -104 -72q-24 0 -40 11.5t-16 30.5q0 14 8.5 22.5t22.5 8.5q16 0 26 -12.5t8 -27.5q37 5 70 57q16 26 39 76l24 53l-161 364h-62v33h178v-33h-74l137 -325l140 325h-76v33h175v-33h-62l-195 -439q-17 -38 -38 -72zM276 503l-144 69q-29 14 -29 31
q0 12 8 20.5t19 8.5q13 0 31 -15l124 -99z" />
    <glyph glyph-name="enspace" unicode="&#x2002;" horiz-adv-x="500" 
 />
    <glyph glyph-name="emspace" unicode="&#x2003;" horiz-adv-x="1000" 
 />
    <glyph glyph-name="threeperemspace" unicode="&#x2004;" horiz-adv-x="333" 
 />
    <glyph glyph-name="fourperemspace" unicode="&#x2005;" horiz-adv-x="250" 
 />
    <glyph glyph-name="figurespace" unicode="&#x2007;" 
 />
    <glyph glyph-name="thinspace" unicode="&#x2009;" horiz-adv-x="133" 
 />
    <glyph glyph-name="hairspace" unicode="&#x200a;" horiz-adv-x="75" 
 />
    <glyph glyph-name="endash" unicode="&#x2013;" horiz-adv-x="408" 
d="M20 254v38h368v-38h-368z" />
    <glyph glyph-name="emdash" unicode="&#x2014;" horiz-adv-x="681" 
d="M20 254v38h640v-38h-640z" />
    <glyph glyph-name="quoteleft" unicode="&#x2018;" horiz-adv-x="172" 
d="M83 467q-19 0 -32 15.5t-13 41.5q0 44 28 88.5t78 72.5l10 -16q-70 -54 -72 -121q17 -2 29 -13.5t12 -27.5q0 -17 -11.5 -28.5t-28.5 -11.5z" />
    <glyph glyph-name="quoteright" unicode="&#x2019;" horiz-adv-x="172" 
d="M29 458l-10 16q70 54 72 121q-17 1 -29 13t-12 28t12 28t28 12q19 0 32 -15.5t13 -41.5q0 -44 -28 -88.5t-78 -72.5z" />
    <glyph glyph-name="quotesinglbase" unicode="&#x201a;" horiz-adv-x="167" 
d="M21 -126l-9 15q68 54 70 108q-17 2 -28 13t-11 27t11 27t26 11q19 0 31.5 -14.5t12.5 -39.5q0 -41 -26.5 -80t-76.5 -67z" />
    <glyph glyph-name="quotedblleft" unicode="&#x201c;" horiz-adv-x="321" 
d="M231 467q-19 0 -32 15.5t-13 41.5q0 44 28 88.5t78 72.5l10 -16q-71 -55 -71 -121q17 -2 28.5 -13.5t11.5 -27.5q0 -17 -11.5 -28.5t-28.5 -11.5zM83 467q-19 0 -32 15.5t-13 41.5q0 44 28 88.5t78 72.5l10 -16q-70 -54 -72 -121q17 -2 29 -13.5t12 -27.5
q0 -17 -11.5 -28.5t-28.5 -11.5z" />
    <glyph glyph-name="quotedblright" unicode="&#x201d;" horiz-adv-x="321" 
d="M178 458l-10 16q69 55 71 121q-17 1 -29 13t-12 28t12 28t28 12q19 0 32 -15.5t13 -41.5q0 -44 -27.5 -88.5t-77.5 -72.5zM29 458l-10 16q70 54 72 121q-17 1 -29 13t-12 28t12 28t28 12q19 0 32 -15.5t13 -41.5q0 -44 -28 -88.5t-78 -72.5z" />
    <glyph glyph-name="quotedblbase" unicode="&#x201e;" horiz-adv-x="314" 
d="M168 -126l-9 15q67 52 71 108q-17 1 -28.5 12.5t-11.5 27.5t11 27t27 11q19 0 31 -14.5t12 -39.5q0 -41 -26 -80.5t-77 -66.5zM21 -126l-9 15q68 54 70 108q-17 2 -28 13t-11 27t11 27t26 11q19 0 31.5 -14.5t12.5 -39.5q0 -41 -26.5 -80t-76.5 -67z" />
    <glyph glyph-name="dagger" unicode="&#x2020;" horiz-adv-x="418" 
d="M198 -2l-7 400l-103 11q1 -19 -9 -31.5t-26 -12.5t-25 10.5t-9 24.5q0 18 11.5 29.5t33.5 11.5q12 0 25 -3l110 -22l-17 166q-6 52 27 52t27 -52l-17 -166l110 22q13 3 26 3q21 0 32.5 -11.5t11.5 -29.5q0 -14 -9.5 -24.5t-25.5 -10.5q-15 0 -25.5 12.5t-9.5 31.5
l-102 -11l-8 -400h-21z" />
    <glyph glyph-name="daggerdbl" unicode="&#x2021;" horiz-adv-x="418" 
d="M209 -124q-33 0 -27 53l15 135l-96 -20q-18 -4 -26 -4q-20 0 -32.5 12t-12.5 30q0 13 9.5 23.5t25.5 10.5t26 -12.5t9 -30.5l90 10l10 172l-10 173l-90 10q1 -19 -9 -31t-26 -12t-25.5 10t-9.5 24q0 17 12.5 29t32.5 12q13 0 26 -3l96 -20l-15 135q-6 52 27 52
q34 0 26 -52l-15 -135l97 20q14 3 26 3q20 0 32.5 -12t12.5 -29q0 -14 -10 -24t-26 -10q-15 0 -25.5 12t-9.5 31l-89 -10l-10 -173l10 -172l89 -10q-1 18 9.5 30.5t25.5 12.5q16 0 26 -10.5t10 -23.5q0 -18 -12.5 -30t-32.5 -12q-8 0 -26 4l-97 20l15 -135q8 -53 -26 -53z
" />
    <glyph glyph-name="bullet" unicode="&#x2022;" horiz-adv-x="249" 
d="M125 188q-33 0 -56 23.5t-23 57.5t23 57.5t56 23.5t55.5 -23.5t22.5 -57.5t-22.5 -57.5t-55.5 -23.5z" />
    <glyph glyph-name="ellipsis" unicode="&#x2026;" horiz-adv-x="526" 
d="M433 -8q-17 0 -28.5 12t-11.5 30q0 17 11.5 29t28.5 12t29 -12t12 -29q0 -18 -12 -30t-29 -12zM263 -8q-17 0 -28.5 12t-11.5 30q0 17 11.5 29t28.5 12t28.5 -12t11.5 -29q0 -18 -11.5 -30t-28.5 -12zM92 -8q-17 0 -28.5 12t-11.5 30q0 17 11.5 29t28.5 12t29 -12t12 -29
q0 -18 -12 -30t-29 -12z" />
    <glyph glyph-name="perthousand" unicode="&#x2030;" horiz-adv-x="864" 
d="M443 -7q-47 0 -79 33.5t-32 81.5t32 81.5t79 33.5q46 0 78 -33.5t32 -81.5t-32 -81.5t-78 -33.5zM700 -7q-47 0 -79 33.5t-32 81.5t32 81.5t79 33.5q46 0 78 -33.5t32 -81.5t-32 -81.5t-78 -33.5zM164 277q-46 0 -78 33.5t-32 80.5q0 48 32 81.5t78 33.5q47 0 79 -33.5
t32 -81.5q0 -47 -32 -80.5t-79 -33.5zM164 307q34 0 55.5 24.5t21.5 59.5q0 36 -21.5 61t-55.5 25q-33 0 -54.5 -25t-21.5 -61q0 -35 21.5 -59.5t54.5 -24.5zM443 23q33 0 54.5 25t21.5 60t-21.5 60t-54.5 25q-34 0 -55.5 -25t-21.5 -60t21.5 -60t55.5 -25zM700 23
q33 0 54.5 25t21.5 60t-21.5 60t-54.5 25t-55 -25t-22 -60t22 -60t55 -25zM119 -21l-26 19l193 251l193 253l26 -18l-194 -253q-184 -239 -192 -252z" />
    <glyph glyph-name="guilsinglleft" unicode="&#x2039;" horiz-adv-x="264" 
d="M195 112l-164 157l164 156l23 -22l-138 -134l138 -134z" />
    <glyph glyph-name="guilsinglright" unicode="&#x203a;" horiz-adv-x="264" 
d="M69 112l-23 23l138 134l-138 134l23 22l164 -156z" />
    <glyph glyph-name="fraction" unicode="&#x2044;" horiz-adv-x="488" 
d="M62 -11l-25 14l196 323l68.5 111.5l85.5 141t42 68.5l24 -14l-196 -323z" />
    <glyph glyph-name="zero.sup" unicode="&#x2070;" horiz-adv-x="353" 
d="M176 425q-59 0 -97 51.5t-38 134.5q0 84 38.5 136t97.5 52t97 -51.5t38 -134.5q0 -84 -38.5 -136t-97.5 -52zM176 454q45 0 74 43.5t29 113.5q0 71 -28.5 114.5t-73.5 43.5t-74 -43.5t-29 -113.5q0 -71 28.5 -114.5t73.5 -43.5z" />
    <glyph glyph-name="four.sup" unicode="&#x2074;" horiz-adv-x="353" 
d="M151 431v27h68v81h-177l-6 13l194 248l24 -18l-173 -217h138v90l30 13v-103h65v-26h-65v-81h53v-27h-151z" />
    <glyph glyph-name="five.sup" unicode="&#x2075;" horiz-adv-x="353" 
d="M167 424q-48 0 -81.5 20t-33.5 46q0 11 7.5 19t17.5 8q24 0 24 -23q0 -12 -8 -16q17 -25 73 -25q47 0 74.5 25.5t27.5 66.5q0 36 -26 59t-71 23q-46 0 -86 -20l-15 8l19 178h189v-31h-162l-13 -119q37 13 70 13q58 0 93 -30t35 -81q0 -54 -38.5 -87.5t-95.5 -33.5z" />
    <glyph glyph-name="six.sup" unicode="&#x2076;" horiz-adv-x="353" 
d="M288 740q0 -27 -24 -27t-24 23q0 10 7 17q-12 19 -50 19q-51 0 -84.5 -48.5t-33.5 -131.5v-2q8 16 21 29q34 34 87 34q54 0 87.5 -32t33.5 -81t-35.5 -82.5t-90.5 -33.5q-57 0 -95 38t-38 124q0 105 43 159.5t106 54.5q48 0 75 -27q15 -15 15 -33zM182 453q41 0 67.5 25
t26.5 62t-25.5 61.5t-66.5 24.5q-42 0 -69.5 -25t-27.5 -61q0 -38 24 -60q25 -27 71 -27z" />
    <glyph glyph-name="seven.sup" unicode="&#x2077;" horiz-adv-x="353" 
d="M113 431l157 335h-181v-63h-30v90h243l6 -14l-161 -348h-34z" />
    <glyph glyph-name="eight.sup" unicode="&#x2078;" horiz-adv-x="353" 
d="M176 425q-56 0 -91.5 28t-35.5 71q0 34 25 61t63 34q-36 9 -57.5 33t-21.5 54q0 41 34 66.5t84 25.5q51 0 85.5 -25.5t34.5 -66.5q0 -30 -22 -54t-59 -33q38 -8 63.5 -34.5t25.5 -60.5q0 -44 -36 -71.5t-92 -27.5zM176 631q36 0 61.5 20t25.5 50q0 31 -25 50t-62 19
t-61.5 -19t-24.5 -50q0 -30 25 -50t61 -20zM176 454q42 0 69 20.5t27 54.5q0 31 -28 53.5t-68 22.5t-67 -22t-27 -54q0 -33 26.5 -54t67.5 -21z" />
    <glyph glyph-name="nine.sup" unicode="&#x2079;" horiz-adv-x="353" 
d="M65 484q0 27 24 27t24 -23q0 -11 -7 -18q13 -18 50 -18q51 0 84.5 48.5t33.5 131.5v2q-7 -15 -21 -29q-34 -34 -87 -34q-54 0 -87.5 32t-33.5 81t35.5 82.5t90.5 33.5q57 0 95 -38t38 -124q0 -105 -43 -159.5t-106 -54.5q-48 0 -75 27q-15 15 -15 33zM171 771
q-41 0 -67.5 -25t-26.5 -62t25.5 -61.5t66.5 -24.5q42 0 69.5 25t27.5 61q0 38 -24 60q-25 27 -71 27z" />
    <glyph glyph-name="zero.inf" unicode="&#x2080;" horiz-adv-x="353" 
d="M176 -145q-59 0 -97 51.5t-38 134.5q0 84 38.5 136t97.5 52t97 -51.5t38 -134.5q0 -84 -38.5 -136t-97.5 -52zM176 -116q45 0 74 43.5t29 113.5q0 71 -28.5 114.5t-73.5 43.5t-74 -43.5t-29 -113.5q0 -71 28.5 -114.5t73.5 -43.5z" />
    <glyph glyph-name="one.inf" unicode="&#x2081;" horiz-adv-x="353" 
d="M69 -139v29h100v300l-97 -24l-7 29l120 30h16v-335h98v-29h-230z" />
    <glyph glyph-name="two.inf" unicode="&#x2082;" horiz-adv-x="353" 
d="M61 -139l-9 15q27 87 127 153q43 29 62.5 51t19.5 52t-23.5 50t-58.5 20q-34 0 -56.5 -14t-26.5 -29q17 -7 17 -23q0 -10 -7 -17.5t-17 -7.5q-27 0 -27 33q0 32 33 59t85 27q49 0 82 -28t33 -70q0 -39 -23 -65t-74 -59q-87 -57 -108 -120h181v63h30v-90h-240z" />
    <glyph glyph-name="three.inf" unicode="&#x2083;" horiz-adv-x="353" 
d="M174 -145q-48 0 -86 22.5t-38 54.5q0 13 7.5 21.5t18.5 8.5q10 0 16.5 -7t6.5 -17q0 -14 -12 -21q6 -12 31.5 -23.5t55.5 -11.5q42 0 69 22t27 53q0 35 -30 56t-83 22h-21v28h22q44 0 73.5 21t29.5 53q0 29 -23.5 46.5t-61.5 17.5q-30 0 -50.5 -9.5t-27.5 -22.5
q12 -6 12 -20q0 -10 -6.5 -17t-16.5 -7t-18 8t-8 22q0 27 32.5 50.5t83.5 23.5t84 -26t33 -65q0 -32 -26.5 -57t-64.5 -31q43 -6 71.5 -32t28.5 -61q0 -44 -36.5 -73t-92.5 -29z" />
    <glyph glyph-name="four.inf" unicode="&#x2084;" horiz-adv-x="353" 
d="M151 -139v27h68v81h-177l-6 13l194 248l24 -18l-173 -217h138v90l30 13v-103h65v-26h-65v-81h53v-27h-151z" />
    <glyph glyph-name="five.inf" unicode="&#x2085;" horiz-adv-x="353" 
d="M167 -146q-48 0 -81.5 20t-33.5 46q0 11 7.5 19t17.5 8q24 0 24 -23q0 -12 -8 -16q17 -25 73 -25q47 0 74.5 25.5t27.5 66.5q0 36 -26 59t-71 23q-46 0 -86 -20l-15 8l19 178h189v-31h-162l-13 -119q37 13 70 13q58 0 93 -30t35 -81q0 -54 -38.5 -87.5t-95.5 -33.5z" />
    <glyph glyph-name="six.inf" unicode="&#x2086;" horiz-adv-x="353" 
d="M288 170q0 -27 -24 -27t-24 23q0 10 7 17q-12 19 -50 19q-51 0 -84.5 -48.5t-33.5 -131.5v-2q8 16 21 29q34 34 87 34q54 0 87.5 -32t33.5 -81t-35.5 -82.5t-90.5 -33.5q-57 0 -95 38t-38 124q0 105 43 159.5t106 54.5q48 0 75 -27q15 -15 15 -33zM182 -117q41 0 67.5 25
t26.5 62t-25.5 61.5t-66.5 24.5q-42 0 -69.5 -25t-27.5 -61q0 -38 24 -60q25 -27 71 -27z" />
    <glyph glyph-name="seven.inf" unicode="&#x2087;" horiz-adv-x="353" 
d="M113 -139l157 335h-181v-63h-30v90h243l6 -14l-161 -348h-34z" />
    <glyph glyph-name="eight.inf" unicode="&#x2088;" horiz-adv-x="353" 
d="M176 -145q-56 0 -91.5 28t-35.5 71q0 34 25 61t63 34q-36 9 -57.5 33t-21.5 54q0 41 34 66.5t84 25.5q51 0 85.5 -25.5t34.5 -66.5q0 -30 -22 -54t-59 -33q38 -8 63.5 -34.5t25.5 -60.5q0 -44 -36 -71.5t-92 -27.5zM176 61q36 0 61.5 20t25.5 50q0 31 -25 50t-62 19
t-61.5 -19t-24.5 -50q0 -30 25 -50t61 -20zM176 -116q42 0 69 20.5t27 54.5q0 31 -28 53.5t-68 22.5t-67 -22t-27 -54q0 -33 26.5 -54t67.5 -21z" />
    <glyph glyph-name="nine.inf" unicode="&#x2089;" horiz-adv-x="353" 
d="M65 -86q0 27 24 27t24 -23q0 -11 -7 -18q13 -18 50 -18q51 0 84.5 48.5t33.5 131.5v2q-7 -15 -21 -29q-34 -34 -87 -34q-54 0 -87.5 32t-33.5 81t35.5 82.5t90.5 33.5q57 0 95 -38t38 -124q0 -105 -43 -159.5t-106 -54.5q-48 0 -75 27q-15 15 -15 33zM171 201
q-41 0 -67.5 -25t-26.5 -62t25.5 -61.5t66.5 -24.5q42 0 69.5 25t27.5 61q0 38 -24 60q-25 27 -71 27z" />
    <glyph glyph-name="Euro" unicode="&#x20ac;" horiz-adv-x="553" 
d="M33 293v31h67q23 82 86.5 131.5t143.5 49.5q73 0 126 -38t53 -85q0 -17 -10 -28.5t-26 -11.5q-12 0 -20.5 8.5t-8.5 20.5q0 23 22 30q-9 26 -46 48.5t-90 22.5q-66 0 -118 -41t-73 -107h209v-31h-217q-4 -21 -4 -48q0 -25 4 -44h217v-31h-210q21 -65 73 -105t122 -40
q86 0 155 63l22 -27q-75 -70 -177 -70q-87 0 -149.5 50t-84.5 129h-66v31h59q-3 21 -3 43q0 28 4 49h-60z" />
    <glyph glyph-name="published" unicode="&#x2117;" horiz-adv-x="589" 
d="M294 -9q-108 0 -180 75t-72 184t72 184.5t180 75.5t180 -75.5t72 -183.5q0 -109 -72 -184.5t-180 -75.5zM294 15q97 0 161 69t64 167t-64 166.5t-161 68.5q-96 0 -160.5 -69t-64.5 -167q0 -97 64.5 -166t160.5 -69zM312 211q-8 0 -21.5 0.5t-17.5 0.5v-74h37v-23h-99v23
h36v218h-36v23h101q43 0 70 -22.5t27 -59.5q0 -40 -26 -63t-71 -23zM313 234q32 0 51 16.5t19 45.5q0 28 -20 44t-51 16h-39v-121q3 0 17 -0.5t23 -0.5z" />
    <glyph glyph-name="servicemark" unicode="&#x2120;" horiz-adv-x="542" 
d="M216 413v24h37l9 197h-38v24h69l79 -173l79 173h68v-24h-38l8 -197h39v-24h-96v24h33l-7 183l-81 -176h-12l-82 176l-5 -183h33v-24h-95zM98 408q-35 0 -59.5 16t-24.5 36q0 10 5.5 16.5t13.5 6.5q9 0 14 -5.5t5 -12.5q0 -6 -6 -16q16 -18 53 -18q25 0 40.5 12.5
t15.5 32.5q0 18 -14 28.5t-41 20.5q-38 13 -57 29t-19 44q0 27 22 45.5t56 18.5q31 0 53 -14.5t22 -34.5q0 -21 -19 -21q-9 0 -14.5 5.5t-5.5 13.5q0 4 7 13q-13 15 -43 15q-24 0 -38 -11t-14 -29t14.5 -29t43.5 -22q37 -12 55 -27t18 -43q0 -31 -23.5 -50.5t-59.5 -19.5z
" />
    <glyph glyph-name="trademark" unicode="&#x2122;" horiz-adv-x="585" 
d="M258 413v24h37l9 197h-37v24h69l78 -173l79 173h68v-24h-38l9 -197h38v-24h-95v24h33l-7 183l-81 -176h-12l-82 176l-6 -183h33v-24h-95zM68 413v24h40v199h-72v-43h-24v65h218v-65h-26v43h-70v-199h38v-24h-104z" />
    <glyph glyph-name="onethird" unicode="&#x2153;" horiz-adv-x="795" 
d="M618 -7q-48 0 -86 22.5t-38 54.5q0 13 7.5 21.5t18.5 8.5q10 0 16.5 -7t6.5 -17q0 -14 -12 -21q6 -12 31.5 -23.5t55.5 -11.5q42 0 69 22t27 53q0 35 -30 56t-83 22h-21v28h22q44 0 73.5 21t29.5 53q0 29 -23.5 46.5t-61.5 17.5q-30 0 -50.5 -9.5t-27.5 -22.5
q12 -6 12 -20q0 -10 -6.5 -17t-16.5 -7t-18 8t-8 22q0 27 32.5 50.5t83.5 23.5t84 -26t33 -65q0 -32 -26.5 -57t-64.5 -31q43 -6 71.5 -32t28.5 -61q0 -44 -36.5 -73t-92.5 -29zM221 -11l-25 14l196 323l68.5 111.5l85.5 141t42 68.5l24 -14l-196 -323zM59 281v29h100v300
l-97 -24l-7 29l120 30h16v-335h98v-29h-230z" />
    <glyph glyph-name="twothirds" unicode="&#x2154;" horiz-adv-x="795" 
d="M60 281l-9 15q27 87 127 153q43 29 62.5 51t19.5 52t-23.5 50t-58.5 20q-34 0 -56.5 -14t-26.5 -29q17 -7 17 -23q0 -10 -7 -17.5t-17 -7.5q-27 0 -27 33q0 32 33 59t85 27q49 0 82 -28t33 -70q0 -39 -23 -65t-74 -59q-87 -57 -108 -120h181v63h30v-90h-240zM621 -7
q-48 0 -86 22.5t-38 54.5q0 13 7.5 21.5t18.5 8.5q10 0 16.5 -7t6.5 -17q0 -14 -12 -21q6 -12 31.5 -23.5t55.5 -11.5q42 0 69 22t27 53q0 35 -30 56t-83 22h-21v28h22q44 0 73.5 21t29.5 53q0 29 -24 46.5t-61 17.5q-30 0 -50.5 -9.5t-27.5 -22.5q12 -6 12 -20
q0 -10 -6.5 -17t-16.5 -7t-18 8t-8 22q0 27 32.5 50.5t83.5 23.5t84 -26t33 -65q0 -32 -26.5 -57t-64.5 -31q43 -6 71.5 -32t28.5 -61q0 -44 -36.5 -73t-92.5 -29zM234 -11l-25 14l196 323l68.5 111.5l85.5 141t42 68.5l24 -14l-196 -323z" />
    <glyph glyph-name="onefifth" unicode="&#x2155;" horiz-adv-x="795" 
d="M620 -8q-48 0 -81.5 20t-33.5 46q0 11 7.5 19t17.5 8q24 0 24 -23q0 -12 -8 -16q17 -25 73 -25q47 0 74.5 25.5t27.5 66.5q0 36 -26 59t-71 23q-46 0 -86 -20l-15 8l19 178h189v-31h-162l-13 -119q37 13 70 13q58 0 93 -30t35 -81q0 -54 -38.5 -87.5t-95.5 -33.5z
M223 -11l-25 14l196 323l68.5 111.5l85.5 141t42 68.5l24 -14l-196 -323zM58 281v29h100v300l-97 -24l-7 29l120 30h16v-335h98v-29h-230z" />
    <glyph glyph-name="twofifths" unicode="&#x2156;" horiz-adv-x="795" 
d="M63 281l-9 15q27 87 127 153q43 29 62.5 51t19.5 52t-23.5 50t-58.5 20q-34 0 -56.5 -14t-26.5 -29q17 -7 17 -23q0 -10 -7 -17.5t-17 -7.5q-27 0 -27 33q0 32 33 59t85 27q49 0 82 -28t33 -70q0 -39 -23 -65t-74 -59q-87 -57 -108 -120h181v63h30v-90h-240zM626 -8
q-48 0 -81.5 20t-33.5 46q0 11 7.5 19t17.5 8q24 0 24 -23q0 -12 -8 -16q17 -25 73 -25q47 0 74.5 25.5t27.5 66.5q0 36 -26 59t-71 23q-46 0 -86 -20l-15 8l19 178h189v-31h-162l-13 -119q37 13 70 13q58 0 93 -30t35 -81q0 -54 -38.5 -87.5t-95.5 -33.5zM239 -11l-25 14
l196 323l68.5 111.5l85.5 141t42 68.5l24 -14l-196 -323z" />
    <glyph glyph-name="threefifths" unicode="&#x2157;" horiz-adv-x="795" 
d="M620 -8q-48 0 -81.5 20t-33.5 46q0 11 7.5 19t17.5 8q24 0 24 -23q0 -12 -8 -16q17 -25 73 -25q47 0 74.5 25.5t27.5 66.5q0 36 -26 59t-71 23q-46 0 -86 -20l-15 8l19 178h189v-31h-162l-13 -119q37 13 70 13q58 0 93 -30t35 -81q0 -54 -38.5 -87.5t-95.5 -33.5z
M178 275q-48 0 -86 22.5t-38 54.5q0 13 7.5 21.5t18.5 8.5q10 0 16.5 -7t6.5 -17q0 -14 -12 -21q6 -12 31.5 -23.5t55.5 -11.5q42 0 69 22t27 53q0 35 -30 56t-83 22h-21v28h22q44 0 73.5 21t29.5 53q0 29 -23.5 46.5t-61.5 17.5q-30 0 -50.5 -9.5t-27.5 -22.5q12 -6 12 -20
q0 -10 -6.5 -17t-16.5 -7t-18 8t-8 22q0 27 32.5 50.5t83.5 23.5t84 -26t33 -65q0 -32 -26.5 -57t-64.5 -31q43 -6 71.5 -32t28.5 -61q0 -44 -36.5 -73t-92.5 -29zM219 -11l-25 14l196 323l68.5 111.5l85.5 141t42 68.5l24 -14l-196 -323z" />
    <glyph glyph-name="fourfifths" unicode="&#x2158;" horiz-adv-x="795" 
d="M621 -8q-48 0 -81.5 20t-33.5 46q0 11 7.5 19t17.5 8q24 0 24 -23q0 -12 -8 -16q17 -25 73 -25q47 0 74.5 25.5t27.5 66.5q0 36 -26 59t-71 23q-46 0 -86 -20l-15 8l19 178h189v-31h-162l-13 -119q37 13 70 13q58 0 93 -30t35 -81q0 -54 -38.5 -87.5t-95.5 -33.5z
M154 281v27h68v81h-177l-6 13l194 248l24 -18l-173 -217h138v90l30 13v-103h65v-26h-65v-81h53v-27h-151zM238 -11l-25 14l196 323l68.5 111.5l85.5 141t42 68.5l24 -14l-196 -323z" />
    <glyph glyph-name="onesixth" unicode="&#x2159;" horiz-adv-x="795" 
d="M726 308q0 -27 -24 -27t-24 23q0 10 7 17q-12 19 -50 19q-51 0 -84.5 -48.5t-33.5 -131.5v-2q8 16 21 29q34 34 87 34q54 0 87.5 -32t33.5 -81t-35.5 -82.5t-90.5 -33.5q-57 0 -95 38t-38 124q0 105 43 159.5t106 54.5q48 0 75 -27q15 -15 15 -33zM620 21q41 0 67.5 25
t26.5 62t-25.5 61.5t-66.5 24.5q-42 0 -69.5 -25t-27.5 -61q0 -38 24 -60q25 -27 71 -27zM218 -11l-25 14l196 323l68.5 111.5l85.5 141t42 68.5l24 -14l-196 -323zM54 281v29h100v300l-97 -24l-7 29l120 30h16v-335h98v-29h-230z" />
    <glyph glyph-name="fivesixths" unicode="&#x215a;" horiz-adv-x="795" 
d="M727 308q0 -27 -24 -27t-24 23q0 10 7 17q-12 19 -50 19q-51 0 -84.5 -48.5t-33.5 -131.5v-2q8 16 21 29q34 34 87 34q54 0 87.5 -32t33.5 -81t-35.5 -82.5t-90.5 -33.5q-57 0 -95 38t-38 124q0 105 43 159.5t106 54.5q48 0 75 -27q15 -15 15 -33zM170 274
q-48 0 -81.5 20t-33.5 46q0 11 7.5 19t17.5 8q24 0 24 -23q0 -12 -8 -16q17 -25 73 -25q47 0 74.5 25.5t27.5 66.5q0 36 -26 59t-71 23q-46 0 -86 -20l-15 8l19 178h189v-31h-162l-13 -119q37 13 70 13q58 0 93 -30t35 -81q0 -54 -38.5 -87.5t-95.5 -33.5zM621 21
q41 0 67.5 25t26.5 62t-25.5 61.5t-66.5 24.5q-42 0 -69.5 -25t-27.5 -61q0 -38 24 -60q26 -27 71 -27zM220 -11l-25 14l196 323l68.5 111.5l85.5 141t42 68.5l24 -14l-196 -323z" />
    <glyph glyph-name="oneeighth" unicode="&#x215b;" horiz-adv-x="795" 
d="M622 -7q-56 0 -91.5 28t-35.5 71q0 34 25 61t63 34q-36 9 -57.5 33t-21.5 54q0 41 34 66.5t84 25.5q51 0 85.5 -25.5t34.5 -66.5q0 -30 -22 -54t-59 -33q38 -8 63.5 -34.5t25.5 -60.5q0 -44 -36 -71.5t-92 -27.5zM622 22q42 0 69 20.5t27 54.5q0 31 -28 53.5t-68 22.5
t-67 -22t-27 -54q0 -33 26.5 -54t67.5 -21zM215 -11l-25 14l196 323l68.5 111.5l85.5 141t42 68.5l24 -14l-196 -323zM57 281v29h100v300l-97 -24l-7 29l120 30h16v-335h98v-29h-230zM622 199q36 0 61.5 20t25.5 50q0 31 -25 50t-62 19t-61.5 -19t-24.5 -50q0 -30 25 -50
t61 -20z" />
    <glyph glyph-name="threeeighths" unicode="&#x215c;" horiz-adv-x="795" 
d="M624 -7q-56 0 -91.5 28t-35.5 71q0 34 25 61t63 34q-36 9 -57.5 33t-21.5 54q0 41 34 66.5t84 25.5q51 0 85.5 -25.5t34.5 -66.5q0 -30 -22 -54t-59 -33q38 -8 63.5 -34.5t25.5 -60.5q0 -44 -36 -71.5t-92 -27.5zM177 275q-48 0 -86 22.5t-38 54.5q0 13 7.5 21.5
t18.5 8.5q10 0 16.5 -7t6.5 -17q0 -14 -12 -21q6 -12 31.5 -23.5t55.5 -11.5q42 0 69 22t27 53q0 35 -30 56t-83 22h-21v28h22q44 0 73.5 21t29.5 53q0 29 -24 46.5t-61 17.5q-30 0 -50.5 -9.5t-27.5 -22.5q12 -6 12 -20q0 -10 -6.5 -17t-16.5 -7t-18 8t-8 22
q0 27 32.5 50.5t83.5 23.5t84 -26t33 -65q0 -32 -26.5 -57t-64.5 -31q43 -6 71.5 -32t28.5 -61q0 -44 -36.5 -73t-92.5 -29zM624 22q42 0 69 20.5t27 54.5q0 31 -28 53.5t-68 22.5t-67 -22t-27 -54q0 -33 26.5 -54t67.5 -21zM215 -11l-25 14l196 323l68.5 111.5l85.5 141
t42 68.5l24 -14l-196 -323zM624 199q36 0 61.5 20t25.5 50q0 31 -25 50t-62 19t-61.5 -19t-24.5 -50q0 -30 25 -50t61 -20z" />
    <glyph glyph-name="fiveeighths" unicode="&#x215d;" horiz-adv-x="795" 
d="M616 -7q-56 0 -91.5 28t-35.5 71q0 34 25 61t63 34q-36 9 -57.5 33t-21.5 54q0 41 34 66.5t84 25.5q51 0 85.5 -25.5t34.5 -66.5q0 -30 -22 -54t-59 -33q38 -8 63.5 -34.5t25.5 -60.5q0 -44 -36 -71.5t-92 -27.5zM165 274q-48 0 -81.5 20t-33.5 46q0 11 7.5 19t17.5 8
q24 0 24 -23q0 -12 -8 -16q17 -25 73 -25q47 0 74.5 25.5t27.5 66.5q0 36 -26 59t-71 23q-46 0 -86 -20l-15 8l19 178h189v-31h-162l-13 -119q37 13 70 13q58 0 93 -30t35 -81q0 -54 -38.5 -87.5t-95.5 -33.5zM616 22q42 0 69 20.5t27 54.5q0 31 -28 53.5t-68 22.5t-67 -22
t-27 -54q0 -33 26.5 -54t67.5 -21zM207 -11l-25 14l196 323l68.5 111.5l85.5 141t42 68.5l24 -14l-196 -323zM616 199q36 0 61.5 20t25.5 50q0 31 -25 50t-62 19t-61.5 -19t-24.5 -50q0 -30 25 -50t61 -20z" />
    <glyph glyph-name="seveneighths" unicode="&#x215e;" horiz-adv-x="795" 
d="M599 -7q-56 0 -91.5 28t-35.5 71q0 34 25 61t63 34q-36 9 -57.5 33t-21.5 54q0 41 34 66.5t84 25.5q51 0 85.5 -25.5t34.5 -66.5q0 -30 -22 -54t-59 -33q38 -8 63.5 -34.5t25.5 -60.5q0 -44 -36 -71.5t-92 -27.5zM599 22q42 0 69 20.5t27 54.5q0 31 -28 53.5t-68 22.5
t-67 -22t-27 -54q0 -33 26.5 -54t67.5 -21zM173 -11l-25 14l196 323l68.5 111.5l85.5 141t42 68.5l24 -14l-196 -323zM126 281l157 335h-181v-63h-30v90h243l6 -14l-161 -348h-34zM599 199q36 0 61.5 20t25.5 50q0 31 -25 50t-62 19t-61.5 -19t-24.5 -50q0 -30 25 -50
t61 -20z" />
    <glyph glyph-name="minus" unicode="&#x2212;" horiz-adv-x="390" 
d="M42 246v35h306v-35h-306z" />
    <glyph glyph-name="Q.alt" horiz-adv-x="775" 
d="M589 -102l-74 116q-61 -25 -129 -25q-140 0 -234 98.5t-94 241.5t95 241.5t235 98.5t234 -98.5t94 -241.5q0 -96 -45.5 -175.5t-122.5 -123.5l72 -114zM387 25q57 0 108 20l-84 134l32 19l85 -137q68 39 107 109.5t39 158.5q0 128 -81 216t-206 88q-124 0 -205.5 -87.5
t-81.5 -216.5q0 -128 81.5 -216t205.5 -88z" />
    <glyph glyph-name="a.sc" horiz-adv-x="577" 
d="M166 499h245v-33h-86l167 -433h74v-33h-204v33h91l-56 145h-220l-55 -145h92v-33h-204v33h75l166 433h-85v33zM287 469l-98 -258h196z" />
    <glyph glyph-name="b.sc" horiz-adv-x="514" 
d="M170 33h117q63 0 98.5 28t35.5 75q0 51 -37.5 77t-106.5 26h-107v-206zM170 271h108q64 0 96.5 27.5t32.5 72.5q0 43 -33 69t-95 26h-109v-195zM285 0h-247v33h95v433h-95v33h242q83 0 124 -35.5t41 -89.5q0 -46 -28 -77t-77 -41q56 -10 87.5 -40.5t31.5 -80.5
q0 -62 -46 -98.5t-128 -36.5z" />
    <glyph glyph-name="c.sc" horiz-adv-x="547" 
d="M469 96l21 -26q-76 -78 -188 -78q-111 0 -182 73.5t-71 184.5q0 108 72 183t182 75q75 0 129.5 -38.5t54.5 -84.5q0 -20 -9.5 -32t-25.5 -12q-14 0 -22.5 8.5t-8.5 22.5q0 23 22 31q-9 27 -48 49t-92 22q-92 0 -153.5 -64.5t-61.5 -159.5q0 -97 60.5 -160.5t153.5 -63.5
q95 0 167 70z" />
    <glyph glyph-name="d.sc" horiz-adv-x="592" 
d="M170 33h90q117 0 181 60.5t64 161.5q0 98 -68 154.5t-181 56.5h-86v-433zM256 0h-218v33h95v433h-95v33h218q131 0 209 -66t78 -178q0 -115 -76.5 -185t-210.5 -70z" />
    <glyph glyph-name="e.sc" horiz-adv-x="494" 
d="M434 0h-396v33h95v433h-95v33h396v-131h-35v98h-229v-196h182v-34h-182v-203h229v97h35v-130z" />
    <glyph glyph-name="f.sc" horiz-adv-x="473" 
d="M270 0h-232v33h95v433h-95v33h394v-131h-35v98h-227v-202h176v-33h-176v-198h100v-33z" />
    <glyph glyph-name="g.sc" horiz-adv-x="580" 
d="M306 474q-95 0 -156.5 -65.5t-61.5 -161.5t61 -158t150 -62q96 0 169 59v119h-149v32h186v-237h-36v52q-72 -59 -173 -59q-102 0 -174.5 70.5t-72.5 183.5q0 112 75.5 186.5t182.5 74.5q82 0 136.5 -37t54.5 -79q0 -19 -10 -31t-25 -12q-14 0 -22.5 8.5t-8.5 21.5
q0 21 21 30q-13 25 -53.5 45t-93.5 20z" />
    <glyph glyph-name="h.sc" horiz-adv-x="655" 
d="M38 0v33h94v433h-94v33h228v-33h-96v-197h314v197h-96v33h228v-33h-94v-433h94v-33h-228v33h96v202h-314v-202h96v-33h-228z" />
    <glyph glyph-name="i.sc" horiz-adv-x="308" 
d="M270 0h-232v33h97v433h-97v33h232v-33h-97v-433h97v-33z" />
    <glyph glyph-name="j.sc" horiz-adv-x="433" 
d="M173 27q48 0 78 31q36 39 36 121v287h-98v33h222v-33h-87v-288q0 -99 -46 -145q-41 -41 -106 -41q-59 0 -100.5 36t-41.5 88q0 22 10 35t27 13q12 0 21 -8.5t9 -22.5q0 -27 -27 -33q2 -27 30.5 -50t72.5 -23z" />
    <glyph glyph-name="k.sc" horiz-adv-x="561" 
d="M471 466l-185 -187l174 -246h91v-33h-113l-178 253l-89 -89v-131h95v-33h-228v33h96v433h-96v33h224v-33h-91v-257l256 257h-91v33h206v-33h-71z" />
    <glyph glyph-name="l.sc" horiz-adv-x="462" 
d="M390 33v101h36v-134h-388v33h95v433h-95v33h231v-33h-99v-433h220z" />
    <glyph glyph-name="m.sc" horiz-adv-x="721" 
d="M541 499h130v-33h-91l20 -433h88v-33h-220v33h94l-15 403l-179 -366h-15l-180 366l-15 -403h95v-33h-220v33h90l18 433h-91v33h130l181 -370z" />
    <glyph glyph-name="n.sc" horiz-adv-x="644" 
d="M166 499l321 -424v391h-97v33h227v-33h-95v-469h-22l-332 440v-404h97v-33h-227v33h95v433h-95v33h128z" />
    <glyph glyph-name="o.sc" horiz-adv-x="605" 
d="M302 508q111 0 182 -74t71 -184t-71 -184t-182 -74t-182 74t-71 184t71 184t182 74zM302 26q94 0 154.5 63.5t60.5 160.5t-60.5 160.5t-154.5 63.5q-93 0 -153.5 -63.5t-60.5 -160.5t60.5 -160.5t153.5 -63.5z" />
    <glyph glyph-name="p.sc" horiz-adv-x="476" 
d="M38 499h218q80 0 131 -42t51 -111q0 -73 -48.5 -115t-134.5 -42q-62 0 -85 1v-157h97v-33h-229v33h95v433h-95v33zM258 221q67 0 104.5 34t37.5 91q0 54 -40 87t-104 33h-86v-243q48 -2 88 -2z" />
    <glyph glyph-name="q.sc" horiz-adv-x="605" 
d="M510 -104q-30 0 -56 10.5t-61 34t-42 27.5q-29 16 -82 26q-84 14 -138 62q-82 71 -82 194q0 110 71 184t182 74t182 -74t71 -184q0 -97 -57.5 -166t-149.5 -82q24 -7 51 -23q5 -3 19 -12t19 -11.5t16.5 -9t18.5 -8.5t17 -4t20 -2q31 0 61 19l17 -32q-32 -23 -77 -23z
M302 26q93 0 154 64.5t61 159.5q0 97 -60.5 160.5t-154.5 63.5q-93 0 -153.5 -63.5t-60.5 -160.5q0 -105 70 -169q58 -55 144 -55z" />
    <glyph glyph-name="q.sc_alt" horiz-adv-x="605" 
d="M555 250q0 -74 -34 -134.5t-94 -92.5l55 -88l-29 -18l-57 91q-46 -16 -94 -16q-111 0 -182 74t-71 184t71 184t182 74t182 -74t71 -184zM517 250q0 97 -60.5 160.5t-154.5 63.5q-93 0 -153.5 -63.5t-60.5 -160.5t60.5 -160.5t153.5 -63.5q40 0 75 12l-62 99l29 20
l65 -105q50 28 79 80.5t29 117.5z" />
    <glyph glyph-name="r.sc" horiz-adv-x="521" 
d="M257 466h-87v-221q50 -2 82 -2q68 0 109 30.5t41 84.5q0 50 -39.5 79t-105.5 29zM170 211v-178h97v-33h-229v33h95v433h-95v33h221q83 0 131 -38t48 -103q0 -52 -32 -88.5t-86 -49.5l116 -187h80v-33h-106l-128 211q-13 -1 -35 -1q-55 0 -77 1z" />
    <glyph glyph-name="s.sc" horiz-adv-x="443" 
d="M319 406q0 20 14 30q-8 16 -38.5 28t-65.5 12q-55 0 -89.5 -26.5t-34.5 -66.5q0 -18 8.5 -33.5t18 -25t31.5 -21t33 -16l39 -15.5q38 -14 59.5 -23.5t48 -27t38.5 -40.5t12 -53q0 -62 -49 -99t-125 -37q-73 0 -121 30t-48 66q0 19 9 29.5t23 10.5t22.5 -8t8.5 -21
q0 -19 -15 -31q13 -17 45 -30t77 -13q62 0 98.5 27.5t36.5 73.5q0 22 -10 39t-31.5 30.5t-39 21.5t-47.5 19q-41 15 -61 24t-47.5 26.5t-39.5 40t-12 52.5q0 57 45 93t118 36q63 0 107.5 -27.5t44.5 -66.5q0 -17 -9 -27.5t-22 -10.5q-15 0 -23.5 8.5t-8.5 21.5z" />
    <glyph glyph-name="t.sc" horiz-adv-x="510" 
d="M139 0v33h97v433h-158v-98h-36v131h427v-131h-37v98h-158v-433h97v-33h-232z" />
    <glyph glyph-name="u.sc" horiz-adv-x="604" 
d="M153 466v-286q0 -74 39.5 -114t109.5 -40t109.5 40t39.5 113v287h-95v33h223v-33h-90v-286q0 -91 -49.5 -139.5t-138.5 -48.5t-137.5 48t-48.5 139v287h-90v33h223v-33h-95z" />
    <glyph glyph-name="v.sc" horiz-adv-x="559" 
d="M268 -9l-188 475h-73v33h205v-33h-92l161 -414l160 414h-92v33h203v-33h-73l-188 -475h-23z" />
    <glyph glyph-name="w.sc" horiz-adv-x="782" 
d="M234 -12l-146 478h-81v33h213v-33h-92l122 -406l134 370h17l135 -370l122 406h-93v33h210v-33h-80l-146 -478h-23l-135 374l-135 -374h-22z" />
    <glyph glyph-name="x.sc" horiz-adv-x="554" 
d="M535 33v-33h-196v33h78l-143 200l-145 -200h85v-33h-199v33h73l164 221l-154 212h-72v33h200v-33h-84l133 -188l135 188h-83v33h197v-33h-74l-153 -210l163 -223h75z" />
    <glyph glyph-name="y.sc" 
d="M525 499v-33h-77l-165 -277v-156h97v-33h-230v33h96v156l-164 277h-78v33h208v-33h-88l142 -245l143 245h-90v33h206z" />
    <glyph glyph-name="z.sc" horiz-adv-x="472" 
d="M44 0v20l332 447h-284v-96h-36v128h374v-20l-332 -446h298v95h37v-128h-389z" />
    <glyph glyph-name="aacute.sc" horiz-adv-x="577" 
d="M166 499h245v-33h-86l167 -433h74v-33h-204v33h91l-56 145h-220l-55 -145h92v-33h-204v33h75l166 433h-85v33zM287 469l-98 -258h196zM256 569l-9 15l124 99q18 15 31 15q11 0 19 -8.5t8 -20.5q0 -17 -29 -31z" />
    <glyph glyph-name="abreve.sc" horiz-adv-x="577" 
d="M166 499h245v-33h-86l167 -433h74v-33h-204v33h91l-56 145h-220l-55 -145h92v-33h-204v33h75l166 433h-85v33zM287 469l-98 -258h196zM292 569q-47 0 -84 30t-54 77l29 14q32 -78 109 -78q76 0 109 78l28 -14q-17 -47 -54 -77t-83 -30z" />
    <glyph glyph-name="acircumflex.sc" horiz-adv-x="577" 
d="M166 499h245v-33h-86l167 -433h74v-33h-204v33h91l-56 145h-220l-55 -145h92v-33h-204v33h75l166 433h-85v33zM287 469l-98 -258h196zM173 563l-17 19l136 127l135 -127l-17 -19l-118 89z" />
    <glyph glyph-name="adieresis.sc" horiz-adv-x="577" 
d="M166 499h245v-33h-86l167 -433h74v-33h-204v33h91l-56 145h-220l-55 -145h92v-33h-204v33h75l166 433h-85v33zM287 469l-98 -258h196zM223 585q-15 0 -26 11.5t-11 26.5q0 17 10.5 28t26.5 11t27 -11t11 -28q0 -15 -11 -26.5t-27 -11.5zM360 585q-16 0 -26.5 11.5
t-10.5 26.5q0 17 10.5 28t26.5 11t26.5 -11t10.5 -28q0 -15 -11 -26.5t-26 -11.5z" />
    <glyph glyph-name="ae.sc" horiz-adv-x="686" 
d="M230 0v33h95v148h-160l-79 -148h82v-33h-188v33h66l236 433h-81v33h425v-131h-35v98h-229v-196h181v-34h-181v-203h229v97h35v-130h-396zM319 466l-135 -251h141v251h-6z" />
    <glyph glyph-name="aeacute.sc" horiz-adv-x="686" 
d="M230 0v33h95v148h-160l-79 -148h82v-33h-188v33h66l236 433h-81v33h425v-131h-35v98h-229v-196h181v-34h-181v-203h229v97h35v-130h-396zM319 466l-135 -251h141v251h-6zM345 569l-9 15l124 99q18 15 31 15q11 0 19 -8.5t8 -20.5q0 -17 -29 -31z" />
    <glyph glyph-name="agrave.sc" horiz-adv-x="577" 
d="M166 499h245v-33h-86l167 -433h74v-33h-204v33h91l-56 145h-220l-55 -145h92v-33h-204v33h75l166 433h-85v33zM287 469l-98 -258h196zM326 569l-144 69q-29 14 -29 31q0 12 8 20.5t19 8.5q13 0 31 -15l124 -99z" />
    <glyph glyph-name="amacron.sc" horiz-adv-x="577" 
d="M166 499h245v-33h-86l167 -433h74v-33h-204v33h91l-56 145h-220l-55 -145h92v-33h-204v33h75l166 433h-85v33zM287 469l-98 -258h196zM151 600v37h281v-37h-281z" />
    <glyph glyph-name="aogonek.sc" horiz-adv-x="577" 
d="M471 -201q-46 0 -71 23t-25 62q0 69 76 116h-89v33h91l-56 145h-220l-55 -145h92v-33h-204v33h75l166 433h-85v33h245v-33h-86l167 -433h74v-33h-64q-43 -19 -67 -48.5t-24 -61.5q0 -27 16.5 -43t46.5 -16q37 0 75 21l-2 -29q-31 -24 -76 -24zM287 469l-98 -258h196z" />
    <glyph glyph-name="aring.sc" horiz-adv-x="577" 
d="M166 499h62q-30 24 -30 62t26 65t63 27t63 -27t26 -65q0 -40 -30 -62h65v-33h-86l167 -433h74v-33h-204v33h91l-56 145h-220l-55 -145h92v-33h-204v33h75l166 433h-85v33zM287 469l-98 -258h196zM287 500q25 0 41.5 17.5t16.5 43.5t-16.5 43.5t-41.5 17.5t-41 -17.5
t-16 -43.5t16 -43.5t41 -17.5z" />
    <glyph glyph-name="aringacute.sc" horiz-adv-x="577" 
d="M166 499h62q-30 24 -30 62t26 65t63 27t63 -27t26 -65q0 -40 -30 -62h65v-33h-86l167 -433h74v-33h-204v33h91l-56 145h-220l-55 -145h92v-33h-204v33h75l166 433h-85v33zM287 469l-98 -258h196zM287 500q25 0 41.5 17.5t16.5 43.5t-16.5 43.5t-41.5 17.5t-41 -17.5
t-16 -43.5t16 -43.5t41 -17.5zM249 703l-9 15l124 99q18 15 31 15q11 0 19 -8.5t8 -20.5q0 -17 -29 -31z" />
    <glyph glyph-name="atilde.sc" horiz-adv-x="577" 
d="M166 499h245v-33h-86l167 -433h74v-33h-204v33h91l-56 145h-220l-55 -145h92v-33h-204v33h75l166 433h-85v33zM287 469l-98 -258h196zM363 570q-35 0 -82 37q-34 27 -56 27q-36 0 -50 -59l-31 7q5 39 27 65.5t53 26.5q37 0 82 -37q34 -27 56 -27q36 0 50 58l31 -6
q-5 -39 -27 -65.5t-53 -26.5z" />
    <glyph glyph-name="cacute.sc" horiz-adv-x="547" 
d="M260 569l-9 15l124 99q18 15 31 15q11 0 19 -8.5t8 -20.5q0 -17 -29 -31zM469 96l21 -26q-76 -78 -188 -78q-111 0 -182 73.5t-71 184.5q0 108 72 183t182 75q75 0 129.5 -38.5t54.5 -84.5q0 -20 -9.5 -32t-25.5 -12q-14 0 -22.5 8.5t-8.5 22.5q0 23 22 31q-9 27 -48 49
t-92 22q-92 0 -153.5 -64.5t-61.5 -159.5q0 -97 60.5 -160.5t153.5 -63.5q95 0 167 70z" />
    <glyph glyph-name="ccaron.sc" horiz-adv-x="547" 
d="M414 711l17 -20l-135 -126l-136 126l17 20l119 -89zM469 96l21 -26q-76 -78 -188 -78q-111 0 -182 73.5t-71 184.5q0 108 72 183t182 75q75 0 129.5 -38.5t54.5 -84.5q0 -20 -9.5 -32t-25.5 -12q-14 0 -22.5 8.5t-8.5 22.5q0 23 22 31q-9 27 -48 49t-92 22
q-92 0 -153.5 -64.5t-61.5 -159.5q0 -97 60.5 -160.5t153.5 -63.5q95 0 167 70z" />
    <glyph glyph-name="ccedilla.sc" horiz-adv-x="547" 
d="M292 -200q-50 0 -98 23l10 25q41 -19 84 -19q28 0 42.5 11t14.5 29q0 39 -63 40q-10 0 -18 -2l-12 8l20 79q-99 10 -161 81.5t-62 174.5q0 108 72 183t182 75q75 0 129.5 -38.5t54.5 -84.5q0 -20 -9.5 -32t-25.5 -12q-14 0 -22.5 8.5t-8.5 22.5q0 23 22 31q-9 27 -48 49
t-92 22q-92 0 -153.5 -64.5t-61.5 -159.5q0 -97 60.5 -160.5t153.5 -63.5q95 0 167 70l21 -26q-76 -78 -188 -78h-5l-6 -51q44 -1 67.5 -20t23.5 -50t-23.5 -51t-66.5 -20z" />
    <glyph glyph-name="cdotaccent.sc" horiz-adv-x="547" 
d="M469 96l21 -26q-76 -78 -188 -78q-111 0 -182 73.5t-71 184.5q0 108 72 183t182 75q75 0 129.5 -38.5t54.5 -84.5q0 -20 -9.5 -32t-25.5 -12q-14 0 -22.5 8.5t-8.5 22.5q0 23 22 31q-9 27 -48 49t-92 22q-92 0 -153.5 -64.5t-61.5 -159.5q0 -97 60.5 -160.5t153.5 -63.5
q95 0 167 70zM296 583q-17 0 -28.5 12t-11.5 28q0 17 11.5 29t28.5 12q16 0 27.5 -12t11.5 -29q0 -16 -11.5 -28t-27.5 -12z" />
    <glyph glyph-name="dcaron.sc" horiz-adv-x="594" 
d="M171 33h90q117 0 181 60.5t64 161.5q0 98 -68 154.5t-181 56.5h-86v-433zM257 0h-218v33h95v433h-95v33h218q131 0 209 -66t78 -178q0 -115 -76.5 -185t-210.5 -70zM399 711l17 -20l-135 -126l-136 126l17 20l119 -89z" />
    <glyph glyph-name="dcroat.sc" horiz-adv-x="595" 
d="M259 0h-218v33h95v206h-75v33h75v194h-95v33h218q131 0 209 -66t78 -178q0 -115 -76.5 -185t-210.5 -70zM173 33h90q117 0 181 60.5t64 161.5q0 98 -68 154.5t-181 56.5h-86v-194h120v-33h-120v-206z" />
    <glyph glyph-name="eacute.sc" horiz-adv-x="497" 
d="M211 569l-9 15l124 99q18 15 31 15q11 0 19 -8.5t8 -20.5q0 -17 -29 -31zM435 0h-396v33h95v433h-95v33h396v-131h-35v98h-229v-196h182v-34h-182v-203h229v97h35v-130z" />
    <glyph glyph-name="ebreve.sc" horiz-adv-x="497" 
d="M435 0h-396v33h95v433h-95v33h396v-131h-35v98h-229v-196h182v-34h-182v-203h229v97h35v-130zM248 569q-47 0 -84 30t-54 77l29 14q32 -78 109 -78q76 0 109 78l28 -14q-17 -47 -54 -77t-83 -30z" />
    <glyph glyph-name="ecaron.sc" horiz-adv-x="497" 
d="M366 711l17 -20l-135 -126l-136 126l17 20l119 -89zM435 0h-396v33h95v433h-95v33h396v-131h-35v98h-229v-196h182v-34h-182v-203h229v97h35v-130z" />
    <glyph glyph-name="ecircumflex.sc" horiz-adv-x="497" 
d="M129 563l-17 19l136 127l135 -127l-17 -19l-118 89zM435 0h-396v33h95v433h-95v33h396v-131h-35v98h-229v-196h182v-34h-182v-203h229v97h35v-130z" />
    <glyph glyph-name="edieresis.sc" horiz-adv-x="497" 
d="M316 585q-16 0 -26.5 11.5t-10.5 26.5q0 17 10.5 28t26.5 11t26.5 -11t10.5 -28q0 -15 -11 -26.5t-26 -11.5zM179 585q-15 0 -26 11.5t-11 26.5q0 17 10.5 28t26.5 11t27 -11t11 -28q0 -15 -11 -26.5t-27 -11.5zM435 0h-396v33h95v433h-95v33h396v-131h-35v98h-229v-196
h182v-34h-182v-203h229v97h35v-130z" />
    <glyph glyph-name="edotaccent.sc" horiz-adv-x="497" 
d="M248 583q-17 0 -28.5 12t-11.5 28q0 17 11.5 29t28.5 12q16 0 27.5 -12t11.5 -29q0 -16 -11.5 -28t-27.5 -12zM435 0h-396v33h95v433h-95v33h396v-131h-35v98h-229v-196h182v-34h-182v-203h229v97h35v-130z" />
    <glyph glyph-name="egrave.sc" horiz-adv-x="497" 
d="M282 569l-144 69q-29 14 -29 31q0 12 8 20.5t19 8.5q13 0 31 -15l124 -99zM435 0h-396v33h95v433h-95v33h396v-131h-35v98h-229v-196h182v-34h-182v-203h229v97h35v-130z" />
    <glyph glyph-name="emacron.sc" horiz-adv-x="497" 
d="M107 600v37h281v-37h-281zM435 0h-396v33h95v433h-95v33h396v-131h-35v98h-229v-196h182v-34h-182v-203h229v97h35v-130z" />
    <glyph glyph-name="eogonek.sc" horiz-adv-x="497" 
d="M435 0h-51q-43 -19 -67 -48.5t-24 -61.5q0 -27 16.5 -43t46.5 -16q37 0 75 21l-2 -29q-31 -24 -76 -24q-46 0 -71 23t-25 62q0 69 76 116h-294v33h95v433h-95v33h396v-131h-35v98h-229v-196h182v-34h-182v-203h229v97h35v-130z" />
    <glyph glyph-name="eth.sc" horiz-adv-x="595" 
d="M259 0h-218v33h95v206h-75v33h75v194h-95v33h218q131 0 209 -66t78 -178q0 -115 -76.5 -185t-210.5 -70zM173 33h90q117 0 181 60.5t64 161.5q0 98 -68 154.5t-181 56.5h-86v-194h120v-33h-120v-206z" />
    <glyph glyph-name="gbreve.sc" horiz-adv-x="580" 
d="M306 474q-95 0 -156.5 -65.5t-61.5 -161.5t61 -158t150 -62q96 0 169 59v119h-149v32h186v-237h-36v52q-72 -59 -173 -59q-102 0 -174.5 70.5t-72.5 183.5q0 112 75.5 186.5t182.5 74.5q82 0 136.5 -37t54.5 -79q0 -19 -10 -31t-25 -12q-14 0 -22.5 8.5t-8.5 21.5
q0 21 21 30q-13 25 -53.5 45t-93.5 20zM300 569q-47 0 -84 30t-54 77l29 14q32 -78 109 -78q76 0 109 78l28 -14q-17 -47 -54 -77t-83 -30z" />
    <glyph glyph-name="gcommaaccent.sc" horiz-adv-x="580" 
d="M239 -243l-8 14q62 50 64 99q-16 2 -26 12t-10 25t10 24.5t24 9.5q17 0 28 -13t11 -36q0 -38 -24 -74t-69 -61zM306 474q-95 0 -156.5 -65.5t-61.5 -161.5t61 -158t150 -62q96 0 169 59v119h-149v32h186v-237h-36v52q-72 -59 -173 -59q-102 0 -174.5 70.5t-72.5 183.5
q0 112 75.5 186.5t182.5 74.5q82 0 136.5 -37t54.5 -79q0 -19 -10 -31t-25 -12q-14 0 -22.5 8.5t-8.5 21.5q0 21 21 30q-13 25 -53.5 45t-93.5 20z" />
    <glyph glyph-name="gdotaccent.sc" horiz-adv-x="580" 
d="M306 474q-95 0 -156.5 -65.5t-61.5 -161.5t61 -158t150 -62q96 0 169 59v119h-149v32h186v-237h-36v52q-72 -59 -173 -59q-102 0 -174.5 70.5t-72.5 183.5q0 112 75.5 186.5t182.5 74.5q82 0 136.5 -37t54.5 -79q0 -19 -10 -31t-25 -12q-14 0 -22.5 8.5t-8.5 21.5
q0 21 21 30q-13 25 -53.5 45t-93.5 20zM300 583q-17 0 -28.5 12t-11.5 28q0 17 11.5 29t28.5 12q16 0 27.5 -12t11.5 -29q0 -16 -11.5 -28t-27.5 -12z" />
    <glyph glyph-name="hbar.sc" horiz-adv-x="661" 
d="M599 384v-33h-74v-318h94v-33h-228v33h96v202h-314v-202h96v-33h-228v33h94v318h-74v33h74v82h-94v33h228v-33h-96v-82h314v82h-96v33h228v-33h-94v-82h74zM173 269h314v82h-314v-82z" />
    <glyph glyph-name="iacute.sc" horiz-adv-x="308" 
d="M123 569l-9 15l124 99q18 15 31 15q11 0 19 -8.5t8 -20.5q0 -17 -29 -31zM270 0h-232v33h97v433h-97v33h232v-33h-97v-433h97v-33z" />
    <glyph glyph-name="ibreve.sc" horiz-adv-x="308" 
d="M270 0h-232v33h97v433h-97v33h232v-33h-97v-433h97v-33zM158 569q-47 0 -84 30t-54 77l29 14q32 -78 109 -78q76 0 109 78l28 -14q-17 -47 -54 -77t-83 -30z" />
    <glyph glyph-name="icircumflex.sc" horiz-adv-x="308" 
d="M39 563l-17 19l136 127l135 -127l-17 -19l-118 89zM270 0h-232v33h97v433h-97v33h232v-33h-97v-433h97v-33z" />
    <glyph glyph-name="idieresis.sc" horiz-adv-x="308" 
d="M226 585q-16 0 -26.5 11.5t-10.5 26.5q0 17 10.5 28t26.5 11t26.5 -11t10.5 -28q0 -15 -11 -26.5t-26 -11.5zM89 585q-15 0 -26 11.5t-11 26.5q0 17 10.5 28t26.5 11t27 -11t11 -28q0 -15 -11 -26.5t-27 -11.5zM270 0h-232v33h97v433h-97v33h232v-33h-97v-433h97v-33z
" />
    <glyph glyph-name="idotaccent.sc" horiz-adv-x="313" 
d="M271 0h-232v33h97v433h-97v33h232v-33h-97v-433h97v-33zM159 583q-17 0 -28.5 12t-11.5 28q0 17 11.5 29t28.5 12q16 0 27.5 -12t11.5 -29q0 -16 -11.5 -28t-27.5 -12z" />
    <glyph glyph-name="dotlessi.sc" horiz-adv-x="308" 
d="M270 0h-232v33h97v433h-97v33h232v-33h-97v-433h97v-33z" />
    <glyph glyph-name="igrave.sc" horiz-adv-x="308" 
d="M270 0h-232v33h97v433h-97v33h232v-33h-97v-433h97v-33zM193 569l-144 69q-29 14 -29 31q0 12 8 20.5t19 8.5q13 0 31 -15l124 -99z" />
    <glyph glyph-name="imacron.sc" horiz-adv-x="308" 
d="M270 0h-232v33h97v433h-97v33h232v-33h-97v-433h97v-33zM17 600v37h281v-37h-281z" />
    <glyph glyph-name="iogonek.sc" horiz-adv-x="308" 
d="M151 -201q-46 0 -71 23t-25 62q0 69 76 116h-93v33h97v433h-97v33h232v-33h-97v-433h97v-33h-88q-43 -19 -67 -48.5t-24 -61.5q0 -27 16.5 -43t46.5 -16q37 0 75 21l-2 -29q-31 -24 -76 -24z" />
    <glyph glyph-name="kcommaaccent.sc" horiz-adv-x="561" 
d="M237 -243l-8 14q62 50 64 99q-16 2 -26 12t-10 25t10 24.5t24 9.5q17 0 28 -13t11 -36q0 -38 -24 -74t-69 -61zM471 466l-185 -187l174 -246h91v-33h-113l-178 253l-89 -89v-131h95v-33h-228v33h96v433h-96v33h224v-33h-91v-257l256 257h-91v33h206v-33h-71z" />
    <glyph glyph-name="lacute.sc" horiz-adv-x="462" 
d="M390 33v101h36v-134h-388v33h95v433h-95v33h231v-33h-99v-433h220zM134 569l-9 15l124 99q18 15 31 15q11 0 19 -8.5t8 -20.5q0 -17 -29 -31z" />
    <glyph glyph-name="lcaron.sc" horiz-adv-x="462" 
d="M390 33v101h36v-134h-388v33h95v433h-95v33h231v-33h-99v-433h220zM308 309l-14 10q31 50 31 98q0 12 -2 28t-2 24q0 30 27 30t27 -33q0 -79 -67 -157z" />
    <glyph glyph-name="lcommaaccent.sc" horiz-adv-x="462" 
d="M390 33v101h36v-134h-388v33h95v433h-95v33h231v-33h-99v-433h220zM175 -243l-8 14q62 50 64 99q-16 2 -26 12t-10 25t10 24.5t24 9.5q17 0 28 -13t11 -36q0 -38 -24 -74t-69 -61z" />
    <glyph glyph-name="ldot.sc" horiz-adv-x="462" 
d="M390 33v101h36v-134h-388v33h95v433h-95v33h231v-33h-99v-433h220zM386 232q-17 0 -28.5 12t-11.5 28q0 17 11.5 29t28.5 12q16 0 27.5 -12t11.5 -29q0 -16 -11.5 -28t-27.5 -12z" />
    <glyph glyph-name="lslash.sc" horiz-adv-x="467" 
d="M395 33v101h36v-134h-388v33h95v177l-91 -50l-17 29l108 59v218h-95v33h231v-33h-99v-198l147 81l16 -28l-163 -90v-198h220z" />
    <glyph glyph-name="nacute.sc" horiz-adv-x="646" 
d="M288 569l-9 15l124 99q18 15 31 15q11 0 19 -8.5t8 -20.5q0 -17 -29 -31zM166 499l321 -424v391h-97v33h227v-33h-95v-469h-22l-332 440v-404h97v-33h-227v33h95v433h-95v33h128z" />
    <glyph glyph-name="ncaron.sc" horiz-adv-x="646" 
d="M442 711l17 -20l-135 -126l-136 126l17 20l119 -89zM166 499l321 -424v391h-97v33h227v-33h-95v-469h-22l-332 440v-404h97v-33h-227v33h95v433h-95v33h128z" />
    <glyph glyph-name="ncommaaccent.sc" horiz-adv-x="646" 
d="M262 -243l-8 14q62 50 64 99q-16 2 -26 12t-10 25t10 24.5t24 9.5q17 0 28 -13t11 -36q0 -38 -24 -74t-69 -61zM166 499l321 -424v391h-97v33h227v-33h-95v-469h-22l-332 440v-404h97v-33h-227v33h95v433h-95v33h128z" />
    <glyph glyph-name="ntilde.sc" horiz-adv-x="646" 
d="M166 499l321 -424v391h-97v33h227v-33h-95v-469h-22l-332 440v-404h97v-33h-227v33h95v433h-95v33h128zM395 570q-35 0 -82 37q-34 27 -56 27q-36 0 -50 -59l-31 7q5 39 27 65.5t53 26.5q37 0 82 -37q34 -27 56 -27q36 0 50 58l31 -6q-5 -39 -27 -65.5t-53 -26.5z" />
    <glyph glyph-name="oacute.sc" horiz-adv-x="605" 
d="M302 508q111 0 182 -74t71 -184t-71 -184t-182 -74t-182 74t-71 184t71 184t182 74zM302 26q94 0 154.5 63.5t60.5 160.5t-60.5 160.5t-154.5 63.5q-93 0 -153.5 -63.5t-60.5 -160.5t60.5 -160.5t153.5 -63.5zM268 569l-9 15l124 99q18 15 31 15q11 0 19 -8.5t8 -20.5
q0 -17 -29 -31z" />
    <glyph glyph-name="obreve.sc" horiz-adv-x="605" 
d="M302 508q111 0 182 -74t71 -184t-71 -184t-182 -74t-182 74t-71 184t71 184t182 74zM302 26q94 0 154.5 63.5t60.5 160.5t-60.5 160.5t-154.5 63.5q-93 0 -153.5 -63.5t-60.5 -160.5t60.5 -160.5t153.5 -63.5zM303 569q-47 0 -84 30t-54 77l29 14q32 -78 109 -78
q76 0 109 78l28 -14q-17 -47 -54 -77t-83 -30z" />
    <glyph glyph-name="ocircumflex.sc" horiz-adv-x="605" 
d="M184 563l-17 19l136 127l135 -127l-17 -19l-118 89zM302 508q111 0 182 -74t71 -184t-71 -184t-182 -74t-182 74t-71 184t71 184t182 74zM302 26q94 0 154.5 63.5t60.5 160.5t-60.5 160.5t-154.5 63.5q-93 0 -153.5 -63.5t-60.5 -160.5t60.5 -160.5t153.5 -63.5z" />
    <glyph glyph-name="odieresis.sc" horiz-adv-x="605" 
d="M371 585q-16 0 -26.5 11.5t-10.5 26.5q0 17 10.5 28t26.5 11t26.5 -11t10.5 -28q0 -15 -11 -26.5t-26 -11.5zM234 585q-15 0 -26 11.5t-11 26.5q0 17 10.5 28t26.5 11t27 -11t11 -28q0 -15 -11 -26.5t-27 -11.5zM302 508q111 0 182 -74t71 -184t-71 -184t-182 -74
t-182 74t-71 184t71 184t182 74zM302 26q94 0 154.5 63.5t60.5 160.5t-60.5 160.5t-154.5 63.5q-93 0 -153.5 -63.5t-60.5 -160.5t60.5 -160.5t153.5 -63.5z" />
    <glyph glyph-name="oe.sc" horiz-adv-x="759" 
d="M398 33v432h-50q-110 0 -175.5 -57.5t-65.5 -154.5q0 -99 63 -159.5t174 -60.5h54zM348 499h351v-131h-36v97h-227v-195h181v-34h-181v-203h227v97h36v-130h-351q-129 0 -204.5 69t-75.5 183q0 112 76.5 179.5t203.5 67.5z" />
    <glyph glyph-name="ograve.sc" horiz-adv-x="605" 
d="M302 508q111 0 182 -74t71 -184t-71 -184t-182 -74t-182 74t-71 184t71 184t182 74zM302 26q94 0 154.5 63.5t60.5 160.5t-60.5 160.5t-154.5 63.5q-93 0 -153.5 -63.5t-60.5 -160.5t60.5 -160.5t153.5 -63.5zM338 569l-144 69q-29 14 -29 31q0 12 8 20.5t19 8.5
q13 0 31 -15l124 -99z" />
    <glyph glyph-name="ohungarumlaut.sc" horiz-adv-x="605" 
d="M302 508q111 0 182 -74t71 -184t-71 -184t-182 -74t-182 74t-71 184t71 184t182 74zM302 26q94 0 154.5 63.5t60.5 160.5t-60.5 160.5t-154.5 63.5q-93 0 -153.5 -63.5t-60.5 -160.5t60.5 -160.5t153.5 -63.5zM204 569l-9 14l122 103q18 16 31 16q11 0 18.5 -7.5
t7.5 -19.5q0 -18 -28 -31zM373 574l-9 14l128 96q17 13 32 13q11 0 18 -7.5t7 -18.5q0 -20 -31 -32z" />
    <glyph glyph-name="omacron.sc" horiz-adv-x="605" 
d="M302 508q111 0 182 -74t71 -184t-71 -184t-182 -74t-182 74t-71 184t71 184t182 74zM302 26q94 0 154.5 63.5t60.5 160.5t-60.5 160.5t-154.5 63.5q-93 0 -153.5 -63.5t-60.5 -160.5t60.5 -160.5t153.5 -63.5zM162 600v37h281v-37h-281z" />
    <glyph glyph-name="oslash.sc" horiz-adv-x="609" 
d="M304 508q88 0 156 -52l62 73l25 -22l-63 -72q73 -73 73 -185q0 -110 -71 -184t-182 -74q-93 0 -160 54l-62 -72l-25 21l63 73q-69 72 -69 182t71 184t182 74zM304 26q94 0 154.5 63.5t60.5 160.5t-60 160l-292 -337q56 -47 137 -47zM90 250q0 -93 56 -157l291 336
q-58 45 -133 45q-93 0 -153.5 -63.5t-60.5 -160.5z" />
    <glyph glyph-name="oslashacute.sc" horiz-adv-x="609" 
d="M304 508q88 0 156 -52l62 73l25 -22l-63 -72q73 -73 73 -185q0 -110 -71 -184t-182 -74q-93 0 -160 54l-62 -72l-25 21l63 73q-69 72 -69 182t71 184t182 74zM304 26q94 0 154.5 63.5t60.5 160.5t-60 160l-292 -337q56 -47 137 -47zM90 250q0 -93 56 -157l291 336
q-58 45 -133 45q-93 0 -153.5 -63.5t-60.5 -160.5zM270 569l-9 15l124 99q18 15 31 15q11 0 19 -8.5t8 -20.5q0 -17 -29 -31z" />
    <glyph glyph-name="otilde.sc" horiz-adv-x="605" 
d="M302 508q111 0 182 -74t71 -184t-71 -184t-182 -74t-182 74t-71 184t71 184t182 74zM302 26q94 0 154.5 63.5t60.5 160.5t-60.5 160.5t-154.5 63.5q-93 0 -153.5 -63.5t-60.5 -160.5t60.5 -160.5t153.5 -63.5zM374 570q-35 0 -82 37q-34 27 -56 27q-36 0 -50 -59l-31 7
q5 39 27 65.5t53 26.5q37 0 82 -37q34 -27 56 -27q36 0 50 58l31 -6q-5 -39 -27 -65.5t-53 -26.5z" />
    <glyph glyph-name="racute.sc" horiz-adv-x="521" 
d="M224 569l-9 15l124 99q18 15 31 15q11 0 19 -8.5t8 -20.5q0 -17 -29 -31zM257 466h-87v-221q50 -2 82 -2q68 0 109 30.5t41 84.5q0 50 -39.5 79t-105.5 29zM170 211v-178h97v-33h-229v33h95v433h-95v33h221q83 0 131 -38t48 -103q0 -52 -32 -88.5t-86 -49.5l116 -187h80
v-33h-106l-128 211q-13 -1 -35 -1q-55 0 -77 1z" />
    <glyph glyph-name="rcaron.sc" horiz-adv-x="521" 
d="M378 711l17 -20l-135 -126l-136 126l17 20l119 -89zM257 466h-87v-221q50 -2 82 -2q68 0 109 30.5t41 84.5q0 50 -39.5 79t-105.5 29zM170 211v-178h97v-33h-229v33h95v433h-95v33h221q83 0 131 -38t48 -103q0 -52 -32 -88.5t-86 -49.5l116 -187h80v-33h-106l-128 211
q-13 -1 -35 -1q-55 0 -77 1z" />
    <glyph glyph-name="rcommaaccent.sc" horiz-adv-x="521" 
d="M213 -243l-8 14q62 50 64 99q-16 2 -26 12t-10 25t10 24.5t24 9.5q17 0 28 -13t11 -36q0 -38 -24 -74t-69 -61zM257 466h-87v-221q50 -2 82 -2q68 0 109 30.5t41 84.5q0 50 -39.5 79t-105.5 29zM170 211v-178h97v-33h-229v33h95v433h-95v33h221q83 0 131 -38t48 -103
q0 -52 -32 -88.5t-86 -49.5l116 -187h80v-33h-106l-128 211q-13 -1 -35 -1q-55 0 -77 1z" />
    <glyph glyph-name="sacute.sc" horiz-adv-x="443" 
d="M199 569l-9 15l124 99q18 15 31 15q11 0 19 -8.5t8 -20.5q0 -17 -29 -31zM319 406q0 20 14 30q-8 16 -38.5 28t-65.5 12q-55 0 -89.5 -26.5t-34.5 -66.5q0 -18 8.5 -33.5t18 -25t31.5 -21t33 -16l39 -15.5q38 -14 59.5 -23.5t48 -27t38.5 -40.5t12 -53q0 -62 -49 -99
t-125 -37q-73 0 -121 30t-48 66q0 19 9 29.5t23 10.5t22.5 -8t8.5 -21q0 -19 -15 -31q13 -17 45 -30t77 -13q62 0 98.5 27.5t36.5 73.5q0 22 -10 39t-31.5 30.5t-39 21.5t-47.5 19q-41 15 -61 24t-47.5 26.5t-39.5 40t-12 52.5q0 57 45 93t118 36q63 0 107.5 -27.5
t44.5 -66.5q0 -17 -9 -27.5t-22 -10.5q-15 0 -23.5 8.5t-8.5 21.5z" />
    <glyph glyph-name="scaron.sc" horiz-adv-x="443" 
d="M352 711l17 -20l-135 -126l-136 126l17 20l119 -89zM319 406q0 20 14 30q-8 16 -38.5 28t-65.5 12q-55 0 -89.5 -26.5t-34.5 -66.5q0 -18 8.5 -33.5t18 -25t31.5 -21t33 -16l39 -15.5q38 -14 59.5 -23.5t48 -27t38.5 -40.5t12 -53q0 -62 -49 -99t-125 -37q-73 0 -121 30
t-48 66q0 19 9 29.5t23 10.5t22.5 -8t8.5 -21q0 -19 -15 -31q13 -17 45 -30t77 -13q62 0 98.5 27.5t36.5 73.5q0 22 -10 39t-31.5 30.5t-39 21.5t-47.5 19q-41 15 -61 24t-47.5 26.5t-39.5 40t-12 52.5q0 57 45 93t118 36q63 0 107.5 -27.5t44.5 -66.5q0 -17 -9 -27.5
t-22 -10.5q-15 0 -23.5 8.5t-8.5 21.5z" />
    <glyph glyph-name="scedilla.sc" horiz-adv-x="443" 
d="M214 -200q-50 0 -98 23l10 25q41 -19 84 -19q28 0 42.5 11t14.5 29q0 39 -63 40q-10 0 -18 -2l-12 8l20 78q-64 5 -104 33.5t-40 61.5q0 19 9 29.5t23 10.5t22.5 -8t8.5 -21q0 -19 -15 -31q13 -17 45 -30t77 -13q62 0 98.5 27.5t36.5 73.5q0 22 -10 39t-31.5 30.5
t-39 21.5t-47.5 19q-41 15 -61 24t-47.5 26.5t-39.5 40t-12 52.5q0 57 45 93t118 36q63 0 107.5 -27.5t44.5 -66.5q0 -17 -9 -27.5t-22 -10.5q-15 0 -23.5 8.5t-8.5 21.5q0 20 14 30q-8 16 -38.5 28t-65.5 12q-55 0 -89.5 -26.5t-34.5 -66.5q0 -18 8.5 -33.5t18 -25
t31.5 -21t33 -16l39 -15.5q38 -14 59.5 -23.5t48 -27t38.5 -40.5t12 -53q0 -62 -49 -99t-125 -37l-6 -51q44 -1 67.5 -20t23.5 -50t-23.5 -51t-66.5 -20z" />
    <glyph glyph-name="scommaaccent.sc" horiz-adv-x="443" 
d="M171 -243l-8 14q62 50 64 99q-16 2 -26 12t-10 25t10 24.5t24 9.5q17 0 28 -13t11 -36q0 -38 -24 -74t-69 -61zM319 406q0 20 14 30q-8 16 -38.5 28t-65.5 12q-55 0 -89.5 -26.5t-34.5 -66.5q0 -18 8.5 -33.5t18 -25t31.5 -21t33 -16l39 -15.5q38 -14 59.5 -23.5t48 -27
t38.5 -40.5t12 -53q0 -62 -49 -99t-125 -37q-73 0 -121 30t-48 66q0 19 9 29.5t23 10.5t22.5 -8t8.5 -21q0 -19 -15 -31q13 -17 45 -30t77 -13q62 0 98.5 27.5t36.5 73.5q0 22 -10 39t-31.5 30.5t-39 21.5t-47.5 19q-41 15 -61 24t-47.5 26.5t-39.5 40t-12 52.5q0 57 45 93
t118 36q63 0 107.5 -27.5t44.5 -66.5q0 -17 -9 -27.5t-22 -10.5q-15 0 -23.5 8.5t-8.5 21.5z" />
    <glyph glyph-name="tcaron.sc" horiz-adv-x="510" 
d="M139 0v33h97v433h-158v-98h-36v131h427v-131h-37v98h-158v-433h97v-33h-232zM375 711l17 -20l-135 -126l-136 126l17 20l119 -89z" />
    <glyph glyph-name="tcommaaccent.sc" horiz-adv-x="510" 
d="M139 0v33h97v433h-158v-98h-36v131h427v-131h-37v98h-158v-433h97v-33h-232zM195 -243l-8 14q62 50 64 99q-16 2 -26 12t-10 25t10 24.5t24 9.5q17 0 28 -13t11 -36q0 -38 -24 -74t-69 -61z" />
    <glyph glyph-name="thorn.sc" horiz-adv-x="476" 
d="M170 108v-75h96v-33h-228v33h94v433h-94v33h228v-33h-96v-65q31 2 86 2q83 0 132.5 -40.5t49.5 -107.5q0 -68 -49 -108.5t-134 -40.5q-61 0 -85 2zM170 368v-227q50 -2 88 -2q66 0 104 32t38 84q0 51 -39 83t-103 32q-26 0 -88 -2z" />
    <glyph glyph-name="uacute.sc" horiz-adv-x="604" 
d="M268 569l-9 15l124 99q18 15 31 15q11 0 19 -8.5t8 -20.5q0 -17 -29 -31zM153 466v-286q0 -74 39.5 -114t109.5 -40t109.5 40t39.5 113v287h-95v33h223v-33h-90v-286q0 -91 -49.5 -139.5t-138.5 -48.5t-137.5 48t-48.5 139v287h-90v33h223v-33h-95z" />
    <glyph glyph-name="ubreve.sc" horiz-adv-x="604" 
d="M153 466v-286q0 -74 39.5 -114t109.5 -40t109.5 40t39.5 113v287h-95v33h223v-33h-90v-286q0 -91 -49.5 -139.5t-138.5 -48.5t-137.5 48t-48.5 139v287h-90v33h223v-33h-95zM303 569q-47 0 -84 30t-54 77l29 14q32 -78 109 -78q76 0 109 78l28 -14q-17 -47 -54 -77
t-83 -30z" />
    <glyph glyph-name="ucircumflex.sc" horiz-adv-x="604" 
d="M184 563l-17 19l136 127l135 -127l-17 -19l-118 89zM153 466v-286q0 -74 39.5 -114t109.5 -40t109.5 40t39.5 113v287h-95v33h223v-33h-90v-286q0 -91 -49.5 -139.5t-138.5 -48.5t-137.5 48t-48.5 139v287h-90v33h223v-33h-95z" />
    <glyph glyph-name="udieresis.sc" horiz-adv-x="604" 
d="M371 585q-16 0 -26.5 11.5t-10.5 26.5q0 17 10.5 28t26.5 11t26.5 -11t10.5 -28q0 -15 -11 -26.5t-26 -11.5zM234 585q-15 0 -26 11.5t-11 26.5q0 17 10.5 28t26.5 11t27 -11t11 -28q0 -15 -11 -26.5t-27 -11.5zM153 466v-286q0 -74 39.5 -114t109.5 -40t109.5 40
t39.5 113v287h-95v33h223v-33h-90v-286q0 -91 -49.5 -139.5t-138.5 -48.5t-137.5 48t-48.5 139v287h-90v33h223v-33h-95z" />
    <glyph glyph-name="ugrave.sc" horiz-adv-x="604" 
d="M337 569l-144 69q-29 14 -29 31q0 12 8 20.5t19 8.5q13 0 31 -15l124 -99zM153 466v-286q0 -74 39.5 -114t109.5 -40t109.5 40t39.5 113v287h-95v33h223v-33h-90v-286q0 -91 -49.5 -139.5t-138.5 -48.5t-137.5 48t-48.5 139v287h-90v33h223v-33h-95z" />
    <glyph glyph-name="uhungarumlaut.sc" horiz-adv-x="604" 
d="M203 569l-9 14l122 103q18 16 31 16q11 0 18.5 -7.5t7.5 -19.5q0 -18 -28 -31zM372 574l-9 14l128 96q17 13 32 13q11 0 18 -7.5t7 -18.5q0 -20 -31 -32zM153 466v-286q0 -74 39.5 -114t109.5 -40t109.5 40t39.5 113v287h-95v33h223v-33h-90v-286q0 -91 -49.5 -139.5
t-138.5 -48.5t-137.5 48t-48.5 139v287h-90v33h223v-33h-95z" />
    <glyph glyph-name="umacron.sc" horiz-adv-x="604" 
d="M162 600v37h281v-37h-281zM153 466v-286q0 -74 39.5 -114t109.5 -40t109.5 40t39.5 113v287h-95v33h223v-33h-90v-286q0 -91 -49.5 -139.5t-138.5 -48.5t-137.5 48t-48.5 139v287h-90v33h223v-33h-95z" />
    <glyph glyph-name="uogonek.sc" horiz-adv-x="604" 
d="M153 466v-286q0 -74 39.5 -114t109.5 -40t109.5 40t39.5 113v287h-95v33h223v-33h-90v-286q0 -83 -41.5 -130.5t-117.5 -55.5q-75 -40 -75 -102q0 -27 16 -43.5t47 -16.5q40 0 76 21l-2 -32q-29 -22 -77 -22q-47 0 -72 23.5t-25 62.5q0 63 64 108q-80 5 -123.5 52.5
t-43.5 133.5v287h-90v33h223v-33h-95z" />
    <glyph glyph-name="uring.sc" horiz-adv-x="604" 
d="M303 560q-39 0 -65.5 27t-26.5 66q0 38 26.5 65.5t65.5 27.5q38 0 64.5 -27.5t26.5 -65.5q0 -39 -26.5 -66t-64.5 -27zM303 590q25 0 41.5 18t16.5 45q0 26 -16.5 44.5t-41.5 18.5q-26 0 -42.5 -18.5t-16.5 -44.5q0 -27 16.5 -45t42.5 -18zM153 466v-286q0 -74 39.5 -114
t109.5 -40t109.5 40t39.5 113v287h-95v33h223v-33h-90v-286q0 -91 -49.5 -139.5t-138.5 -48.5t-137.5 48t-48.5 139v287h-90v33h223v-33h-95z" />
    <glyph glyph-name="wacute.sc" horiz-adv-x="782" 
d="M234 -12l-146 478h-81v33h213v-33h-92l122 -406l134 370h17l135 -370l122 406h-93v33h210v-33h-80l-146 -478h-23l-135 374l-135 -374h-22zM358 569l-9 15l124 99q18 15 31 15q11 0 19 -8.5t8 -20.5q0 -17 -29 -31z" />
    <glyph glyph-name="wcircumflex.sc" horiz-adv-x="782" 
d="M274 563l-17 19l136 127l135 -127l-17 -19l-118 89zM234 -12l-146 478h-81v33h213v-33h-92l122 -406l134 370h17l135 -370l122 406h-93v33h210v-33h-80l-146 -478h-23l-135 374l-135 -374h-22z" />
    <glyph glyph-name="wdieresis.sc" horiz-adv-x="782" 
d="M461 585q-16 0 -26.5 11.5t-10.5 26.5q0 17 10.5 28t26.5 11t26.5 -11t10.5 -28q0 -15 -11 -26.5t-26 -11.5zM324 585q-15 0 -26 11.5t-11 26.5q0 17 10.5 28t26.5 11t27 -11t11 -28q0 -15 -11 -26.5t-27 -11.5zM234 -12l-146 478h-81v33h213v-33h-92l122 -406l134 370
h17l135 -370l122 406h-93v33h210v-33h-80l-146 -478h-23l-135 374l-135 -374h-22z" />
    <glyph glyph-name="wgrave.sc" horiz-adv-x="782" 
d="M234 -12l-146 478h-81v33h213v-33h-92l122 -406l134 370h17l135 -370l122 406h-93v33h210v-33h-80l-146 -478h-23l-135 374l-135 -374h-22zM428 569l-144 69q-29 14 -29 31q0 12 8 20.5t19 8.5q13 0 31 -15l124 -99z" />
    <glyph glyph-name="yacute.sc" 
d="M232 569l-9 15l124 99q18 15 31 15q11 0 19 -8.5t8 -20.5q0 -17 -29 -31zM525 499v-33h-77l-165 -277v-156h97v-33h-230v33h96v156l-164 277h-78v33h208v-33h-88l142 -245l143 245h-90v33h206z" />
    <glyph glyph-name="ycircumflex.sc" 
d="M148 563l-17 19l136 127l135 -127l-17 -19l-118 89zM525 499v-33h-77l-165 -277v-156h97v-33h-230v33h96v156l-164 277h-78v33h208v-33h-88l142 -245l143 245h-90v33h206z" />
    <glyph glyph-name="ydieresis.sc" 
d="M335 585q-16 0 -26.5 11.5t-10.5 26.5q0 17 10.5 28t26.5 11t26.5 -11t10.5 -28q0 -15 -11 -26.5t-26 -11.5zM198 585q-15 0 -26 11.5t-11 26.5q0 17 10.5 28t26.5 11t27 -11t11 -28q0 -15 -11 -26.5t-27 -11.5zM525 499v-33h-77l-165 -277v-156h97v-33h-230v33h96v156
l-164 277h-78v33h208v-33h-88l142 -245l143 245h-90v33h206z" />
    <glyph glyph-name="ygrave.sc" 
d="M525 499v-33h-77l-165 -277v-156h97v-33h-230v33h96v156l-164 277h-78v33h208v-33h-88l142 -245l143 245h-90v33h206zM302 569l-144 69q-29 14 -29 31q0 12 8 20.5t19 8.5q13 0 31 -15l124 -99z" />
    <glyph glyph-name="zacute.sc" horiz-adv-x="472" 
d="M205 569l-9 15l124 99q18 15 31 15q11 0 19 -8.5t8 -20.5q0 -17 -29 -31zM44 0v20l332 447h-284v-96h-36v128h374v-20l-332 -446h298v95h37v-128h-389z" />
    <glyph glyph-name="zcaron.sc" horiz-adv-x="472" 
d="M359 711l17 -20l-135 -126l-136 126l17 20l119 -89zM44 0v20l332 447h-284v-96h-36v128h374v-20l-332 -446h298v95h37v-128h-389z" />
    <glyph glyph-name="zdotaccent.sc" horiz-adv-x="472" 
d="M44 0v20l332 447h-284v-96h-36v128h374v-20l-332 -446h298v95h37v-128h-389zM241 583q-17 0 -28.5 12t-11.5 28q0 17 11.5 29t28.5 12q16 0 27.5 -12t11.5 -29q0 -16 -11.5 -28t-27.5 -12z" />
    <glyph glyph-name="zero.lin" horiz-adv-x="606" 
d="M302 -11q-105 0 -174 94.5t-69 245.5t70 245.5t175 94.5t174.5 -94.5t69.5 -245.5q0 -152 -70 -246t-176 -94zM303 25q90 0 146.5 84.5t56.5 219.5q0 134 -56.5 219t-146.5 85t-146.5 -85t-56.5 -219t56.5 -219t146.5 -85z" />
    <glyph glyph-name="one.lin" horiz-adv-x="394" 
d="M46 0v35h139v582l-134 -35l-9 37l167 44h17v-628h137v-35h-317z" />
    <glyph glyph-name="two.lin" horiz-adv-x="531" 
d="M67 518q0 28 15 56q23 41 69.5 68t108.5 27q82 0 138 -49.5t56 -122.5q0 -70 -38 -117.5t-123 -108.5q-78 -57 -127 -112t-68 -124h328v120h39v-155h-406l-10 17q23 91 78.5 155t142.5 128q75 55 108.5 97t33.5 100q0 57 -44 96.5t-109 39.5q-50 0 -87 -20t-54 -51
q-5 -10 -9 -22q15 -3 24 -13.5t9 -23.5q0 -15 -10.5 -25t-24.5 -10q-18 0 -29 13t-11 37z" />
    <glyph glyph-name="three.lin" horiz-adv-x="501" 
d="M236 26q79 0 124.5 43t45.5 103q0 92 -91 131q-50 21 -119 21h-18v36h20q68 0 121 32q70 42 70 114q0 57 -40 91.5t-111 34.5q-44 0 -78 -15t-52 -38q-9 -13 -10 -16q28 -7 28 -35q0 -14 -9.5 -24t-23.5 -10q-15 0 -26.5 12.5t-11.5 32.5q0 23 15 49q22 36 67 58.5
t104 22.5q83 0 136 -46.5t53 -116.5q0 -89 -88 -138q-36 -18 -65 -24q42 -7 65 -18q104 -44 104 -152q0 -80 -58.5 -132t-152.5 -52q-55 0 -103.5 20t-73.5 54q-19 27 -19 56q0 20 11 32.5t27 12.5q14 0 23.5 -10t9.5 -24q0 -12 -8 -21.5t-19 -12.5q2 -9 13 -21
q20 -22 58 -36t82 -14z" />
    <glyph glyph-name="four.lin" horiz-adv-x="532" 
d="M202 0v35h125v167h-303l-6 14l332 455l31 -22l-303 -413h249v184l41 19v-203h119v-34h-119v-167h100v-35h-266z" />
    <glyph glyph-name="five.lin" horiz-adv-x="495" 
d="M229 25q75 0 124.5 49.5t49.5 126.5q0 74 -46 119.5t-126 45.5q-67 0 -139 -32l-18 10l33 314h300v-41h-267l-25 -236q51 23 118 23q94 0 153 -53t59 -149q0 -95 -63.5 -154t-154.5 -59q-103 0 -155 54q-26 26 -26 58q0 16 10 28.5t27 12.5q14 0 24 -10t10 -24
q0 -23 -21 -32q4 -6 13 -15q41 -36 120 -36z" />
    <glyph glyph-name="six.lin" horiz-adv-x="552" 
d="M461 566q0 -19 -9.5 -30.5t-25.5 -11.5q-15 0 -25.5 10t-10.5 25q0 19 16 30q0 1 -3 4.5t-4 5.5q-26 33 -91 33q-94 0 -151.5 -95.5t-58.5 -263.5q13 36 43 66q59 59 144 59q94 0 152 -57t58 -144q0 -88 -60 -148t-149 -60q-94 0 -157 61q-70 70 -70 223q0 200 72.5 298
t178.5 98q71 0 116 -38q35 -29 35 -65zM286 25q72 0 120 48.5t48 121.5q0 72 -47 119.5t-122 47.5q-72 0 -124 -49t-52 -117q0 -70 50 -120q53 -51 127 -51z" />
    <glyph glyph-name="seven.lin" horiz-adv-x="473" 
d="M121 0l268 623h-314v-112h-39v147h398l7 -13l-277 -645h-43z" />
    <glyph glyph-name="eight.lin" horiz-adv-x="541" 
d="M270 -11q-92 0 -152.5 51.5t-60.5 133.5q0 60 42.5 107.5t99.5 60.5q-56 16 -92.5 58t-36.5 96q0 77 58 125t142 48q85 0 142.5 -47.5t57.5 -125.5q0 -54 -36 -96t-93 -58q58 -12 100.5 -60t42.5 -108q0 -82 -61 -133.5t-153 -51.5zM270 360q69 0 114.5 38.5t45.5 96.5
t-46 98t-114 40t-113.5 -40t-45.5 -98q0 -57 46 -96t113 -39zM270 25q74 0 123.5 41.5t49.5 107.5q0 61 -50.5 105.5t-122.5 44.5t-122.5 -44t-50.5 -106q0 -66 49.5 -107.5t123.5 -41.5z" />
    <glyph glyph-name="nine.lin" horiz-adv-x="552" 
d="M85 93q0 19 10 30t26 11q15 0 25 -10.5t10 -24.5q0 -20 -19 -30q8 -13 23 -22q37 -22 88 -22q90 0 149 87.5t58 261.5v1q-6 -16 -14 -29q-27 -43 -73.5 -68t-100.5 -25q-96 0 -153.5 56.5t-57.5 149.5q0 90 60 150t150 60q94 0 155 -61q72 -72 72 -226
q0 -107 -19.5 -185.5t-55 -122.5t-78 -64.5t-94.5 -20.5q-70 0 -120 38q-41 30 -41 66zM267 290q72 0 124 48t52 117q0 76 -50 126q-52 52 -127 52q-72 0 -120 -49t-48 -125q0 -75 47 -122t122 -47z" />
    <glyph glyph-name="bullet.alt" horiz-adv-x="616" 
d="M308 -48q-109 0 -182 75.5t-73 183.5t73 183t182 75t182 -75t73 -183t-73 -183.5t-182 -75.5z" />
    <glyph glyph-name="hyphen.lin" horiz-adv-x="262" 
d="M35 314v38h192v-38h-192z" />
    <glyph glyph-name="endash.lin" horiz-adv-x="408" 
d="M20 314v38h368v-38h-368z" />
    <glyph glyph-name="emdash.lin" horiz-adv-x="681" 
d="M20 314v38h640v-38h-640z" />
    <glyph glyph-name="parenleft.lin" horiz-adv-x="321" 
d="M322 -165q-124 83 -188.5 214t-64.5 271t64.5 271t188.5 214l22 -29q-117 -79 -176.5 -202t-59.5 -254q0 -130 59.5 -253.5t176.5 -202.5z" />
    <glyph glyph-name="parenright.lin" horiz-adv-x="321" 
d="M-2 -165l-21 29q116 80 175.5 202.5t59.5 253.5q0 130 -59.5 253.5t-175.5 202.5l21 29q124 -83 189 -214.5t65 -270.5t-65 -270.5t-189 -214.5z" />
    <glyph glyph-name="bracketleft.lin" horiz-adv-x="326" 
d="M107 -140v932h202v-35h-163v-862h163v-35h-202z" />
    <glyph glyph-name="bracketright.lin" horiz-adv-x="326" 
d="M17 -140v35h163v862h-163v35h203v-932h-203z" />
    <glyph glyph-name="braceleft.lin" horiz-adv-x="313" 
d="M261 -157q-89 1 -143.5 43.5t-54.5 103.5q0 34 16.5 61t54.5 69q55 59 55 95q0 40 -34 66t-84 26h-23v35h23q50 0 84 25.5t34 65.5q0 38 -55 95q-26 29 -37.5 44t-22.5 38.5t-11 47.5q0 61 54.5 103.5t143.5 43.5v-31q-77 -4 -118.5 -38t-41.5 -78q0 -39 64 -109
q63 -71 63 -115q0 -37 -28.5 -68t-83.5 -42q55 -10 83.5 -41.5t28.5 -67.5q0 -46 -63 -115q-64 -72 -64 -110q0 -44 41.5 -78t118.5 -38v-31z" />
    <glyph glyph-name="braceright.lin" horiz-adv-x="313" 
d="M53 -157v31q76 4 117 38t41 78q0 39 -62 110q-64 68 -64 115q0 36 28.5 67.5t83.5 41.5q-55 11 -83.5 42.5t-28.5 67.5q0 45 64 115q62 70 62 109q0 44 -41 78t-117 38v31q89 -1 143 -43.5t54 -103.5q0 -34 -17 -61.5t-54 -68.5q-55 -57 -55 -95q0 -40 34 -65.5t84 -25.5
h23v-35h-23q-50 0 -84 -26t-34 -66q0 -36 55 -95q37 -41 54 -68.5t17 -61.5q0 -61 -54 -103.5t-143 -43.5z" />
    <glyph glyph-name="registered.alt" horiz-adv-x="589" 
d="M294 -9q-108 0 -180 75t-72 184t72 184.5t180 75.5t180 -75.5t72 -183.5q0 -109 -72 -184.5t-180 -75.5zM294 15q97 0 161 69t64 167t-64 166.5t-161 68.5q-96 0 -160.5 -69t-64.5 -167q0 -97 64.5 -166t160.5 -69zM287 124h-97v23h36v217h-36v23h99q43 0 69 -20.5
t26 -54.5q0 -55 -58 -72l57 -93h33v-23h-51l-65 109h-48v-86h35v-23zM288 364h-36v-109h33q32 0 52 15t20 41q0 25 -18.5 39t-50.5 14z" />
    <glyph glyph-name="copyright.lin" horiz-adv-x="777" 
d="M388 -10q-140 0 -235 98.5t-95 240.5t95 240.5t235 98.5t235.5 -98.5t95.5 -240.5t-95.5 -240.5t-235.5 -98.5zM388 15q128 0 215 91t87 223t-87 223t-215 91q-127 0 -214 -91t-87 -223t87 -223t214 -91zM399 476q-57 0 -95 -42t-38 -101q0 -57 38 -98.5t97 -41.5t105 43
l18 -22q-51 -49 -123 -49q-74 0 -120 48.5t-46 118.5q0 74 48 123t117 49q50 0 86 -25.5t36 -56.5q0 -12 -7.5 -20t-18.5 -8q-10 0 -17 6.5t-7 16.5q0 13 14 19q-7 15 -31 27.5t-56 12.5z" />
    <glyph glyph-name="published.lin" horiz-adv-x="777" 
d="M388 -10q-140 0 -235 98.5t-95 240.5t95 240.5t235 98.5t235.5 -98.5t95.5 -240.5t-95.5 -240.5t-235.5 -98.5zM388 15q128 0 215 91t87 223t-87 223t-215 91q-127 0 -214 -91t-87 -223t87 -223t214 -91zM405 286q-10 0 -27.5 0.5t-21.5 0.5v-95h46v-27h-120v27h43v275
h-43v27h123q53 0 87 -28t34 -74q0 -50 -33 -78t-88 -28zM406 313q42 0 65.5 21t23.5 58q0 34 -25 54.5t-65 20.5h-49v-153q4 0 22 -0.5t28 -0.5z" />
    <glyph glyph-name="registered.lin" horiz-adv-x="777" 
d="M388 -10q-140 0 -235 98.5t-95 240.5t95 240.5t235 98.5t235.5 -98.5t95.5 -240.5t-95.5 -240.5t-235.5 -98.5zM388 15q128 0 215 91t87 223t-87 223t-215 91q-127 0 -214 -91t-87 -223t87 -223t214 -91zM339 307v-109h45v-27h-119v27h44v275h-44v27h124q53 0 85 -25.5
t32 -68.5q0 -35 -20.5 -58.5t-54.5 -31.5l74 -118h40v-27h-59l-83 136h-64zM339 334h46q40 0 65 19t25 52q0 32 -23.5 50t-64.5 18h-48v-139z" />
    <glyph glyph-name="dollar.lin" horiz-adv-x="544" 
d="M220 -94l8 97q-78 10 -127.5 48t-49.5 77q0 21 10 33t26 12q15 0 24.5 -9t9.5 -24q0 -24 -19 -38q13 -22 48 -41t81 -25l26 290q-83 29 -126.5 66.5t-43.5 102.5q0 72 54.5 117.5t143.5 44.5l8 89l35 -3l-8 -88q66 -8 110 -43t44 -75q0 -19 -10 -30t-24 -11
q-15 0 -25.5 10t-10.5 25q0 20 18 36q-24 42 -105 54l-23 -269q47 -17 75.5 -30t59 -34t44.5 -49.5t14 -65.5q0 -81 -63.5 -128t-160.5 -44l-8 -99zM448 170q0 55 -38 86t-119 58l-25 -281q83 -2 132.5 35.5t49.5 101.5zM126 498q0 -51 33.5 -81t100.5 -54l22 261
q-70 1 -113 -35.5t-43 -90.5z" />
    <glyph glyph-name="sterling.lin" horiz-adv-x="535" 
d="M42 19q0 19 22 34t65 16q54 65 54 152q0 23 -4 42h-105v34h98q-2 9 -7 24.5t-7 22.5q-30 84 -30 144q0 75 50.5 127t125.5 52q70 0 114 -34t44 -77q0 -20 -10 -30.5t-25 -10.5q-14 0 -24 9.5t-10 24.5q0 21 18 34q-24 49 -108 49q-58 0 -97 -42t-39 -102q0 -50 27 -133
q13 -42 16 -58h172v-34h-165q3 -21 3 -42q0 -96 -55 -151q37 -1 106 -21q71 -23 111 -23q36 0 57 17t33 53l32 -14q-27 -92 -121 -92q-49 0 -124 25q-71 23 -117 23q-30 -47 -69 -47q-31 0 -31 28z" />
    <glyph glyph-name="Euro.lin" horiz-adv-x="695" 
d="M27 382v35h100q25 115 103 182.5t184 67.5q89 1 151.5 -49.5t62.5 -111.5q0 -19 -11 -33t-28 -14q-15 0 -25 10.5t-10 24.5q0 30 30 38q-8 35 -57 67t-114 32q-92 0 -157.5 -57t-87.5 -157h268v-35h-274q-3 -27 -3 -57q0 -35 4 -62h273v-35h-267q22 -93 82.5 -147.5
t151.5 -54.5q112 0 194 80l25 -27q-87 -89 -219 -89q-107 0 -179.5 65t-95.5 173h-101v35h95q-4 25 -4 61q0 30 3 58h-94z" />
    <glyph glyph-name="yen.lin" horiz-adv-x="635" 
d="M195 0v35h102v118h-172v34h172v84h-172v33h154l-187 319h-75v35h204v-35h-82l179 -315l178 315h-82v35h203v-35h-76l-186 -319h154v-33h-172v-84h172v-34h-172v-118h102v-35h-244z" />
    <glyph glyph-name="cent.lin" horiz-adv-x="468" 
d="M194 -15l13 146q-76 17 -122 72.5t-46 133.5q0 91 60 153t146 65l10 115l34 -2l-10 -115q58 -7 98.5 -41t40.5 -73q0 -17 -10.5 -30t-27.5 -13q-12 0 -21 7.5t-9 22.5q0 9 7 19t18 14q-8 23 -35.5 40t-63.5 22l-33 -361q9 -1 28 -1q70 0 138 46l-3 -39q-61 -41 -138 -41
q-18 0 -27 1l-13 -144zM80 336q0 -64 35 -109t95 -61l32 355q-68 -4 -115 -54t-47 -131z" />
    <glyph glyph-name="numbersign.lin" horiz-adv-x="550" 
d="M57 429v31h131l31 198h35l-31 -198h143l31 198h34l-31 -198h132v-31h-137l-31 -207h128v-31h-133l-29 -191h-35l30 191h-143l-30 -191h-34l29 191h-130v31h135l32 207h-127zM218 429l-32 -207h143l32 207h-143z" />
    <glyph glyph-name="paragraph.lin" horiz-adv-x="636" 
d="M256 0v35h93v212q-20 -1 -73 -1q-108 0 -172.5 56.5t-64.5 151.5q0 92 68.5 148t172.5 56h308v-35h-87v-588h87v-35h-332zM389 34h71v590h-71v-590z" />
    <glyph glyph-name="section.lin" horiz-adv-x="525" 
d="M113 123q15 0 24.5 -9t9.5 -24q0 -16 -10 -27q11 -15 44 -26.5t71 -11.5q60 0 98 22.5t38 58.5q0 35 -31 54.5t-120 42.5q-85 22 -130 49.5t-45 76.5q0 40 31.5 71t88.5 48q-44 17 -65 40.5t-21 60.5q0 51 49.5 85t125.5 34q68 0 119 -28q54 -29 54 -68q0 -16 -10 -26.5
t-24 -10.5q-15 0 -24.5 9t-9.5 24q0 17 11 28q-7 8 -23 17q-38 20 -92 20q-60 0 -98 -22.5t-38 -59.5q0 -35 31 -54t120 -42q86 -22 130.5 -49.5t44.5 -76.5q0 -84 -119 -119q43 -17 64 -40t21 -60q0 -53 -49.5 -86.5t-126.5 -33.5q-90 0 -144 47q-27 24 -27 50q0 15 9 25.5
t23 10.5zM265 423l-47 12q-114 -31 -114 -102q0 -34 35.5 -55.5t119.5 -42.5l46 -12q115 33 115 102q0 35 -35 56t-120 42z" />
    <glyph glyph-name="ordfeminine.lin" horiz-adv-x="321" 
d="M121 481q-38 0 -61 20.5t-23 51.5q0 34 27 55t68 21t76 -13v37q0 33 -18 48q-16 15 -50 15t-49 -15q4 -5 4 -15q0 -21 -21 -21q-10 0 -16 6.5t-6 16.5q0 20 25 36.5t65 16.5t65 -17q30 -22 30 -66v-147h42v-25h-70v36q-39 -41 -88 -41zM43 387v27h236v-27h-236zM126 506
q46 0 82 41v48q-34 12 -74 12q-32 0 -49.5 -14.5t-17.5 -37.5q0 -21 15.5 -35t43.5 -14z" />
    <glyph glyph-name="ordmasculine.lin" horiz-adv-x="337" 
d="M56 387v27h225v-27h-225zM169 482q-56 0 -92 37.5t-36 92.5t36 92.5t92 37.5t91.5 -37t35.5 -93q0 -55 -35.5 -92.5t-91.5 -37.5zM169 507q42 0 69.5 30t27.5 75t-27.5 75t-69.5 30q-43 0 -70.5 -30t-27.5 -75t27.5 -75t70.5 -30z" />
    <glyph glyph-name="degree.lin" horiz-adv-x="283" 
d="M142 493q-52 0 -86.5 36t-34.5 87t34.5 87t86.5 36q51 0 85 -35.5t34 -87.5q0 -51 -34 -87t-85 -36zM142 520q38 0 62.5 27.5t24.5 68.5t-24.5 68.5t-62.5 27.5q-39 0 -64 -27.5t-25 -68.5t25 -68.5t64 -27.5z" />
    <glyph glyph-name="percent.lin" horiz-adv-x="628" 
d="M32 525q0 60 39.5 101.5t97.5 41.5t98 -41.5t40 -101.5q0 -59 -40 -100.5t-98 -41.5t-97.5 41t-39.5 101zM322 133q0 60 39 101t98 41q58 0 97.5 -41t39.5 -101t-39.5 -101.5t-97.5 -41.5q-59 0 -98 41.5t-39 101.5zM358 133q0 -46 28.5 -78.5t72.5 -32.5t72.5 32.5
t28.5 78.5t-29 78.5t-72 32.5t-72 -32.5t-29 -78.5zM68 525q0 -46 29 -78.5t72 -32.5q44 0 72.5 32.5t28.5 78.5t-28.5 78.5t-72.5 32.5t-72.5 -32.5t-28.5 -78.5zM101 -7l-28 19l226 325q220 317 229 328l28 -18l-229 -329l-75.5 -107l-102 -147.5z" />
    <glyph glyph-name="perthousand.lin" horiz-adv-x="953" 
d="M32 525q0 60 39.5 101.5t97.5 41.5t98 -41.5t40 -101.5q0 -59 -40 -100.5t-98 -41.5t-97.5 41t-39.5 101zM322 133q0 60 39 101t98 41q58 0 97.5 -41t39.5 -101t-39.5 -101.5t-97.5 -41.5q-59 0 -98 41.5t-39 101.5zM647 133q0 60 39.5 101t97.5 41t97.5 -41t39.5 -101
t-39.5 -101.5t-97.5 -41.5t-97.5 41.5t-39.5 101.5zM358 133q0 -46 28.5 -78.5t72.5 -32.5t72.5 32.5t28.5 78.5t-29 78.5t-72 32.5t-72 -32.5t-29 -78.5zM683 133q0 -46 28.5 -78.5t72.5 -32.5t72.5 32.5t28.5 78.5t-29 78.5t-72 32.5t-72 -32.5t-29 -78.5zM68 525
q0 -46 29 -78.5t72 -32.5q44 0 72.5 32.5t28.5 78.5t-28.5 78.5t-72.5 32.5t-72.5 -32.5t-28.5 -78.5zM101 -7l-28 19l226 325q220 317 229 328l28 -18l-229 -329l-75.5 -107l-102 -147.5z" />
    <glyph glyph-name="quotedbl.lin" horiz-adv-x="267" 
d="M191 538l-21 155q-6 47 29 47q16 0 24 -12.5t4 -34.5l-21 -155h-15zM60 538l-21 155q-3 22 5 34.5t24 12.5q36 0 28 -47l-21 -155h-15z" />
    <glyph glyph-name="quotesingle.lin" horiz-adv-x="137" 
d="M60 538l-21 155q-3 22 5 34.5t24 12.5q36 0 28 -47l-21 -155h-15z" />
    <glyph glyph-name="plus.lin" horiz-adv-x="390" 
d="M177 181v137h-135v35h135v137h36v-137h135v-35h-135v-137h-36z" />
    <glyph glyph-name="minus.lin" horiz-adv-x="390" 
d="M42 318v35h306v-35h-306z" />
    <glyph glyph-name="divide.lin" horiz-adv-x="390" 
d="M348 318h-306v35h306v-35zM195 426q-14 0 -24 10t-10 24t10 24.5t24 10.5q13 0 23 -10.5t10 -24.5t-9.5 -24t-23.5 -10zM195 176q-14 0 -24 10.5t-10 24.5t10 24t24 10t23.5 -10t9.5 -24t-10 -24.5t-23 -10.5z" />
    <glyph glyph-name="equal.lin" horiz-adv-x="390" 
d="M42 379v35h306v-35h-306zM42 237v34h306v-34h-306z" />
    <glyph glyph-name="multiply.lin" horiz-adv-x="390" 
d="M308 197l-114 114l-112 -113l-25 24l113 113l-113 113l25 26l113 -114l113 113l24 -25l-113 -112l114 -114z" />
    <glyph glyph-name="less.lin" horiz-adv-x="370" 
d="M283 162l-239 157v14l239 157l19 -28l-207 -136l207 -136z" />
    <glyph glyph-name="greater.lin" horiz-adv-x="370" 
d="M87 162l-19 28l207 136l-207 136l19 28l239 -157v-14z" />
    <glyph glyph-name="plusminus.lin" horiz-adv-x="390" 
d="M177 222v138h-135v34h135v137h36v-137h135v-34h-135v-138h-36zM42 118v35h306v-35h-306z" />
    <glyph glyph-name="zero.tab" 
d="M265 -11q-95 0 -157 94t-62 246q0 153 62 247.5t157 94.5t157 -94.5t62 -247.5q0 -152 -62 -246t-157 -94zM265 633q-79 0 -128.5 -83t-49.5 -219t49.5 -220t128.5 -84t128.5 84t49.5 220t-49.5 219t-128.5 83z" />
    <glyph glyph-name="one.tab" 
d="M83 0v36h171v581l-165 -47l-8 38l191 54h23v-626h168v-36h-380z" />
    <glyph glyph-name="two.tab" 
d="M455 497q0 -70 -38 -116.5t-126 -111.5q-161 -119 -192 -233h328v113h40v-149h-408l-9 18q22 87 78 152t141 129q75 57 109.5 99t34.5 99q0 59 -44 97.5t-109 38.5q-50 0 -88 -20t-55 -52q-7 -12 -9 -22q15 -3 23.5 -13.5t8.5 -23.5q0 -15 -10 -25.5t-26 -10.5
q-17 0 -28 13t-11 37q0 31 17 59q23 41 70.5 67.5t109.5 26.5q83 0 138 -47.5t55 -124.5z" />
    <glyph glyph-name="three.tab" 
d="M249 -10q-58 0 -107 22t-76 58q-20 28 -20 58q0 19 10.5 32t26.5 13q14 0 24 -10t10 -24q0 -27 -28 -34q6 -14 15 -23q21 -23 60 -39t85 -16q80 0 129.5 43t49.5 103q0 92 -102 131q-50 21 -122 21h-20v36h24q65 0 120 29q85 41 85 118q0 56 -43.5 90.5t-116.5 34.5
q-85 0 -133 -54q-9 -9 -15 -23q28 -9 28 -35q0 -14 -9.5 -24t-23.5 -10q-16 0 -27 11.5t-11 31.5q0 29 20 58q25 36 70 59t104 23q87 0 142 -45t55 -117q0 -92 -101 -140q-43 -18 -73 -22q45 -7 71 -18q55 -21 86.5 -60t31.5 -93q0 -80 -61 -132.5t-158 -52.5z" />
    <glyph glyph-name="four.tab" 
d="M210 0v36h122v164h-307l-7 15l338 456l32 -22l-309 -414h253v184l41 18v-202h118v-35h-118v-164h101v-36h-264z" />
    <glyph glyph-name="five.tab" 
d="M244 -11q-104 0 -161 55q-29 29 -29 58q0 17 10.5 29t27.5 12q14 0 23.5 -9.5t9.5 -23.5q0 -23 -20 -32q10 -12 17 -17q41 -33 125 -33q82 0 134.5 49t52.5 126q0 72 -50.5 116.5t-135.5 44.5q-74 0 -148 -33l-17 8l36 319h314v-41h-281l-27 -237q55 23 126 23
q97 0 160.5 -53t63.5 -146q0 -98 -66 -156.5t-165 -58.5z" />
    <glyph glyph-name="six.tab" 
d="M415 524q-15 0 -25 10.5t-10 24.5q0 20 16 30q-11 19 -38.5 31t-60.5 12q-89 0 -147.5 -97t-58.5 -259v-6q12 36 38 65q60 65 146 65q90 0 147.5 -57t57.5 -145t-59 -148.5t-148 -60.5q-93 0 -152 61q-69 72 -69 228q0 196 74.5 294.5t174.5 98.5q71 0 117 -41
q32 -30 32 -64q0 -19 -9.5 -30.5t-25.5 -11.5zM274 27q71 0 118 48.5t47 121.5q0 72 -47 119t-118 47q-72 0 -121 -49.5t-49 -118.5q0 -72 50 -120q48 -48 120 -48z" />
    <glyph glyph-name="seven.tab" 
d="M152 0l282 622h-341v-112h-40v148h431l6 -12l-293 -646h-45z" />
    <glyph glyph-name="eight.tab" 
d="M265 27q73 0 122 41.5t49 106.5q0 62 -50.5 105.5t-120.5 43.5t-120.5 -43.5t-50.5 -105.5q0 -65 49 -106.5t122 -41.5zM265 670q84 0 141 -46.5t57 -124.5q0 -55 -37.5 -98t-94.5 -58q56 -10 101 -58t45 -110q0 -82 -61 -133.5t-151 -51.5t-151 51.5t-61 133.5
q0 62 45 110t101 58q-57 15 -94.5 58t-37.5 98q0 78 57 124.5t141 46.5zM265 361q67 0 112 39t45 97t-44.5 97t-112.5 39t-112.5 -39t-44.5 -97t45 -97t112 -39z" />
    <glyph glyph-name="nine.tab" 
d="M478 382q0 -196 -73.5 -294.5t-172.5 -98.5q-70 0 -119 41q-36 31 -36 63q0 18 10 29.5t25 11.5t25.5 -10t10.5 -25q0 -21 -19 -30q7 -9 18 -19q30 -24 90 -24q87 0 144.5 97.5t57.5 260.5q-12 -37 -39 -65q-59 -67 -145 -67q-90 0 -147.5 58.5t-57.5 147.5t59 151
t148 62q93 0 152 -62q69 -71 69 -227zM256 633q-70 0 -117 -49.5t-47 -123.5t46.5 -122t117.5 -48q72 0 121 50t49 121q0 73 -49 122q-50 50 -121 50z" />
    <glyph glyph-name="period.tab" horiz-adv-x="265" 
d="M133 -9q-18 0 -30 12.5t-12 30.5t12 30.5t30 12.5t30 -12.5t12 -30.5t-12 -30.5t-30 -12.5z" />
    <glyph glyph-name="comma.tab" horiz-adv-x="265" 
d="M68 -132l-11 16q72 56 74 111q-16 0 -28.5 12.5t-12.5 28.5t12 27.5t28 11.5q20 0 32.5 -15t12.5 -42q0 -38 -26 -78t-81 -72z" />
    <glyph glyph-name="colon.tab" horiz-adv-x="265" 
d="M133 -9q-18 0 -30 12.5t-12 30.5t12 30.5t30 12.5t30 -12.5t12 -30.5t-12 -30.5t-30 -12.5zM133 269q-18 0 -30 12.5t-12 30.5q0 19 11.5 31.5t30.5 12.5t30.5 -12.5t11.5 -31.5q0 -18 -12 -30.5t-30 -12.5z" />
    <glyph glyph-name="semicolon.tab" horiz-adv-x="265" 
d="M69 -132l-11 16q71 56 73 111q-15 0 -27.5 12.5t-12.5 28.5t12 27.5t28 11.5q19 0 31.5 -15t12.5 -42q0 -38 -25.5 -78t-80.5 -72zM133 269q-18 0 -30 12.5t-12 30.5q0 19 11.5 31.5t30.5 12.5t30.5 -12.5t11.5 -31.5q0 -18 -12 -30.5t-30 -12.5z" />
    <glyph glyph-name="twodotleader.tab" 
d="M133 -9q-18 0 -30 12.5t-12 30.5t12 30.5t30 12.5t30 -12.5t12 -30.5t-12 -30.5t-30 -12.5zM398 -9q-18 0 -30 12.5t-12 30.5t12 30.5t30 12.5t30 -12.5t12 -30.5t-12 -30.5t-30 -12.5z" />
    <glyph glyph-name="periodcentered.tab" horiz-adv-x="265" 
d="M133 201q-18 0 -30 12.5t-12 30.5q0 19 11.5 31.5t30.5 12.5t30.5 -12.5t11.5 -31.5q0 -18 -12 -30.5t-30 -12.5z" />
    <glyph glyph-name="slash.tab" 
d="M18 -205l-32 16l471 927l32 -16z" />
    <glyph glyph-name="bar.tab" horiz-adv-x="265" 
d="M116 -200v932h34v-932h-34z" />
    <glyph glyph-name="underscore.tab" 
d="M-5 -133v38h540v-38h-540z" />
    <glyph glyph-name="dollar.tab" 
d="M100 107q13 -24 46 -44t77 -27l25 287q-80 31 -122 71.5t-42 104.5q0 67 52 112.5t137 45.5h4l8 89l34 -3l-8 -89q66 -9 109.5 -43.5t43.5 -77.5q0 -19 -9.5 -30t-24.5 -11t-25 10t-10 25q0 20 18 36q-11 20 -40 36t-65 22l-23 -270q91 -34 138 -74.5t47 -107.5
q0 -77 -59 -123.5t-151 -46.5h-6l-8 -97l-34 3l8 96q-75 10 -123 50.5t-48 81.5q0 21 10.5 33t26.5 12q14 0 24 -9t10 -24q0 -23 -20 -38zM431 166q0 52 -37 85.5t-113 60.5l-24 -278h5q76 0 122.5 36.5t46.5 95.5zM123 502q0 -49 32.5 -80.5t96.5 -57.5l22 260h-2
q-66 0 -107.5 -35.5t-41.5 -86.5z" />
    <glyph glyph-name="sterling.tab" 
d="M40 19q0 19 21 32.5t62 14.5q61 68 61 154q0 24 -4 43h-107v33h100q-1 3 -14 48q-28 84 -28 145q0 76 51 126.5t124 50.5q68 0 111.5 -34t43.5 -77q0 -20 -10.5 -30.5t-25.5 -10.5q-14 0 -24 9.5t-10 24.5q0 18 17 33q-24 49 -103 49q-57 0 -97 -39.5t-40 -100.5
q0 -44 26 -137q13 -43 16 -57h172v-33h-165q3 -23 3 -44q0 -97 -55 -150q2 1 7 1q32 0 97 -20q74 -23 107 -23q39 0 58 16t34 52l33 -14q-31 -91 -123 -91q-37 0 -120 26q-69 21 -105 21q-8 0 -12 -1q-30 -45 -70 -45q-31 0 -31 28z" />
    <glyph glyph-name="Euro.tab" 
d="M418 508q0 27 28 37q-9 31 -43 58.5t-84 27.5q-69 -1 -117.5 -58.5t-64.5 -158.5h213v-35h-217q-2 -36 -2 -54q0 -31 3 -59h216v-34h-212q16 -93 62 -149t114 -56q81 0 148 79l25 -26q-71 -91 -174 -91q-85 0 -142 66.5t-75 176.5h-70v34h66q-3 28 -3 59q0 18 2 54h-65
v35h69q19 117 81 185t146 68q71 1 119.5 -45.5t48.5 -101.5q0 -20 -10 -33t-28 -13q-15 0 -24.5 10t-9.5 24z" />
    <glyph glyph-name="yen.tab" 
d="M150 0v36h94v118h-150v34h150v84h-150v34h140l-162 316h-69v36h198v-36h-86l151 -298l150 298h-87v36h198v-36h-70l-162 -316h141v-34h-151v-84h151v-34h-151v-118h95v-36h-230z" />
    <glyph glyph-name="cent.tab" 
d="M445 205l-3 -40q-60 -43 -141 -43q-20 0 -30 1l-13 -141l-34 3l13 144q-78 18 -125.5 75t-47.5 134q0 91 61 153t150 66l10 113l35 -2l-10 -113q60 -7 102.5 -42t42.5 -77q0 -18 -10.5 -31t-27.5 -13q-12 0 -21 8t-9 21q0 23 25 34q-9 25 -38.5 43t-67.5 23l-32 -363
q9 -1 30 -1q73 0 141 48zM105 337q0 -65 36.5 -110.5t98.5 -61.5l31 357q-69 -4 -117.5 -53.5t-48.5 -131.5z" />
    <glyph glyph-name="numbersign.tab" 
d="M55 428v31h127l31 198h34l-31 -198h138l30 198h34l-31 -198h129v-31h-134l-31 -207h125v-30h-130l-29 -191h-34l29 191h-137l-29 -191h-34l29 191h-126v30h131l32 207h-123zM211 428l-32 -207h138l32 207h-138z" />
    <glyph glyph-name="paragraph.tab" 
d="M321 34h57v590h-57v-590zM32 454q0 92 63.5 148t163.5 56h238v-36h-82v-586h82v-36h-299v36h86v212q-24 -2 -33 -2q-98 0 -158.5 57t-60.5 151z" />
    <glyph glyph-name="section.tab" 
d="M113 125q15 0 24.5 -9t9.5 -24q0 -16 -11 -26q13 -16 46.5 -28.5t69.5 -12.5q63 0 101.5 23t38.5 58q0 33 -30.5 52.5t-120.5 43.5t-135 52t-45 76q0 38 33.5 68.5t89.5 48.5q-46 18 -67.5 41.5t-21.5 59.5q0 49 51.5 84.5t130.5 35.5q74 0 126 -34q46 -29 46 -63
q0 -17 -9.5 -28t-23.5 -11q-15 0 -24.5 9t-9.5 24q0 17 12 27q-5 8 -18 16q-41 26 -99 26q-62 0 -101 -24t-39 -61q0 -32 31.5 -51t119.5 -42q89 -23 134.5 -51.5t45.5 -75.5q0 -38 -33 -69t-88 -50q44 -16 65 -39.5t21 -60.5q0 -51 -50 -85.5t-130 -34.5q-93 0 -146 49
q-27 25 -27 50q0 15 9.5 25.5t23.5 10.5zM265 424l-46 12q-53 -15 -84 -41.5t-31 -59.5q0 -34 36 -56.5t124 -43.5l46 -12q54 16 84 42.5t30 59.5t-35.5 55t-123.5 44z" />
    <glyph glyph-name="degree.tab" 
d="M263 388q-77 0 -125.5 51.5t-48.5 125.5q0 75 48.5 126.5t125.5 51.5t125.5 -51.5t48.5 -126.5q0 -74 -48.5 -125.5t-125.5 -51.5zM263 714q-62 0 -101.5 -43t-39.5 -106q0 -62 39.5 -105t101.5 -43t101.5 43t39.5 105q0 63 -39.5 106t-101.5 43z" />
    <glyph glyph-name="percent.tab" 
d="M26 525q0 61 32.5 102t83.5 41t83.5 -41t32.5 -102q0 -60 -32.5 -101t-83.5 -41t-83.5 41t-32.5 101zM271 133q0 60 33 101t83 41t83 -41t33 -101t-33 -101.5t-83 -41.5t-83 41t-33 102zM59 525q0 -47 23.5 -80t59.5 -33q37 0 60.5 33t23.5 80q0 48 -23.5 81t-60.5 33
q-36 0 -59.5 -33t-23.5 -81zM306 133q0 -48 22.5 -80t58.5 -32t58.5 32t22.5 80q0 47 -22.5 79t-58.5 32t-58.5 -32t-22.5 -79zM84 -6l-27 15q2 4 37.5 63l86.5 143.5l71 118.5l197 330l26 -16l-196 -329q-176 -296 -195 -325z" />
    <glyph glyph-name="quotedbl.tab" 
d="M169 492l-22 204q-3 20 5 32.5t24 12.5t24.5 -12t4.5 -33l-22 -204h-14zM347 492l-22 204q-4 20 4 32.5t25 12.5q35 0 29 -45l-22 -204h-14z" />
    <glyph glyph-name="quotesingle.tab" horiz-adv-x="265" 
d="M125 492l-22 204q-3 20 5 32.5t25 12.5q15 0 23.5 -12t5.5 -33l-23 -204h-14z" />
    <glyph glyph-name="plus.tab" 
d="M247 162v157h-155v35h155v157h36v-157h155v-35h-155v-157h-36z" />
    <glyph glyph-name="minus.tab" 
d="M92 319v35h346v-35h-346z" />
    <glyph glyph-name="divide.tab" 
d="M438 319h-346v35h346v-35zM265 448q-14 0 -24 10t-10 24t10 24.5t24 10.5q13 0 23 -10.5t10 -24.5t-9.5 -24t-23.5 -10zM265 157q-14 0 -24 10t-10 24t10 24.5t24 10.5q13 0 23 -10.5t10 -24.5t-9.5 -24t-23.5 -10z" />
    <glyph glyph-name="equal.tab" 
d="M92 394v34h346v-34h-346zM92 226v35h346v-35h-346z" />
    <glyph glyph-name="multiply.tab" 
d="M398 179l-133 133l-133 -133l-24 25l133 132l-134 134l25 25l134 -134l132 133l24 -24l-133 -133l134 -133z" />
    <glyph glyph-name="less.tab" 
d="M383 145l-279 179v9l279 179l19 -28l-244 -156l244 -155z" />
    <glyph glyph-name="greater.tab" 
d="M147 512l279 -179v-9l-279 -179l-19 28l244 155l-244 156z" />
    <glyph glyph-name="plusminus.tab" 
d="M247 213v157h-155v35h155v157h36v-157h155v-35h-155v-157h-36zM92 100v35h346v-35h-346z" />
    <glyph glyph-name="zero.idx_P2D" horiz-adv-x="1088" 
d="M544 792q133 0 245 -66t176.5 -179t64.5 -247t-64.5 -247t-176.5 -179t-245 -66q-134 0 -246 66t-176.5 179t-64.5 247t64.5 247t176.5 179t246 66zM544 765q-126 0 -231 -62.5t-165 -169t-60 -233.5t60 -233.5t165 -169t231 -62.5t231 62.5t165 169t60 233.5t-60 233.5
t-165 169t-231 62.5zM542 65q-76 0 -126.5 67.5t-50.5 174.5q0 108 51 174.5t128 66.5q76 0 127 -67t51 -174q0 -108 -51.5 -175t-128.5 -67zM543 100q63 0 101.5 57.5t38.5 149.5t-39 149.5t-101 57.5t-101 -57.5t-39 -149.5t39 -149.5t101 -57.5z" />
    <glyph glyph-name="one.idx_P2D" horiz-adv-x="1088" 
d="M544 792q133 0 245 -66t176.5 -179t64.5 -247t-64.5 -247t-176.5 -179t-245 -66q-134 0 -246 66t-176.5 179t-64.5 247t64.5 247t176.5 179t246 66zM544 765q-126 0 -231 -62.5t-165 -169t-60 -233.5t60 -233.5t165 -169t231 -62.5t231 62.5t165 169t60 233.5t-60 233.5
t-165 169t-231 62.5zM675 73h-255v34h110v395l-106 -24l-8 33l134 32h18v-436h107v-34z" />
    <glyph glyph-name="two.idx_P2D" horiz-adv-x="1088" 
d="M544 792q133 0 245 -66t176.5 -179t64.5 -247t-64.5 -247t-176.5 -179t-245 -66q-134 0 -246 66t-176.5 179t-64.5 247t64.5 247t176.5 179t246 66zM544 765q-126 0 -231 -62.5t-165 -169t-60 -233.5t60 -233.5t165 -169t231 -62.5t231 62.5t165 169t60 233.5t-60 233.5
t-165 169t-231 62.5zM402 439q0 20 12 41q16 30 51 49t81 19q61 0 102.5 -35.5t41.5 -88.5q0 -35 -17 -64.5t-37.5 -47.5t-62.5 -48q-55 -39 -90 -76t-49 -82h230v81h34v-114h-299l-10 16q19 66 60 112.5t102 88.5q52 36 76 65t24 69q0 39 -30.5 65t-75.5 26q-66 0 -95 -42
q-7 -10 -8 -15q22 -8 22 -29q0 -13 -8.5 -21.5t-20.5 -8.5q-33 0 -33 40z" />
    <glyph glyph-name="three.idx_P2D" horiz-adv-x="1088" 
d="M544 792q133 0 245 -66t176.5 -179t64.5 -247t-64.5 -247t-176.5 -179t-245 -66q-134 0 -246 66t-176.5 179t-64.5 247t64.5 247t176.5 179t246 66zM544 765q-126 0 -231 -62.5t-165 -169t-60 -233.5t60 -233.5t165 -169t231 -62.5t231 62.5t165 169t60 233.5t-60 233.5
t-165 169t-231 62.5zM392 162q0 15 9 26t22 11q12 0 20.5 -9t8.5 -20q0 -18 -19 -27q3 -7 10 -12q29 -31 96 -31q54 0 86.5 28t32.5 69q0 58 -59 85q-37 17 -89 17h-15v33h18q54 0 91 27q41 27 41 72q0 38 -28 60t-76 22q-64 0 -90 -33q-3 -3 -7 -9h1q19 -5 19 -25
q0 -12 -8.5 -20.5t-19.5 -8.5q-13 0 -22 10t-9 27q0 21 15 42q40 51 123 51q61 0 100.5 -32.5t39.5 -82.5q0 -61 -57 -95q-22 -13 -50 -19q23 -4 49 -16q70 -33 70 -105q0 -57 -43.5 -93.5t-112.5 -36.5q-85 0 -127 47q-20 22 -20 48z" />
    <glyph glyph-name="four.idx_P2D" horiz-adv-x="1088" 
d="M544 792q133 0 245 -66t176.5 -179t64.5 -247t-64.5 -247t-176.5 -179t-245 -66q-134 0 -246 66t-176.5 179t-64.5 247t64.5 247t176.5 179t246 66zM544 765q-126 0 -231 -62.5t-165 -169t-60 -233.5t60 -233.5t165 -169t231 -62.5t231 62.5t165 169t60 233.5t-60 233.5
t-165 169t-231 62.5zM477 73v33h95v109h-221l-8 15l245 321l28 -20l-218 -285h174v119l38 17v-136h88v-32h-88v-108h74v-33h-207z" />
    <glyph glyph-name="five.idx_P2D" horiz-adv-x="1088" 
d="M544 792q133 0 245 -66t176.5 -179t64.5 -247t-64.5 -247t-176.5 -179t-245 -66q-134 0 -246 66t-176.5 179t-64.5 247t64.5 247t176.5 179t246 66zM544 765q-126 0 -231 -62.5t-165 -169t-60 -233.5t60 -233.5t165 -169t231 -62.5t231 62.5t165 169t60 233.5t-60 233.5
t-165 169t-231 62.5zM535 65q-58 0 -100.5 24.5t-42.5 57.5q0 13 8 23t22 10q12 0 20 -8.5t8 -19.5q0 -16 -11 -22q8 -13 35 -22t61 -9q53 0 86 33t33 86q0 50 -31 80.5t-87 30.5q-62 0 -108 -23l-17 10l23 225h231v-37h-200l-17 -155q37 14 91 14q68 0 110.5 -38.5
t42.5 -105.5q0 -70 -45 -112t-112 -42z" />
    <glyph glyph-name="six.idx_P2D" horiz-adv-x="1088" 
d="M544 792q133 0 245 -66t176.5 -179t64.5 -247t-64.5 -247t-176.5 -179t-245 -66q-134 0 -246 66t-176.5 179t-64.5 247t64.5 247t176.5 179t246 66zM544 765q-126 0 -231 -62.5t-165 -169t-60 -233.5t60 -233.5t165 -169t231 -62.5t231 62.5t165 169t60 233.5t-60 233.5
t-165 169t-231 62.5zM679 472q0 -15 -8 -23.5t-21 -8.5t-21 8t-8 20t9 21q-1 4 -8 9q-20 16 -58 16q-64 0 -105 -62.5t-42 -176.5q14 37 50.5 60t81.5 23q68 0 111 -41t43 -104t-44.5 -105.5t-110.5 -42.5q-69 0 -115 46q-52 52 -52 160q0 138 53.5 207.5t131.5 69.5
q47 0 79 -22q34 -22 34 -54zM424 215q0 -46 36 -82q38 -35 88 -35t83.5 32.5t33.5 81.5t-33 81t-85 32q-51 0 -87 -32.5t-36 -77.5z" />
    <glyph glyph-name="seven.idx_P2D" horiz-adv-x="1088" 
d="M544 792q133 0 245 -66t176.5 -179t64.5 -247t-64.5 -247t-176.5 -179t-245 -66q-134 0 -246 66t-176.5 179t-64.5 247t64.5 247t176.5 179t246 66zM544 765q-126 0 -231 -62.5t-165 -169t-60 -233.5t60 -233.5t165 -169t231 -62.5t231 62.5t165 169t60 233.5t-60 233.5
t-165 169t-231 62.5zM514 68h-39l196 435h-229v-80h-36v112h304l7 -14z" />
    <glyph glyph-name="eight.idx_P2D" horiz-adv-x="1088" 
d="M544 792q133 0 245 -66t176.5 -179t64.5 -247t-64.5 -247t-176.5 -179t-245 -66q-134 0 -246 66t-176.5 179t-64.5 247t64.5 247t176.5 179t246 66zM544 765q-126 0 -231 -62.5t-165 -169t-60 -233.5t60 -233.5t165 -169t231 -62.5t231 62.5t165 169t60 233.5t-60 233.5
t-165 169t-231 62.5zM544 67q-69 0 -113.5 36t-44.5 94q0 42 30 75.5t71 43.5q-40 11 -65.5 40.5t-25.5 66.5q0 56 42.5 90t105.5 34q62 0 104.5 -34t42.5 -90q0 -37 -25.5 -66.5t-65.5 -40.5q42 -10 71.5 -43.5t29.5 -75.5q0 -57 -44 -93.5t-113 -36.5zM544 331q47 0 78 26
t31 65t-31.5 65.5t-77.5 26.5q-47 0 -78.5 -26.5t-31.5 -65.5q0 -38 32 -64.5t78 -26.5zM544 100q52 0 85.5 27.5t33.5 71.5q0 41 -35 70.5t-84 29.5q-50 0 -85 -29.5t-35 -70.5q0 -44 34 -71.5t86 -27.5z" />
    <glyph glyph-name="nine.idx_P2D" horiz-adv-x="1088" 
d="M544 792q133 0 245 -66t176.5 -179t64.5 -247t-64.5 -247t-176.5 -179t-245 -66q-134 0 -246 66t-176.5 179t-64.5 247t64.5 247t176.5 179t246 66zM544 765q-126 0 -231 -62.5t-165 -169t-60 -233.5t60 -233.5t165 -169t231 -62.5t231 62.5t165 169t60 233.5t-60 233.5
t-165 169t-231 62.5zM408 141q0 15 8 24t20 9q13 0 21 -8.5t8 -20.5q0 -13 -10 -20q3 -5 7 -7q22 -20 65 -20q63 0 103.5 58.5t41.5 171.5q-16 -33 -51.5 -55t-80.5 -22q-69 0 -111 41t-42 106q0 64 44 107t111 43t113 -44q53 -53 53 -164q0 -142 -51 -208.5t-131 -66.5
q-57 0 -94 32q-24 21 -24 44zM665 393q0 53 -37 88q-36 34 -87 34q-50 0 -83 -33t-33 -83q0 -51 32.5 -82.5t84.5 -31.5t87.5 31.5t35.5 76.5z" />
    <glyph glyph-name="space.tab" horiz-adv-x="265" 
 />
    <glyph glyph-name="NUL" horiz-adv-x="0" 
 />
    <glyph glyph-name="hfjslug" horiz-adv-x="697" 
d="M646 -200h-208l-8 14h-163l-8 -14h-207v303q14 0 23 9.5t9 22.5t-9.5 22.5t-22.5 9.5v554h100l30 79h334l29 -79h101v-921zM402 563v-172h15v78h38v14h-38v66h43v14h-58zM186 563v-172h15v79h47v-79h15v172h-15v-79h-47v79h-15zM462 394q10 -4 21 -4q31 0 31 36v137h-16
v-137q0 -22 -16 -22q-8 0 -20 5v-15zM373 465l-13 3q-4 -18 -8 -30h-1l-16 31q23 21 23 42q0 12 -7 21.5t-20 9.5q-12 0 -20 -9.5t-8 -21.5q0 -13 14 -39q-23 -18 -23 -47q0 -16 8 -26.5t21 -10.5q19 0 29 24h1l12 -24l12 6l-17 32q6 14 13 39zM525 323v-46h8v12l8 8l15 -20
h10l-20 26l18 20h-10l-20 -24h-1v24h-8zM490 292l10 -15h9l-12 17q10 4 10 14q0 15 -17 15h-20v-46h8v15h12zM428 276q10 0 17 7t7 17q0 9 -7 16.5t-17 7.5t-17 -7.5t-7 -16.5q0 -10 7 -17t17 -7zM372 301l-13 22h-9l18 -29v-17h8v17l18 29h-9zM195 323v-46h34v7h-26v13h23
v7h-23v12h26v7h-34zM134 323v-46h8v32l25 -32h7v46h-8v-32l-25 32h-7zM243 323l14 -47h8l11 34h1l11 -34h8l14 47h-8l-10 -35h-1l-11 35h-7l-11 -35h-1l-10 35h-8zM329 479q-12 22 -12 32q0 19 14 19q13 0 13 -19q0 -15 -15 -32zM344 423q-8 -21 -20 -21q-16 0 -16 25
q0 19 16 35zM489 299h-11v17h11q10 0 10 -8q0 -9 -10 -9zM428 283q-16 0 -16 17q0 6 4.5 11.5t11.5 5.5t11.5 -5.5t4.5 -11.5q0 -17 -16 -17z" />
    <glyph glyph-name="A.sc" horiz-adv-x="577" 
d="M166 499h245v-33h-86l167 -433h74v-33h-204v33h91l-56 145h-220l-55 -145h92v-33h-204v33h75l166 433h-85v33zM287 469l-98 -258h196z" />
    <glyph glyph-name="B.sc" horiz-adv-x="514" 
d="M170 33h117q63 0 98.5 28t35.5 75q0 51 -37.5 77t-106.5 26h-107v-206zM170 271h108q64 0 96.5 27.5t32.5 72.5q0 43 -33 69t-95 26h-109v-195zM285 0h-247v33h95v433h-95v33h242q83 0 124 -35.5t41 -89.5q0 -46 -28 -77t-77 -41q56 -10 87.5 -40.5t31.5 -80.5
q0 -62 -46 -98.5t-128 -36.5z" />
    <glyph glyph-name="C.sc" horiz-adv-x="547" 
d="M469 96l21 -26q-76 -78 -188 -78q-111 0 -182 73.5t-71 184.5q0 108 72 183t182 75q75 0 129.5 -38.5t54.5 -84.5q0 -20 -9.5 -32t-25.5 -12q-14 0 -22.5 8.5t-8.5 22.5q0 23 22 31q-9 27 -48 49t-92 22q-92 0 -153.5 -64.5t-61.5 -159.5q0 -97 60.5 -160.5t153.5 -63.5
q95 0 167 70z" />
    <glyph glyph-name="D.sc" horiz-adv-x="592" 
d="M170 33h90q117 0 181 60.5t64 161.5q0 98 -68 154.5t-181 56.5h-86v-433zM256 0h-218v33h95v433h-95v33h218q131 0 209 -66t78 -178q0 -115 -76.5 -185t-210.5 -70z" />
    <glyph glyph-name="E.sc" horiz-adv-x="494" 
d="M434 0h-396v33h95v433h-95v33h396v-131h-35v98h-229v-196h182v-34h-182v-203h229v97h35v-130z" />
    <glyph glyph-name="F.sc" horiz-adv-x="473" 
d="M270 0h-232v33h95v433h-95v33h394v-131h-35v98h-227v-202h176v-33h-176v-198h100v-33z" />
    <glyph glyph-name="G.sc" horiz-adv-x="580" 
d="M306 474q-95 0 -156.5 -65.5t-61.5 -161.5t61 -158t150 -62q96 0 169 59v119h-149v32h186v-237h-36v52q-72 -59 -173 -59q-102 0 -174.5 70.5t-72.5 183.5q0 112 75.5 186.5t182.5 74.5q82 0 136.5 -37t54.5 -79q0 -19 -10 -31t-25 -12q-14 0 -22.5 8.5t-8.5 21.5
q0 21 21 30q-13 25 -53.5 45t-93.5 20z" />
    <glyph glyph-name="H.sc" horiz-adv-x="655" 
d="M38 0v33h94v433h-94v33h228v-33h-96v-197h314v197h-96v33h228v-33h-94v-433h94v-33h-228v33h96v202h-314v-202h96v-33h-228z" />
    <glyph glyph-name="I.sc" horiz-adv-x="308" 
d="M270 0h-232v33h97v433h-97v33h232v-33h-97v-433h97v-33z" />
    <glyph glyph-name="J.sc" horiz-adv-x="433" 
d="M173 27q48 0 78 31q36 39 36 121v287h-98v33h222v-33h-87v-288q0 -99 -46 -145q-41 -41 -106 -41q-59 0 -100.5 36t-41.5 88q0 22 10 35t27 13q12 0 21 -8.5t9 -22.5q0 -27 -27 -33q2 -27 30.5 -50t72.5 -23z" />
    <glyph glyph-name="K.sc" horiz-adv-x="561" 
d="M471 466l-185 -187l174 -246h91v-33h-113l-178 253l-89 -89v-131h95v-33h-228v33h96v433h-96v33h224v-33h-91v-257l256 257h-91v33h206v-33h-71z" />
    <glyph glyph-name="L.sc" horiz-adv-x="462" 
d="M390 33v101h36v-134h-388v33h95v433h-95v33h231v-33h-99v-433h220z" />
    <glyph glyph-name="M.sc" horiz-adv-x="721" 
d="M541 499h130v-33h-91l20 -433h88v-33h-220v33h94l-15 403l-179 -366h-15l-180 366l-15 -403h95v-33h-220v33h90l18 433h-91v33h130l181 -370z" />
    <glyph glyph-name="N.sc" horiz-adv-x="644" 
d="M166 499l321 -424v391h-97v33h227v-33h-95v-469h-22l-332 440v-404h97v-33h-227v33h95v433h-95v33h128z" />
    <glyph glyph-name="O.sc" horiz-adv-x="605" 
d="M302 508q111 0 182 -74t71 -184t-71 -184t-182 -74t-182 74t-71 184t71 184t182 74zM302 26q94 0 154.5 63.5t60.5 160.5t-60.5 160.5t-154.5 63.5q-93 0 -153.5 -63.5t-60.5 -160.5t60.5 -160.5t153.5 -63.5z" />
    <glyph glyph-name="P.sc" horiz-adv-x="476" 
d="M38 499h218q80 0 131 -42t51 -111q0 -73 -48.5 -115t-134.5 -42q-62 0 -85 1v-157h97v-33h-229v33h95v433h-95v33zM258 221q67 0 104.5 34t37.5 91q0 54 -40 87t-104 33h-86v-243q48 -2 88 -2z" />
    <glyph glyph-name="Q.sc" horiz-adv-x="605" 
d="M510 -104q-30 0 -56 10.5t-61 34t-42 27.5q-29 16 -82 26q-84 14 -138 62q-82 71 -82 194q0 110 71 184t182 74t182 -74t71 -184q0 -97 -57.5 -166t-149.5 -82q24 -7 51 -23q5 -3 19 -12t19 -11.5t16.5 -9t18.5 -8.5t17 -4t20 -2q31 0 61 19l17 -32q-32 -23 -77 -23z
M302 26q93 0 154 64.5t61 159.5q0 97 -60.5 160.5t-154.5 63.5q-93 0 -153.5 -63.5t-60.5 -160.5q0 -105 70 -169q58 -55 144 -55z" />
    <glyph glyph-name="Q.sc_alt" horiz-adv-x="605" 
d="M555 250q0 -74 -34 -134.5t-94 -92.5l55 -88l-29 -18l-57 91q-46 -16 -94 -16q-111 0 -182 74t-71 184t71 184t182 74t182 -74t71 -184zM517 250q0 97 -60.5 160.5t-154.5 63.5q-93 0 -153.5 -63.5t-60.5 -160.5t60.5 -160.5t153.5 -63.5q40 0 75 12l-62 99l29 20
l65 -105q50 28 79 80.5t29 117.5z" />
    <glyph glyph-name="R.sc" horiz-adv-x="521" 
d="M257 466h-87v-221q50 -2 82 -2q68 0 109 30.5t41 84.5q0 50 -39.5 79t-105.5 29zM170 211v-178h97v-33h-229v33h95v433h-95v33h221q83 0 131 -38t48 -103q0 -52 -32 -88.5t-86 -49.5l116 -187h80v-33h-106l-128 211q-13 -1 -35 -1q-55 0 -77 1z" />
    <glyph glyph-name="S.sc" horiz-adv-x="443" 
d="M319 406q0 20 14 30q-8 16 -38.5 28t-65.5 12q-55 0 -89.5 -26.5t-34.5 -66.5q0 -18 8.5 -33.5t18 -25t31.5 -21t33 -16l39 -15.5q38 -14 59.5 -23.5t48 -27t38.5 -40.5t12 -53q0 -62 -49 -99t-125 -37q-73 0 -121 30t-48 66q0 19 9 29.5t23 10.5t22.5 -8t8.5 -21
q0 -19 -15 -31q13 -17 45 -30t77 -13q62 0 98.5 27.5t36.5 73.5q0 22 -10 39t-31.5 30.5t-39 21.5t-47.5 19q-41 15 -61 24t-47.5 26.5t-39.5 40t-12 52.5q0 57 45 93t118 36q63 0 107.5 -27.5t44.5 -66.5q0 -17 -9 -27.5t-22 -10.5q-15 0 -23.5 8.5t-8.5 21.5z" />
    <glyph glyph-name="T.sc" horiz-adv-x="510" 
d="M139 0v33h97v433h-158v-98h-36v131h427v-131h-37v98h-158v-433h97v-33h-232z" />
    <glyph glyph-name="U.sc" horiz-adv-x="604" 
d="M153 466v-286q0 -74 39.5 -114t109.5 -40t109.5 40t39.5 113v287h-95v33h223v-33h-90v-286q0 -91 -49.5 -139.5t-138.5 -48.5t-137.5 48t-48.5 139v287h-90v33h223v-33h-95z" />
    <glyph glyph-name="V.sc" horiz-adv-x="559" 
d="M268 -9l-188 475h-73v33h205v-33h-92l161 -414l160 414h-92v33h203v-33h-73l-188 -475h-23z" />
    <glyph glyph-name="W.sc" horiz-adv-x="782" 
d="M234 -12l-146 478h-81v33h213v-33h-92l122 -406l134 370h17l135 -370l122 406h-93v33h210v-33h-80l-146 -478h-23l-135 374l-135 -374h-22z" />
    <glyph glyph-name="X.sc" horiz-adv-x="554" 
d="M535 33v-33h-196v33h78l-143 200l-145 -200h85v-33h-199v33h73l164 221l-154 212h-72v33h200v-33h-84l133 -188l135 188h-83v33h197v-33h-74l-153 -210l163 -223h75z" />
    <glyph glyph-name="Y.sc" 
d="M525 499v-33h-77l-165 -277v-156h97v-33h-230v33h96v156l-164 277h-78v33h208v-33h-88l142 -245l143 245h-90v33h206z" />
    <glyph glyph-name="Z.sc" horiz-adv-x="472" 
d="M44 0v20l332 447h-284v-96h-36v128h374v-20l-332 -446h298v95h37v-128h-389z" />
    <glyph glyph-name="Aacute.sc" horiz-adv-x="577" 
d="M166 499h245v-33h-86l167 -433h74v-33h-204v33h91l-56 145h-220l-55 -145h92v-33h-204v33h75l166 433h-85v33zM287 469l-98 -258h196zM256 569l-9 15l124 99q18 15 31 15q11 0 19 -8.5t8 -20.5q0 -17 -29 -31z" />
    <glyph glyph-name="Abreve.sc" horiz-adv-x="577" 
d="M166 499h245v-33h-86l167 -433h74v-33h-204v33h91l-56 145h-220l-55 -145h92v-33h-204v33h75l166 433h-85v33zM287 469l-98 -258h196zM292 569q-47 0 -84 30t-54 77l29 14q32 -78 109 -78q76 0 109 78l28 -14q-17 -47 -54 -77t-83 -30z" />
    <glyph glyph-name="Acircumflex.sc" horiz-adv-x="577" 
d="M166 499h245v-33h-86l167 -433h74v-33h-204v33h91l-56 145h-220l-55 -145h92v-33h-204v33h75l166 433h-85v33zM287 469l-98 -258h196zM173 563l-17 19l136 127l135 -127l-17 -19l-118 89z" />
    </font>
</defs>
</svg>
